<?xml version="1.0" encoding="utf-8" standalone="no"?>
<!DOCTYPE svg PUBLIC "-//W3C//DTD SVG 1.1//EN"
  "http://www.w3.org/Graphics/SVG/1.1/DTD/svg11.dtd">
<svg xmlns:xlink="http://www.w3.org/1999/xlink" width="864pt" height="432pt" viewBox="0 0 864 432" xmlns="http://www.w3.org/2000/svg" version="1.1">
 <metadata>
  <rdf:RDF xmlns:dc="http://purl.org/dc/elements/1.1/" xmlns:cc="http://creativecommons.org/ns#" xmlns:rdf="http://www.w3.org/1999/02/22-rdf-syntax-ns#">
   <cc:Work>
    <dc:type rdf:resource="http://purl.org/dc/dcmitype/StillImage"/>
    <dc:date>2026-07-04T20:17:26.809784</dc:date>
    <dc:format>image/svg+xml</dc:format>
    <dc:creator>
     <cc:Agent>
      <dc:title>Matplotlib v3.10.6, https://matplotlib.org/</dc:title>
     </cc:Agent>
    </dc:creator>
   </cc:Work>
  </rdf:RDF>
 </metadata>
 <defs>
  <style type="text/css">*{stroke-linejoin: round; stroke-linecap: butt}</style>
 </defs>
 <g id="figure_1">
  <g id="patch_1">
   <path d="M 0 432 
L 864 432 
L 864 0 
L 0 0 
z
" style="fill: #ffffff"/>
  </g>
  <g id="axes_1">
   <g id="patch_2">
    <path d="M 49.98 394.98 
L 853.2 394.98 
L 853.2 28.14 
L 49.98 28.14 
z
" style="fill: #ffffff"/>
   </g>
   <g id="matplotlib.axis_1">
    <g id="xtick_1">
     <g id="line2d_1">
      <path d="M 85.690219 394.98 
L 85.690219 28.14 
" clip-path="url(#pb17f0d60a8)" style="fill: none; stroke: #cccccc; stroke-width: 0.8; stroke-linecap: round"/>
     </g>
     <g id="line2d_2"/>
     <g id="text_1">
      <!-- 2024-01 -->
      <g style="fill: #262626" transform="translate(67.342563 405.637812) scale(0.1 -0.1)">
       <defs>
        <path id="ArialMT-32" d="M 3222 541 
L 3222 0 
L 194 0 
Q 188 203 259 391 
Q 375 700 629 1000 
Q 884 1300 1366 1694 
Q 2113 2306 2375 2664 
Q 2638 3022 2638 3341 
Q 2638 3675 2398 3904 
Q 2159 4134 1775 4134 
Q 1369 4134 1125 3890 
Q 881 3647 878 3216 
L 300 3275 
Q 359 3922 746 4261 
Q 1134 4600 1788 4600 
Q 2447 4600 2831 4234 
Q 3216 3869 3216 3328 
Q 3216 3053 3103 2787 
Q 2991 2522 2730 2228 
Q 2469 1934 1863 1422 
Q 1356 997 1212 845 
Q 1069 694 975 541 
L 3222 541 
z
" transform="scale(0.015625)"/>
        <path id="ArialMT-30" d="M 266 2259 
Q 266 3072 433 3567 
Q 600 4063 929 4331 
Q 1259 4600 1759 4600 
Q 2128 4600 2406 4451 
Q 2684 4303 2865 4023 
Q 3047 3744 3150 3342 
Q 3253 2941 3253 2259 
Q 3253 1453 3087 958 
Q 2922 463 2592 192 
Q 2263 -78 1759 -78 
Q 1097 -78 719 397 
Q 266 969 266 2259 
z
M 844 2259 
Q 844 1131 1108 757 
Q 1372 384 1759 384 
Q 2147 384 2411 759 
Q 2675 1134 2675 2259 
Q 2675 3391 2411 3762 
Q 2147 4134 1753 4134 
Q 1366 4134 1134 3806 
Q 844 3388 844 2259 
z
" transform="scale(0.015625)"/>
        <path id="ArialMT-34" d="M 2069 0 
L 2069 1097 
L 81 1097 
L 81 1613 
L 2172 4581 
L 2631 4581 
L 2631 1613 
L 3250 1613 
L 3250 1097 
L 2631 1097 
L 2631 0 
L 2069 0 
z
M 2069 1613 
L 2069 3678 
L 634 1613 
L 2069 1613 
z
" transform="scale(0.015625)"/>
        <path id="ArialMT-2d" d="M 203 1375 
L 203 1941 
L 1931 1941 
L 1931 1375 
L 203 1375 
z
" transform="scale(0.015625)"/>
        <path id="ArialMT-31" d="M 2384 0 
L 1822 0 
L 1822 3584 
Q 1619 3391 1289 3197 
Q 959 3003 697 2906 
L 697 3450 
Q 1169 3672 1522 3987 
Q 1875 4303 2022 4600 
L 2384 4600 
L 2384 0 
z
" transform="scale(0.015625)"/>
       </defs>
       <use xlink:href="#ArialMT-32"/>
       <use xlink:href="#ArialMT-30" transform="translate(55.615234 0)"/>
       <use xlink:href="#ArialMT-32" transform="translate(111.230469 0)"/>
       <use xlink:href="#ArialMT-34" transform="translate(166.845703 0)"/>
       <use xlink:href="#ArialMT-2d" transform="translate(222.460938 0)"/>
       <use xlink:href="#ArialMT-30" transform="translate(255.761719 0)"/>
       <use xlink:href="#ArialMT-31" transform="translate(311.376953 0)"/>
      </g>
     </g>
    </g>
    <g id="xtick_2">
     <g id="line2d_3">
      <path d="M 158.470285 394.98 
L 158.470285 28.14 
" clip-path="url(#pb17f0d60a8)" style="fill: none; stroke: #cccccc; stroke-width: 0.8; stroke-linecap: round"/>
     </g>
     <g id="line2d_4"/>
     <g id="text_2">
      <!-- 2024-04 -->
      <g style="fill: #262626" transform="translate(140.122629 405.637812) scale(0.1 -0.1)">
       <use xlink:href="#ArialMT-32"/>
       <use xlink:href="#ArialMT-30" transform="translate(55.615234 0)"/>
       <use xlink:href="#ArialMT-32" transform="translate(111.230469 0)"/>
       <use xlink:href="#ArialMT-34" transform="translate(166.845703 0)"/>
       <use xlink:href="#ArialMT-2d" transform="translate(222.460938 0)"/>
       <use xlink:href="#ArialMT-30" transform="translate(255.761719 0)"/>
       <use xlink:href="#ArialMT-34" transform="translate(311.376953 0)"/>
      </g>
     </g>
    </g>
    <g id="xtick_3">
     <g id="line2d_5">
      <path d="M 231.25035 394.98 
L 231.25035 28.14 
" clip-path="url(#pb17f0d60a8)" style="fill: none; stroke: #cccccc; stroke-width: 0.8; stroke-linecap: round"/>
     </g>
     <g id="line2d_6"/>
     <g id="text_3">
      <!-- 2024-07 -->
      <g style="fill: #262626" transform="translate(212.902694 405.637812) scale(0.1 -0.1)">
       <defs>
        <path id="ArialMT-37" d="M 303 3981 
L 303 4522 
L 3269 4522 
L 3269 4084 
Q 2831 3619 2401 2847 
Q 1972 2075 1738 1259 
Q 1569 684 1522 0 
L 944 0 
Q 953 541 1156 1306 
Q 1359 2072 1739 2783 
Q 2119 3494 2547 3981 
L 303 3981 
z
" transform="scale(0.015625)"/>
       </defs>
       <use xlink:href="#ArialMT-32"/>
       <use xlink:href="#ArialMT-30" transform="translate(55.615234 0)"/>
       <use xlink:href="#ArialMT-32" transform="translate(111.230469 0)"/>
       <use xlink:href="#ArialMT-34" transform="translate(166.845703 0)"/>
       <use xlink:href="#ArialMT-2d" transform="translate(222.460938 0)"/>
       <use xlink:href="#ArialMT-30" transform="translate(255.761719 0)"/>
       <use xlink:href="#ArialMT-37" transform="translate(311.376953 0)"/>
      </g>
     </g>
    </g>
    <g id="xtick_4">
     <g id="line2d_7">
      <path d="M 304.830197 394.98 
L 304.830197 28.14 
" clip-path="url(#pb17f0d60a8)" style="fill: none; stroke: #cccccc; stroke-width: 0.8; stroke-linecap: round"/>
     </g>
     <g id="line2d_8"/>
     <g id="text_4">
      <!-- 2024-10 -->
      <g style="fill: #262626" transform="translate(286.482541 405.637812) scale(0.1 -0.1)">
       <use xlink:href="#ArialMT-32"/>
       <use xlink:href="#ArialMT-30" transform="translate(55.615234 0)"/>
       <use xlink:href="#ArialMT-32" transform="translate(111.230469 0)"/>
       <use xlink:href="#ArialMT-34" transform="translate(166.845703 0)"/>
       <use xlink:href="#ArialMT-2d" transform="translate(222.460938 0)"/>
       <use xlink:href="#ArialMT-31" transform="translate(255.761719 0)"/>
       <use xlink:href="#ArialMT-30" transform="translate(311.376953 0)"/>
      </g>
     </g>
    </g>
    <g id="xtick_5">
     <g id="line2d_9">
      <path d="M 378.410044 394.98 
L 378.410044 28.14 
" clip-path="url(#pb17f0d60a8)" style="fill: none; stroke: #cccccc; stroke-width: 0.8; stroke-linecap: round"/>
     </g>
     <g id="line2d_10"/>
     <g id="text_5">
      <!-- 2025-01 -->
      <g style="fill: #262626" transform="translate(360.062388 405.637812) scale(0.1 -0.1)">
       <defs>
        <path id="ArialMT-35" d="M 266 1200 
L 856 1250 
Q 922 819 1161 601 
Q 1400 384 1738 384 
Q 2144 384 2425 690 
Q 2706 997 2706 1503 
Q 2706 1984 2436 2262 
Q 2166 2541 1728 2541 
Q 1456 2541 1237 2417 
Q 1019 2294 894 2097 
L 366 2166 
L 809 4519 
L 3088 4519 
L 3088 3981 
L 1259 3981 
L 1013 2750 
Q 1425 3038 1878 3038 
Q 2478 3038 2890 2622 
Q 3303 2206 3303 1553 
Q 3303 931 2941 478 
Q 2500 -78 1738 -78 
Q 1113 -78 717 272 
Q 322 622 266 1200 
z
" transform="scale(0.015625)"/>
       </defs>
       <use xlink:href="#ArialMT-32"/>
       <use xlink:href="#ArialMT-30" transform="translate(55.615234 0)"/>
       <use xlink:href="#ArialMT-32" transform="translate(111.230469 0)"/>
       <use xlink:href="#ArialMT-35" transform="translate(166.845703 0)"/>
       <use xlink:href="#ArialMT-2d" transform="translate(222.460938 0)"/>
       <use xlink:href="#ArialMT-30" transform="translate(255.761719 0)"/>
       <use xlink:href="#ArialMT-31" transform="translate(311.376953 0)"/>
      </g>
     </g>
    </g>
    <g id="xtick_6">
     <g id="line2d_11">
      <path d="M 450.390329 394.98 
L 450.390329 28.14 
" clip-path="url(#pb17f0d60a8)" style="fill: none; stroke: #cccccc; stroke-width: 0.8; stroke-linecap: round"/>
     </g>
     <g id="line2d_12"/>
     <g id="text_6">
      <!-- 2025-04 -->
      <g style="fill: #262626" transform="translate(432.042672 405.637812) scale(0.1 -0.1)">
       <use xlink:href="#ArialMT-32"/>
       <use xlink:href="#ArialMT-30" transform="translate(55.615234 0)"/>
       <use xlink:href="#ArialMT-32" transform="translate(111.230469 0)"/>
       <use xlink:href="#ArialMT-35" transform="translate(166.845703 0)"/>
       <use xlink:href="#ArialMT-2d" transform="translate(222.460938 0)"/>
       <use xlink:href="#ArialMT-30" transform="translate(255.761719 0)"/>
       <use xlink:href="#ArialMT-34" transform="translate(311.376953 0)"/>
      </g>
     </g>
    </g>
    <g id="xtick_7">
     <g id="line2d_13">
      <path d="M 523.170394 394.98 
L 523.170394 28.14 
" clip-path="url(#pb17f0d60a8)" style="fill: none; stroke: #cccccc; stroke-width: 0.8; stroke-linecap: round"/>
     </g>
     <g id="line2d_14"/>
     <g id="text_7">
      <!-- 2025-07 -->
      <g style="fill: #262626" transform="translate(504.822738 405.637812) scale(0.1 -0.1)">
       <use xlink:href="#ArialMT-32"/>
       <use xlink:href="#ArialMT-30" transform="translate(55.615234 0)"/>
       <use xlink:href="#ArialMT-32" transform="translate(111.230469 0)"/>
       <use xlink:href="#ArialMT-35" transform="translate(166.845703 0)"/>
       <use xlink:href="#ArialMT-2d" transform="translate(222.460938 0)"/>
       <use xlink:href="#ArialMT-30" transform="translate(255.761719 0)"/>
       <use xlink:href="#ArialMT-37" transform="translate(311.376953 0)"/>
      </g>
     </g>
    </g>
    <g id="xtick_8">
     <g id="line2d_15">
      <path d="M 596.750241 394.98 
L 596.750241 28.14 
" clip-path="url(#pb17f0d60a8)" style="fill: none; stroke: #cccccc; stroke-width: 0.8; stroke-linecap: round"/>
     </g>
     <g id="line2d_16"/>
     <g id="text_8">
      <!-- 2025-10 -->
      <g style="fill: #262626" transform="translate(578.402585 405.637812) scale(0.1 -0.1)">
       <use xlink:href="#ArialMT-32"/>
       <use xlink:href="#ArialMT-30" transform="translate(55.615234 0)"/>
       <use xlink:href="#ArialMT-32" transform="translate(111.230469 0)"/>
       <use xlink:href="#ArialMT-35" transform="translate(166.845703 0)"/>
       <use xlink:href="#ArialMT-2d" transform="translate(222.460938 0)"/>
       <use xlink:href="#ArialMT-31" transform="translate(255.761719 0)"/>
       <use xlink:href="#ArialMT-30" transform="translate(311.376953 0)"/>
      </g>
     </g>
    </g>
    <g id="xtick_9">
     <g id="line2d_17">
      <path d="M 670.330088 394.98 
L 670.330088 28.14 
" clip-path="url(#pb17f0d60a8)" style="fill: none; stroke: #cccccc; stroke-width: 0.8; stroke-linecap: round"/>
     </g>
     <g id="line2d_18"/>
     <g id="text_9">
      <!-- 2026-01 -->
      <g style="fill: #262626" transform="translate(651.982431 405.637812) scale(0.1 -0.1)">
       <defs>
        <path id="ArialMT-36" d="M 3184 3459 
L 2625 3416 
Q 2550 3747 2413 3897 
Q 2184 4138 1850 4138 
Q 1581 4138 1378 3988 
Q 1113 3794 959 3422 
Q 806 3050 800 2363 
Q 1003 2672 1297 2822 
Q 1591 2972 1913 2972 
Q 2475 2972 2870 2558 
Q 3266 2144 3266 1488 
Q 3266 1056 3080 686 
Q 2894 316 2569 119 
Q 2244 -78 1831 -78 
Q 1128 -78 684 439 
Q 241 956 241 2144 
Q 241 3472 731 4075 
Q 1159 4600 1884 4600 
Q 2425 4600 2770 4297 
Q 3116 3994 3184 3459 
z
M 888 1484 
Q 888 1194 1011 928 
Q 1134 663 1356 523 
Q 1578 384 1822 384 
Q 2178 384 2434 671 
Q 2691 959 2691 1453 
Q 2691 1928 2437 2201 
Q 2184 2475 1800 2475 
Q 1419 2475 1153 2201 
Q 888 1928 888 1484 
z
" transform="scale(0.015625)"/>
       </defs>
       <use xlink:href="#ArialMT-32"/>
       <use xlink:href="#ArialMT-30" transform="translate(55.615234 0)"/>
       <use xlink:href="#ArialMT-32" transform="translate(111.230469 0)"/>
       <use xlink:href="#ArialMT-36" transform="translate(166.845703 0)"/>
       <use xlink:href="#ArialMT-2d" transform="translate(222.460938 0)"/>
       <use xlink:href="#ArialMT-30" transform="translate(255.761719 0)"/>
       <use xlink:href="#ArialMT-31" transform="translate(311.376953 0)"/>
      </g>
     </g>
    </g>
    <g id="xtick_10">
     <g id="line2d_19">
      <path d="M 742.310372 394.98 
L 742.310372 28.14 
" clip-path="url(#pb17f0d60a8)" style="fill: none; stroke: #cccccc; stroke-width: 0.8; stroke-linecap: round"/>
     </g>
     <g id="line2d_20"/>
     <g id="text_10">
      <!-- 2026-04 -->
      <g style="fill: #262626" transform="translate(723.962716 405.637812) scale(0.1 -0.1)">
       <use xlink:href="#ArialMT-32"/>
       <use xlink:href="#ArialMT-30" transform="translate(55.615234 0)"/>
       <use xlink:href="#ArialMT-32" transform="translate(111.230469 0)"/>
       <use xlink:href="#ArialMT-36" transform="translate(166.845703 0)"/>
       <use xlink:href="#ArialMT-2d" transform="translate(222.460938 0)"/>
       <use xlink:href="#ArialMT-30" transform="translate(255.761719 0)"/>
       <use xlink:href="#ArialMT-34" transform="translate(311.376953 0)"/>
      </g>
     </g>
    </g>
    <g id="xtick_11">
     <g id="line2d_21">
      <path d="M 815.090438 394.98 
L 815.090438 28.14 
" clip-path="url(#pb17f0d60a8)" style="fill: none; stroke: #cccccc; stroke-width: 0.8; stroke-linecap: round"/>
     </g>
     <g id="line2d_22"/>
     <g id="text_11">
      <!-- 2026-07 -->
      <g style="fill: #262626" transform="translate(796.742782 405.637812) scale(0.1 -0.1)">
       <use xlink:href="#ArialMT-32"/>
       <use xlink:href="#ArialMT-30" transform="translate(55.615234 0)"/>
       <use xlink:href="#ArialMT-32" transform="translate(111.230469 0)"/>
       <use xlink:href="#ArialMT-36" transform="translate(166.845703 0)"/>
       <use xlink:href="#ArialMT-2d" transform="translate(222.460938 0)"/>
       <use xlink:href="#ArialMT-30" transform="translate(255.761719 0)"/>
       <use xlink:href="#ArialMT-37" transform="translate(311.376953 0)"/>
      </g>
     </g>
    </g>
    <g id="text_12">
     <!-- Date -->
     <g style="fill: #262626" transform="translate(441.029063 418.783125) scale(0.1 -0.1)">
      <defs>
       <path id="ArialMT-44" d="M 494 0 
L 494 4581 
L 2072 4581 
Q 2606 4581 2888 4516 
Q 3281 4425 3559 4188 
Q 3922 3881 4101 3404 
Q 4281 2928 4281 2316 
Q 4281 1794 4159 1391 
Q 4038 988 3847 723 
Q 3656 459 3429 307 
Q 3203 156 2883 78 
Q 2563 0 2147 0 
L 494 0 
z
M 1100 541 
L 2078 541 
Q 2531 541 2789 625 
Q 3047 709 3200 863 
Q 3416 1078 3536 1442 
Q 3656 1806 3656 2325 
Q 3656 3044 3420 3430 
Q 3184 3816 2847 3947 
Q 2603 4041 2063 4041 
L 1100 4041 
L 1100 541 
z
" transform="scale(0.015625)"/>
       <path id="ArialMT-61" d="M 2588 409 
Q 2275 144 1986 34 
Q 1697 -75 1366 -75 
Q 819 -75 525 192 
Q 231 459 231 875 
Q 231 1119 342 1320 
Q 453 1522 633 1644 
Q 813 1766 1038 1828 
Q 1203 1872 1538 1913 
Q 2219 1994 2541 2106 
Q 2544 2222 2544 2253 
Q 2544 2597 2384 2738 
Q 2169 2928 1744 2928 
Q 1347 2928 1158 2789 
Q 969 2650 878 2297 
L 328 2372 
Q 403 2725 575 2942 
Q 747 3159 1072 3276 
Q 1397 3394 1825 3394 
Q 2250 3394 2515 3294 
Q 2781 3194 2906 3042 
Q 3031 2891 3081 2659 
Q 3109 2516 3109 2141 
L 3109 1391 
Q 3109 606 3145 398 
Q 3181 191 3288 0 
L 2700 0 
Q 2613 175 2588 409 
z
M 2541 1666 
Q 2234 1541 1622 1453 
Q 1275 1403 1131 1340 
Q 988 1278 909 1158 
Q 831 1038 831 891 
Q 831 666 1001 516 
Q 1172 366 1500 366 
Q 1825 366 2078 508 
Q 2331 650 2450 897 
Q 2541 1088 2541 1459 
L 2541 1666 
z
" transform="scale(0.015625)"/>
       <path id="ArialMT-74" d="M 1650 503 
L 1731 6 
Q 1494 -44 1306 -44 
Q 1000 -44 831 53 
Q 663 150 594 308 
Q 525 466 525 972 
L 525 2881 
L 113 2881 
L 113 3319 
L 525 3319 
L 525 4141 
L 1084 4478 
L 1084 3319 
L 1650 3319 
L 1650 2881 
L 1084 2881 
L 1084 941 
Q 1084 700 1114 631 
Q 1144 563 1211 522 
Q 1278 481 1403 481 
Q 1497 481 1650 503 
z
" transform="scale(0.015625)"/>
       <path id="ArialMT-65" d="M 2694 1069 
L 3275 997 
Q 3138 488 2766 206 
Q 2394 -75 1816 -75 
Q 1088 -75 661 373 
Q 234 822 234 1631 
Q 234 2469 665 2931 
Q 1097 3394 1784 3394 
Q 2450 3394 2872 2941 
Q 3294 2488 3294 1666 
Q 3294 1616 3291 1516 
L 816 1516 
Q 847 969 1125 678 
Q 1403 388 1819 388 
Q 2128 388 2347 550 
Q 2566 713 2694 1069 
z
M 847 1978 
L 2700 1978 
Q 2663 2397 2488 2606 
Q 2219 2931 1791 2931 
Q 1403 2931 1139 2672 
Q 875 2413 847 1978 
z
" transform="scale(0.015625)"/>
      </defs>
      <use xlink:href="#ArialMT-44"/>
      <use xlink:href="#ArialMT-61" transform="translate(72.216797 0)"/>
      <use xlink:href="#ArialMT-74" transform="translate(127.832031 0)"/>
      <use xlink:href="#ArialMT-65" transform="translate(155.615234 0)"/>
     </g>
    </g>
   </g>
   <g id="matplotlib.axis_2">
    <g id="ytick_1">
     <g id="line2d_23">
      <path d="M 49.98 380.208885 
L 853.2 380.208885 
" clip-path="url(#pb17f0d60a8)" style="fill: none; stroke: #cccccc; stroke-width: 0.8; stroke-linecap: round"/>
     </g>
     <g id="line2d_24"/>
     <g id="text_13">
      <!-- 0 -->
      <g style="fill: #262626" transform="translate(40.919063 383.787791) scale(0.1 -0.1)">
       <use xlink:href="#ArialMT-30"/>
      </g>
     </g>
    </g>
    <g id="ytick_2">
     <g id="line2d_25">
      <path d="M 49.98 331.682941 
L 853.2 331.682941 
" clip-path="url(#pb17f0d60a8)" style="fill: none; stroke: #cccccc; stroke-width: 0.8; stroke-linecap: round"/>
     </g>
     <g id="line2d_26"/>
     <g id="text_14">
      <!-- 200 -->
      <g style="fill: #262626" transform="translate(29.797188 335.261847) scale(0.1 -0.1)">
       <use xlink:href="#ArialMT-32"/>
       <use xlink:href="#ArialMT-30" transform="translate(55.615234 0)"/>
       <use xlink:href="#ArialMT-30" transform="translate(111.230469 0)"/>
      </g>
     </g>
    </g>
    <g id="ytick_3">
     <g id="line2d_27">
      <path d="M 49.98 283.156997 
L 853.2 283.156997 
" clip-path="url(#pb17f0d60a8)" style="fill: none; stroke: #cccccc; stroke-width: 0.8; stroke-linecap: round"/>
     </g>
     <g id="line2d_28"/>
     <g id="text_15">
      <!-- 400 -->
      <g style="fill: #262626" transform="translate(29.797188 286.735903) scale(0.1 -0.1)">
       <use xlink:href="#ArialMT-34"/>
       <use xlink:href="#ArialMT-30" transform="translate(55.615234 0)"/>
       <use xlink:href="#ArialMT-30" transform="translate(111.230469 0)"/>
      </g>
     </g>
    </g>
    <g id="ytick_4">
     <g id="line2d_29">
      <path d="M 49.98 234.631053 
L 853.2 234.631053 
" clip-path="url(#pb17f0d60a8)" style="fill: none; stroke: #cccccc; stroke-width: 0.8; stroke-linecap: round"/>
     </g>
     <g id="line2d_30"/>
     <g id="text_16">
      <!-- 600 -->
      <g style="fill: #262626" transform="translate(29.797188 238.20996) scale(0.1 -0.1)">
       <use xlink:href="#ArialMT-36"/>
       <use xlink:href="#ArialMT-30" transform="translate(55.615234 0)"/>
       <use xlink:href="#ArialMT-30" transform="translate(111.230469 0)"/>
      </g>
     </g>
    </g>
    <g id="ytick_5">
     <g id="line2d_31">
      <path d="M 49.98 186.10511 
L 853.2 186.10511 
" clip-path="url(#pb17f0d60a8)" style="fill: none; stroke: #cccccc; stroke-width: 0.8; stroke-linecap: round"/>
     </g>
     <g id="line2d_32"/>
     <g id="text_17">
      <!-- 800 -->
      <g style="fill: #262626" transform="translate(29.797188 189.684016) scale(0.1 -0.1)">
       <defs>
        <path id="ArialMT-38" d="M 1131 2484 
Q 781 2613 612 2850 
Q 444 3088 444 3419 
Q 444 3919 803 4259 
Q 1163 4600 1759 4600 
Q 2359 4600 2725 4251 
Q 3091 3903 3091 3403 
Q 3091 3084 2923 2848 
Q 2756 2613 2416 2484 
Q 2838 2347 3058 2040 
Q 3278 1734 3278 1309 
Q 3278 722 2862 322 
Q 2447 -78 1769 -78 
Q 1091 -78 675 323 
Q 259 725 259 1325 
Q 259 1772 486 2073 
Q 713 2375 1131 2484 
z
M 1019 3438 
Q 1019 3113 1228 2906 
Q 1438 2700 1772 2700 
Q 2097 2700 2305 2904 
Q 2513 3109 2513 3406 
Q 2513 3716 2298 3927 
Q 2084 4138 1766 4138 
Q 1444 4138 1231 3931 
Q 1019 3725 1019 3438 
z
M 838 1322 
Q 838 1081 952 856 
Q 1066 631 1291 507 
Q 1516 384 1775 384 
Q 2178 384 2440 643 
Q 2703 903 2703 1303 
Q 2703 1709 2433 1975 
Q 2163 2241 1756 2241 
Q 1359 2241 1098 1978 
Q 838 1716 838 1322 
z
" transform="scale(0.015625)"/>
       </defs>
       <use xlink:href="#ArialMT-38"/>
       <use xlink:href="#ArialMT-30" transform="translate(55.615234 0)"/>
       <use xlink:href="#ArialMT-30" transform="translate(111.230469 0)"/>
      </g>
     </g>
    </g>
    <g id="ytick_6">
     <g id="line2d_33">
      <path d="M 49.98 137.579166 
L 853.2 137.579166 
" clip-path="url(#pb17f0d60a8)" style="fill: none; stroke: #cccccc; stroke-width: 0.8; stroke-linecap: round"/>
     </g>
     <g id="line2d_34"/>
     <g id="text_18">
      <!-- 1000 -->
      <g style="fill: #262626" transform="translate(24.23625 141.158072) scale(0.1 -0.1)">
       <use xlink:href="#ArialMT-31"/>
       <use xlink:href="#ArialMT-30" transform="translate(55.615234 0)"/>
       <use xlink:href="#ArialMT-30" transform="translate(111.230469 0)"/>
       <use xlink:href="#ArialMT-30" transform="translate(166.845703 0)"/>
      </g>
     </g>
    </g>
    <g id="ytick_7">
     <g id="line2d_35">
      <path d="M 49.98 89.053222 
L 853.2 89.053222 
" clip-path="url(#pb17f0d60a8)" style="fill: none; stroke: #cccccc; stroke-width: 0.8; stroke-linecap: round"/>
     </g>
     <g id="line2d_36"/>
     <g id="text_19">
      <!-- 1200 -->
      <g style="fill: #262626" transform="translate(24.23625 92.632128) scale(0.1 -0.1)">
       <use xlink:href="#ArialMT-31"/>
       <use xlink:href="#ArialMT-32" transform="translate(55.615234 0)"/>
       <use xlink:href="#ArialMT-30" transform="translate(111.230469 0)"/>
       <use xlink:href="#ArialMT-30" transform="translate(166.845703 0)"/>
      </g>
     </g>
    </g>
    <g id="ytick_8">
     <g id="line2d_37">
      <path d="M 49.98 40.527278 
L 853.2 40.527278 
" clip-path="url(#pb17f0d60a8)" style="fill: none; stroke: #cccccc; stroke-width: 0.8; stroke-linecap: round"/>
     </g>
     <g id="line2d_38"/>
     <g id="text_20">
      <!-- 1400 -->
      <g style="fill: #262626" transform="translate(24.23625 44.106185) scale(0.1 -0.1)">
       <use xlink:href="#ArialMT-31"/>
       <use xlink:href="#ArialMT-34" transform="translate(55.615234 0)"/>
       <use xlink:href="#ArialMT-30" transform="translate(111.230469 0)"/>
       <use xlink:href="#ArialMT-30" transform="translate(166.845703 0)"/>
      </g>
     </g>
    </g>
    <g id="text_21">
     <!-- Close Price (CNY) -->
     <g style="fill: #262626" transform="translate(18.131563 252.399062) rotate(-90) scale(0.1 -0.1)">
      <defs>
       <path id="ArialMT-43" d="M 3763 1606 
L 4369 1453 
Q 4178 706 3683 314 
Q 3188 -78 2472 -78 
Q 1731 -78 1267 223 
Q 803 525 561 1097 
Q 319 1669 319 2325 
Q 319 3041 592 3573 
Q 866 4106 1370 4382 
Q 1875 4659 2481 4659 
Q 3169 4659 3637 4309 
Q 4106 3959 4291 3325 
L 3694 3184 
Q 3534 3684 3231 3912 
Q 2928 4141 2469 4141 
Q 1941 4141 1586 3887 
Q 1231 3634 1087 3207 
Q 944 2781 944 2328 
Q 944 1744 1114 1308 
Q 1284 872 1643 656 
Q 2003 441 2422 441 
Q 2931 441 3284 734 
Q 3638 1028 3763 1606 
z
" transform="scale(0.015625)"/>
       <path id="ArialMT-6c" d="M 409 0 
L 409 4581 
L 972 4581 
L 972 0 
L 409 0 
z
" transform="scale(0.015625)"/>
       <path id="ArialMT-6f" d="M 213 1659 
Q 213 2581 725 3025 
Q 1153 3394 1769 3394 
Q 2453 3394 2887 2945 
Q 3322 2497 3322 1706 
Q 3322 1066 3130 698 
Q 2938 331 2570 128 
Q 2203 -75 1769 -75 
Q 1072 -75 642 372 
Q 213 819 213 1659 
z
M 791 1659 
Q 791 1022 1069 705 
Q 1347 388 1769 388 
Q 2188 388 2466 706 
Q 2744 1025 2744 1678 
Q 2744 2294 2464 2611 
Q 2184 2928 1769 2928 
Q 1347 2928 1069 2612 
Q 791 2297 791 1659 
z
" transform="scale(0.015625)"/>
       <path id="ArialMT-73" d="M 197 991 
L 753 1078 
Q 800 744 1014 566 
Q 1228 388 1613 388 
Q 2000 388 2187 545 
Q 2375 703 2375 916 
Q 2375 1106 2209 1216 
Q 2094 1291 1634 1406 
Q 1016 1563 777 1677 
Q 538 1791 414 1992 
Q 291 2194 291 2438 
Q 291 2659 392 2848 
Q 494 3038 669 3163 
Q 800 3259 1026 3326 
Q 1253 3394 1513 3394 
Q 1903 3394 2198 3281 
Q 2494 3169 2634 2976 
Q 2775 2784 2828 2463 
L 2278 2388 
Q 2241 2644 2061 2787 
Q 1881 2931 1553 2931 
Q 1166 2931 1000 2803 
Q 834 2675 834 2503 
Q 834 2394 903 2306 
Q 972 2216 1119 2156 
Q 1203 2125 1616 2013 
Q 2213 1853 2448 1751 
Q 2684 1650 2818 1456 
Q 2953 1263 2953 975 
Q 2953 694 2789 445 
Q 2625 197 2315 61 
Q 2006 -75 1616 -75 
Q 969 -75 630 194 
Q 291 463 197 991 
z
" transform="scale(0.015625)"/>
       <path id="ArialMT-20" transform="scale(0.015625)"/>
       <path id="ArialMT-50" d="M 494 0 
L 494 4581 
L 2222 4581 
Q 2678 4581 2919 4538 
Q 3256 4481 3484 4323 
Q 3713 4166 3852 3881 
Q 3991 3597 3991 3256 
Q 3991 2672 3619 2267 
Q 3247 1863 2275 1863 
L 1100 1863 
L 1100 0 
L 494 0 
z
M 1100 2403 
L 2284 2403 
Q 2872 2403 3119 2622 
Q 3366 2841 3366 3238 
Q 3366 3525 3220 3729 
Q 3075 3934 2838 4000 
Q 2684 4041 2272 4041 
L 1100 4041 
L 1100 2403 
z
" transform="scale(0.015625)"/>
       <path id="ArialMT-72" d="M 416 0 
L 416 3319 
L 922 3319 
L 922 2816 
Q 1116 3169 1280 3281 
Q 1444 3394 1641 3394 
Q 1925 3394 2219 3213 
L 2025 2691 
Q 1819 2813 1613 2813 
Q 1428 2813 1281 2702 
Q 1134 2591 1072 2394 
Q 978 2094 978 1738 
L 978 0 
L 416 0 
z
" transform="scale(0.015625)"/>
       <path id="ArialMT-69" d="M 425 3934 
L 425 4581 
L 988 4581 
L 988 3934 
L 425 3934 
z
M 425 0 
L 425 3319 
L 988 3319 
L 988 0 
L 425 0 
z
" transform="scale(0.015625)"/>
       <path id="ArialMT-63" d="M 2588 1216 
L 3141 1144 
Q 3050 572 2676 248 
Q 2303 -75 1759 -75 
Q 1078 -75 664 370 
Q 250 816 250 1647 
Q 250 2184 428 2587 
Q 606 2991 970 3192 
Q 1334 3394 1763 3394 
Q 2303 3394 2647 3120 
Q 2991 2847 3088 2344 
L 2541 2259 
Q 2463 2594 2264 2762 
Q 2066 2931 1784 2931 
Q 1359 2931 1093 2626 
Q 828 2322 828 1663 
Q 828 994 1084 691 
Q 1341 388 1753 388 
Q 2084 388 2306 591 
Q 2528 794 2588 1216 
z
" transform="scale(0.015625)"/>
       <path id="ArialMT-28" d="M 1497 -1347 
Q 1031 -759 709 28 
Q 388 816 388 1659 
Q 388 2403 628 3084 
Q 909 3875 1497 4659 
L 1900 4659 
Q 1522 4009 1400 3731 
Q 1209 3300 1100 2831 
Q 966 2247 966 1656 
Q 966 153 1900 -1347 
L 1497 -1347 
z
" transform="scale(0.015625)"/>
       <path id="ArialMT-4e" d="M 488 0 
L 488 4581 
L 1109 4581 
L 3516 984 
L 3516 4581 
L 4097 4581 
L 4097 0 
L 3475 0 
L 1069 3600 
L 1069 0 
L 488 0 
z
" transform="scale(0.015625)"/>
       <path id="ArialMT-59" d="M 1784 0 
L 1784 1941 
L 19 4581 
L 756 4581 
L 1659 3200 
Q 1909 2813 2125 2425 
Q 2331 2784 2625 3234 
L 3513 4581 
L 4219 4581 
L 2391 1941 
L 2391 0 
L 1784 0 
z
" transform="scale(0.015625)"/>
       <path id="ArialMT-29" d="M 791 -1347 
L 388 -1347 
Q 1322 153 1322 1656 
Q 1322 2244 1188 2822 
Q 1081 3291 891 3722 
Q 769 4003 388 4659 
L 791 4659 
Q 1378 3875 1659 3084 
Q 1900 2403 1900 1659 
Q 1900 816 1576 28 
Q 1253 -759 791 -1347 
z
" transform="scale(0.015625)"/>
      </defs>
      <use xlink:href="#ArialMT-43"/>
      <use xlink:href="#ArialMT-6c" transform="translate(72.216797 0)"/>
      <use xlink:href="#ArialMT-6f" transform="translate(94.433594 0)"/>
      <use xlink:href="#ArialMT-73" transform="translate(150.048828 0)"/>
      <use xlink:href="#ArialMT-65" transform="translate(200.048828 0)"/>
      <use xlink:href="#ArialMT-20" transform="translate(255.664062 0)"/>
      <use xlink:href="#ArialMT-50" transform="translate(283.447266 0)"/>
      <use xlink:href="#ArialMT-72" transform="translate(350.146484 0)"/>
      <use xlink:href="#ArialMT-69" transform="translate(383.447266 0)"/>
      <use xlink:href="#ArialMT-63" transform="translate(405.664062 0)"/>
      <use xlink:href="#ArialMT-65" transform="translate(455.664062 0)"/>
      <use xlink:href="#ArialMT-20" transform="translate(511.279297 0)"/>
      <use xlink:href="#ArialMT-28" transform="translate(539.0625 0)"/>
      <use xlink:href="#ArialMT-43" transform="translate(572.363281 0)"/>
      <use xlink:href="#ArialMT-4e" transform="translate(644.580078 0)"/>
      <use xlink:href="#ArialMT-59" transform="translate(716.796875 0)"/>
      <use xlink:href="#ArialMT-29" transform="translate(783.496094 0)"/>
     </g>
    </g>
   </g>
   <g id="line2d_39">
    <path d="M 86.49 378.048267 
L 100.086276 378.237518 
L 103.2854 378.298176 
L 105.684743 378.101646 
L 110.483428 378.169582 
L 113.682552 378.303028 
L 115.282114 378.067677 
L 128.078609 377.997315 
L 141.674885 378.02643 
L 142.474666 377.917247 
L 144.074228 377.997315 
L 144.874009 377.951215 
L 148.872913 377.990036 
L 150.472475 378.057972 
L 154.47138 377.873574 
L 156.070942 377.805637 
L 160.069847 377.711012 
L 167.267875 377.876 
L 169.667218 377.660059 
L 170.466999 377.723143 
L 175.265685 377.376183 
L 176.865246 377.490219 
L 181.663932 377.526613 
L 192.061084 377.262147 
L 193.660646 377.388314 
L 195.260208 377.368904 
L 200.858675 377.393167 
L 206.457141 377.573926 
L 221.652979 377.690388 
L 222.45276 377.777735 
L 228.051227 377.653994 
L 228.851008 377.673404 
L 231.25035 377.615173 
L 232.849912 377.751046 
L 234.449474 377.758325 
L 243.247065 377.826261 
L 245.646407 377.792293 
L 255.243779 377.772882 
L 256.843341 377.794719 
L 272.838959 377.928165 
L 273.63874 377.855376 
L 278.437426 378.003381 
L 279.237207 377.925739 
L 290.43414 378.204763 
L 298.43195 378.098006 
L 299.231731 377.969412 
L 300.031512 377.98397 
L 301.631073 377.736488 
L 304.030416 377.501137 
L 310.428664 377.455037 
L 311.228445 377.704946 
L 312.028226 377.644289 
L 312.828007 377.719504 
L 316.826911 377.835966 
L 318.426473 377.848098 
L 323.225159 377.780161 
L 324.02494 377.634583 
L 326.424283 377.549663 
L 327.224064 377.649141 
L 329.623406 377.598189 
L 340.82034 377.673404 
L 349.61793 377.765603 
L 351.217492 377.605468 
L 357.615739 377.484153 
L 361.614644 377.45989 
L 374.411139 377.566647 
L 388.007415 377.685536 
L 388.807196 377.54481 
L 391.206539 377.622452 
L 396.805005 377.712225 
L 399.204348 377.612747 
L 408.001939 377.641862 
L 413.600405 377.573926 
L 419.198872 377.704946 
L 423.197777 377.522974 
L 427.996462 377.595763 
L 430.395805 377.452611 
L 435.994272 377.472021 
L 445.591643 377.241523 
L 447.191205 377.273065 
L 451.98989 377.253655 
L 455.988795 377.404085 
L 463.986605 377.486579 
L 469.585071 377.498711 
L 483.181347 377.421069 
L 486.380471 377.399233 
L 494.37828 377.486579 
L 495.977842 377.539958 
L 497.577404 377.552089 
L 522.370613 377.530253 
L 523.970175 377.401659 
L 527.96908 377.37497 
L 528.768861 377.253655 
L 531.168204 377.343428 
L 535.167108 377.287623 
L 535.966889 377.200276 
L 536.76667 377.246376 
L 542.365137 377.183292 
L 546.364042 377.21726 
L 547.963604 377.299754 
L 558.360756 377.28277 
L 559.160537 377.08624 
L 563.159441 377.117782 
L 563.959222 377.142045 
L 564.759003 377.011025 
L 568.757908 377.030435 
L 569.557689 376.853316 
L 570.35747 376.508781 
L 572.756813 376.341367 
L 573.556594 376.637375 
L 575.955936 376.71259 
L 579.15506 376.567013 
L 579.954841 376.586423 
L 580.754622 376.394746 
L 581.554403 376.518487 
L 586.353089 376.588849 
L 587.15287 376.503929 
L 595.95046 376.089032 
L 606.347612 376.246741 
L 607.147393 376.41173 
L 608.746955 376.414156 
L 609.546736 376.550029 
L 618.344326 376.353498 
L 619.144107 376.237036 
L 619.943888 376.34622 
L 620.743669 376.275857 
L 624.742574 376.433566 
L 628.741479 376.355925 
L 630.341041 376.452977 
L 631.140821 376.244315 
L 631.940602 376.399598 
L 643.137536 376.637375 
L 646.336659 376.460256 
L 648.736002 376.448124 
L 652.734907 376.467534 
L 654.334469 376.56216 
L 659.932935 376.56216 
L 662.332278 376.457829 
L 663.93184 376.181231 
L 667.930745 376.351072 
L 669.530307 376.106016 
L 679.127678 375.931323 
L 680.72724 375.994406 
L 682.326802 375.698398 
L 685.525926 375.623183 
L 686.325706 375.295633 
L 687.125487 375.096677 
L 687.925268 375.217991 
L 691.124392 375.278649 
L 691.924173 374.965656 
L 692.723954 375.086971 
L 693.523735 375.069987 
L 695.923078 375.365996 
L 696.722859 375.234975 
L 697.52264 374.934115 
L 699.122202 374.919557 
L 701.521544 374.810373 
L 702.321325 374.596859 
L 703.920887 373.58752 
L 704.720668 374.012122 
L 713.518258 373.388563 
L 714.318039 373.553552 
L 715.11782 373.340037 
L 715.917601 373.694277 
L 718.316944 373.376432 
L 719.116725 373.837428 
L 719.916506 373.844707 
L 720.716287 373.609356 
L 721.516068 373.861691 
L 723.915411 373.946612 
L 724.715192 373.73795 
L 730.313658 374.451281 
L 731.113439 374.291146 
L 732.713001 374.759421 
L 735.112344 374.57017 
L 736.711906 374.118879 
L 737.511687 374.310556 
L 738.311468 374.191668 
L 740.710811 374.225636 
L 741.510591 374.356656 
L 742.310372 374.016974 
L 743.909934 373.958743 
L 747.109058 373.866544 
L 751.907744 372.464144 
L 752.707525 372.376797 
L 753.507306 372.7092 
L 754.307087 372.248204 
L 755.106867 372.126889 
L 757.50621 372.561196 
L 758.305991 372.551491 
L 759.105772 372.430176 
L 759.905553 372.122036 
L 760.705334 372.248204 
L 763.104677 372.141447 
L 764.704239 371.593103 
L 765.50402 371.884259 
L 770.302705 371.277685 
L 771.102486 371.052039 
L 774.30161 371.032629 
L 775.101391 371.078728 
L 775.901172 371.010792 
L 776.700953 371.127254 
L 777.500734 372.039542 
L 779.900077 371.971606 
L 780.699858 371.787207 
L 782.299419 371.636777 
L 783.0992 370.950135 
L 785.498543 370.690521 
L 786.298324 370.23923 
L 787.098105 370.617732 
L 787.897886 369.659345 
L 791.09701 370.911314 
L 791.896791 370.770589 
L 792.696572 371.010792 
L 793.496353 370.89433 
L 794.296134 371.24129 
L 796.695476 371.580972 
L 797.495257 370.71721 
L 798.295038 370.656553 
L 799.094819 370.244082 
L 799.8946 370.113062 
L 802.293943 369.103722 
L 803.093724 368.164745 
L 803.893505 366.961302 
L 804.693286 367.228195 
L 807.89241 366.044162 
L 808.692191 365.910715 
L 810.291752 363.030701 
L 811.091533 362.22517 
L 813.490876 362.987027 
L 814.290657 362.526031 
L 815.890219 363.753737 
L 816.69 363.006438 
L 816.69 363.006438 
" clip-path="url(#pb17f0d60a8)" style="fill: none; stroke: #1f77b4; stroke-width: 2; stroke-linecap: round"/>
   </g>
   <g id="line2d_40">
    <path d="M 86.49 361.464526 
L 87.289781 362.444265 
L 88.089562 362.617017 
L 88.889343 363.308997 
L 91.288686 363.523482 
L 92.088467 363.084079 
L 92.888248 363.314092 
L 93.688028 362.723289 
L 94.487809 363.216555 
L 96.887152 362.986542 
L 98.486714 363.485146 
L 99.286495 361.600641 
L 100.086276 361.396589 
L 102.485619 361.292016 
L 103.2854 360.873722 
L 104.085181 360.925888 
L 104.884962 360.115262 
L 105.684743 360.531857 
L 108.084085 362.648316 
L 108.883866 363.104945 
L 109.683647 362.826164 
L 110.483428 361.387855 
L 111.283209 361.597002 
L 113.682552 361.222381 
L 114.482333 358.977086 
L 115.282114 359.024156 
L 116.081895 358.607318 
L 124.879485 354.179568 
L 125.679266 352.941914 
L 126.479047 354.604898 
L 127.278828 353.811742 
L 128.078609 354.993591 
L 130.477952 354.766975 
L 131.277733 352.516584 
L 132.077514 354.631102 
L 133.677076 352.66289 
L 136.076418 351.868035 
L 136.876199 351.257821 
L 137.67598 351.585614 
L 138.475761 352.132987 
L 139.275542 350.241445 
L 141.674885 351.006942 
L 142.474666 352.009246 
L 143.274447 351.983042 
L 144.074228 351.193282 
L 144.874009 349.82849 
L 147.273352 349.36992 
L 148.073133 350.447195 
L 148.872913 351.29276 
L 149.672694 351.515979 
L 150.472475 351.515979 
L 152.871818 351.719788 
L 153.671599 353.116122 
L 154.47138 353.865848 
L 155.271161 353.780443 
L 156.070942 353.454348 
L 158.470285 352.331701 
L 159.270066 352.41007 
L 160.069847 353.534659 
L 164.068751 352.059713 
L 164.868532 352.000511 
L 165.668313 352.941914 
L 166.468094 352.828606 
L 167.267875 351.228221 
L 169.667218 351.19862 
L 170.466999 351.745992 
L 171.26678 350.307926 
L 172.066561 350.522168 
L 172.866342 350.989473 
L 175.265685 353.140628 
L 176.065465 353.288875 
L 176.865246 351.413104 
L 177.665027 352.131288 
L 178.464808 348.520958 
L 180.864151 348.025994 
L 181.663932 348.268138 
L 186.462618 348.806776 
L 187.262399 349.927725 
L 189.661742 350.902369 
L 192.061084 350.841226 
L 192.860865 351.908069 
L 193.660646 351.674417 
L 194.460427 351.024169 
L 195.260208 351.010339 
L 197.659551 349.915594 
L 198.459332 349.816116 
L 199.259113 350.558805 
L 200.058894 350.450835 
L 200.858675 351.915105 
L 203.258018 351.391996 
L 204.057798 352.678661 
L 204.857579 352.680359 
L 205.65736 352.859905 
L 206.457141 353.330607 
L 208.856484 351.399032 
L 209.656265 350.588406 
L 210.456046 351.641419 
L 211.255827 350.239262 
L 212.055608 351.673203 
L 216.054513 351.745992 
L 216.854294 350.656585 
L 217.654074 347.114191 
L 220.053417 346.09272 
L 220.853198 345.025149 
L 222.45276 345.561361 
L 223.252541 345.973831 
L 225.651884 346.650768 
L 226.451665 347.939132 
L 227.251446 346.701721 
L 228.051227 347.638271 
L 228.851008 347.216096 
L 231.25035 345.512835 
L 232.050131 345.340568 
L 232.849912 345.852517 
L 233.649693 345.971405 
L 234.449474 346.337776 
L 236.848817 345.636576 
L 237.648598 343.224837 
L 238.448379 342.448422 
L 239.24816 343.48445 
L 240.047941 344.246308 
L 242.447284 344.377328 
L 243.247065 344.731567 
L 244.046846 346.286824 
L 244.846627 346.701721 
L 245.646407 347.919722 
L 248.04575 348.011921 
L 248.845531 348.904798 
L 249.645312 349.045524 
L 250.445093 351.003545 
L 251.244874 350.523139 
L 253.644217 349.227496 
L 254.443998 349.695771 
L 255.243779 349.249333 
L 256.04356 349.152281 
L 256.843341 351.801797 
L 259.242683 353.951497 
L 260.042464 352.893631 
L 260.842245 353.175081 
L 261.642026 353.859297 
L 262.441807 353.366759 
L 264.84115 353.167803 
L 265.640931 352.296762 
L 267.240493 352.743201 
L 268.040274 351.56402 
L 270.439617 351.156402 
L 271.239398 351.144271 
L 272.039179 351.015677 
L 272.838959 351.21706 
L 273.63874 351.573725 
L 276.038083 352.927599 
L 277.637645 353.35948 
L 278.437426 354.795848 
L 279.237207 354.247505 
L 281.63655 355.404849 
L 282.436331 355.118545 
L 283.236112 355.945913 
L 284.035893 356.001718 
L 284.835674 356.547635 
L 287.235016 355.92165 
L 288.034797 354.8468 
L 288.834578 354.907458 
L 289.634359 354.465872 
L 290.43414 352.539392 
L 294.433045 353.09744 
L 295.232826 353.973333 
L 296.032607 354.223242 
L 298.43195 354.247505 
L 299.231731 351.030235 
L 300.031512 351.071482 
L 300.831292 349.205659 
L 301.631073 348.254551 
L 304.030416 343.096243 
L 310.428664 335.582001 
L 311.228445 340.296296 
L 312.828007 341.936473 
L 315.227349 341.363867 
L 316.02713 342.382912 
L 316.826911 344.590842 
L 317.626692 344.154108 
L 318.426473 339.908088 
L 320.825816 340.643256 
L 321.625597 339.422829 
L 322.425378 342.780824 
L 323.225159 342.552752 
L 324.02494 342.732298 
L 326.424283 344.144403 
L 327.224064 345.859795 
L 328.023844 346.398433 
L 328.823625 345.968979 
L 329.623406 346.524601 
L 332.022749 345.937437 
L 332.82253 344.69032 
L 333.622311 345.998094 
L 334.422092 345.469162 
L 335.221873 346.165509 
L 337.621216 345.512835 
L 338.420997 344.881998 
L 339.220778 342.746856 
L 340.82034 346.580406 
L 343.219682 348.640332 
L 344.819244 347.153012 
L 345.619025 348.206025 
L 346.418806 348.574822 
L 348.818149 350.341166 
L 350.417711 349.445863 
L 351.217492 350.392119 
L 354.416616 348.635479 
L 356.016177 349.608425 
L 356.815958 348.681579 
L 357.615739 348.761647 
L 360.814863 350.790031 
L 361.614644 350.309624 
L 362.414425 349.086771 
L 363.214206 349.831644 
L 365.613549 350.874952 
L 366.41333 350.100963 
L 367.213111 350.722095 
L 368.012892 349.846202 
L 368.812673 349.831644 
L 371.212015 348.499607 
L 372.011796 348.737384 
L 372.811577 347.917295 
L 373.611358 346.507617 
L 374.411139 347.466004 
L 376.810482 348.841715 
L 377.610263 350.702685 
L 379.209825 351.042366 
L 382.408949 350.222278 
L 383.208729 349.528357 
L 384.00851 350.530417 
L 384.808291 351.187944 
L 385.608072 353.221181 
L 388.007415 353.786508 
L 388.807196 352.925173 
L 389.606977 353.849592 
L 390.406758 351.678056 
L 391.206539 352.306467 
L 394.405663 351.661072 
L 395.205444 348.642758 
L 396.005225 349.673935 
L 396.805005 349.55262 
L 399.204348 352.811137 
L 406.402377 356.831511 
L 407.202158 356.16428 
L 408.001939 354.51925 
L 411.201062 353.616668 
L 412.000843 353.519616 
L 412.800624 354.436756 
L 413.600405 354.60417 
L 415.999748 352.631591 
L 416.799529 353.109571 
L 418.399091 352.903336 
L 419.198872 351.862455 
L 421.598215 352.888778 
L 422.397996 353.653062 
L 423.197777 353.441974 
L 423.997558 354.422198 
L 424.797338 356.195821 
L 427.196681 355.734825 
L 427.996462 355.81004 
L 428.796243 355.56741 
L 429.596024 355.152514 
L 430.395805 355.863419 
L 432.795148 355.829451 
L 433.594929 355.975028 
L 435.194491 355.802761 
L 435.994272 355.438817 
L 438.393614 355.373307 
L 439.193395 354.25721 
L 439.993176 355.198613 
L 440.792957 355.193761 
L 441.592738 355.812466 
L 443.992081 355.708136 
L 445.591643 356.144869 
L 447.191205 357.03532 
L 451.19011 356.46514 
L 451.98989 357.891803 
L 455.189014 362.448389 
L 455.988795 363.132605 
L 456.788576 363.202968 
L 457.588357 361.868504 
L 458.388138 361.65499 
L 460.787481 360.885854 
L 461.587262 361.218257 
L 462.387043 361.747189 
L 463.186824 361.839389 
L 463.986605 361.468165 
L 466.385947 360.970774 
L 467.185728 361.24252 
L 467.985509 360.405447 
L 468.78529 360.936806 
L 469.585071 359.980845 
L 472.784195 360.509778 
L 473.583976 360.412726 
L 478.382662 359.646016 
L 479.182442 359.646016 
L 479.982223 357.25854 
L 480.782004 357.668584 
L 483.181347 357.069288 
L 483.981128 357.273097 
L 484.780909 356.797543 
L 485.58069 357.833572 
L 486.380471 356.933416 
L 488.779814 357.552122 
L 489.579595 357.387133 
L 490.379376 357.442938 
L 491.179157 357.751078 
L 491.978938 358.379489 
L 494.37828 358.2606 
L 495.178061 358.794386 
L 496.777623 357.634616 
L 497.577404 357.971871 
L 500.776528 358.406178 
L 502.37609 355.708136 
L 503.175871 355.569837 
L 505.575214 354.332425 
L 506.374995 354.521676 
L 507.174775 354.470724 
L 507.974556 352.524834 
L 508.774337 352.367124 
L 511.17368 351.416016 
L 511.973461 351.709598 
L 512.773242 350.326609 
L 513.573023 349.419173 
L 514.372804 349.128018 
L 516.772147 349.712755 
L 517.571928 350.159194 
L 518.371709 350.042732 
L 519.17149 349.079492 
L 519.971271 346.968613 
L 522.370613 345.158596 
L 523.170394 345.294468 
L 523.970175 346.840019 
L 524.769956 346.032062 
L 525.569737 346.713852 
L 527.96908 347.75716 
L 528.768861 345.396373 
L 529.568642 345.294468 
L 530.368423 344.981476 
L 531.168204 345.299321 
L 533.567547 344.197782 
L 534.367327 338.134465 
L 535.167108 339.117116 
L 535.966889 337.639501 
L 536.76667 336.724786 
L 539.166013 334.946311 
L 539.965794 335.797941 
L 540.765575 335.375765 
L 541.565356 335.613542 
L 542.365137 335.60869 
L 544.76448 333.995202 
L 545.564261 329.613309 
L 546.364042 329.450748 
L 547.163823 327.749913 
L 547.963604 329.443469 
L 550.362946 329.97968 
L 551.162727 329.373106 
L 551.962508 329.470158 
L 552.762289 329.969975 
L 553.56207 329.766166 
L 555.961413 328.443834 
L 556.761194 325.791891 
L 557.560975 319.405877 
L 558.360756 322.446028 
L 559.160537 322.790562 
L 561.55988 317.464839 
L 562.35966 313.704079 
L 563.159441 315.574754 
L 563.959222 316.198312 
L 567.158346 302.907056 
L 567.958127 304.362835 
L 568.757908 301.669645 
L 569.557689 293.437218 
L 570.35747 294.434426 
L 572.756813 282.016637 
L 573.556594 287.378754 
L 574.356375 277.142206 
L 575.156156 290.984232 
L 575.955936 281.798271 
L 579.15506 293.374135 
L 579.954841 287.136125 
L 580.754622 273.798769 
L 581.554403 278.136988 
L 583.953746 281.550788 
L 584.753527 280.725847 
L 585.553308 281.992375 
L 586.353089 281.215959 
L 587.15287 278.28014 
L 589.552212 279.129344 
L 590.351993 275.176906 
L 591.151774 277.79488 
L 591.951555 275.10169 
L 592.751336 280.172652 
L 595.150679 279.432631 
L 595.95046 282.603801 
L 603.148488 283.785408 
L 603.948269 285.922976 
L 606.347612 288.982537 
L 607.147393 296.477369 
L 607.947174 294.531478 
L 608.746955 291.413686 
L 609.546736 289.805051 
L 611.946079 282.671738 
L 612.74586 273.330494 
L 613.545641 272.65113 
L 614.345422 273.480924 
L 615.145203 260.592433 
L 617.544545 256.967545 
L 618.344326 255.982469 
L 619.144107 254.109367 
L 619.943888 255.560293 
L 620.743669 265.685231 
L 623.143012 263.989249 
L 623.942793 264.523035 
L 624.742574 264.714712 
L 625.542355 259.89366 
L 626.342136 261.550821 
L 628.741479 261.562952 
L 629.54126 266.888675 
L 630.341041 261.13835 
L 631.140821 263.74662 
L 631.940602 268.157628 
L 634.339945 263.212834 
L 635.139726 265.709494 
L 635.939507 261.902634 
L 636.739288 261.077693 
L 637.539069 267.868899 
L 639.938412 269.618259 
L 640.738193 264.071743 
L 641.537974 248.650199 
L 642.337755 253.313542 
L 643.137536 255.618524 
L 645.536878 249.916726 
L 646.336659 248.946207 
L 647.13644 253.379052 
L 647.936221 250.5233 
L 648.736002 250.147224 
L 651.135345 242.152575 
L 651.935126 233.417905 
L 652.734907 230.991608 
L 653.534688 238.073969 
L 654.334469 239.241018 
L 656.733812 241.943913 
L 657.533593 246.570862 
L 658.333373 237.304833 
L 659.133154 241.861419 
L 659.932935 241.740104 
L 662.332278 230.627663 
L 663.132059 229.778459 
L 663.93184 226.527221 
L 664.731621 225.21702 
L 665.531402 228.322681 
L 667.930745 230.506348 
L 668.730526 227.109532 
L 669.530307 232.447386 
L 673.529211 229.169458 
L 674.328992 233.599877 
L 675.128773 230.118141 
L 675.928554 235.977648 
L 676.728335 238.949862 
L 679.127678 236.822 
L 679.927459 238.32873 
L 680.72724 236.572091 
L 681.527021 228.803088 
L 682.326802 230.748978 
L 684.726145 233.53922 
L 685.525926 238.513129 
L 686.325706 239.265281 
L 687.125487 229.778459 
L 687.925268 238.513129 
L 690.324611 237.348506 
L 691.124392 231.088659 
L 691.924173 228.080051 
L 692.723954 231.513262 
L 693.523735 222.984827 
L 695.923078 237.057351 
L 696.722859 237.372769 
L 697.52264 244.578872 
L 698.322421 244.096039 
L 699.122202 249.42904 
L 701.521544 243.12552 
L 702.321325 245.619753 
L 703.121106 251.394341 
L 703.920887 252.474043 
L 704.720668 251.615134 
L 713.518258 246.03465 
L 714.318039 243.106109 
L 715.11782 241.613937 
L 715.917601 250.887245 
L 718.316944 242.011849 
L 719.116725 243.656879 
L 719.916506 249.674096 
L 720.716287 245.306761 
L 721.516068 248.101855 
L 723.915411 252.830709 
L 724.715192 247.733058 
L 725.514973 245.869662 
L 726.314754 250.693141 
L 727.114535 248.941354 
L 729.513877 244.166401 
L 730.313658 248.703577 
L 731.113439 239.726277 
L 731.91322 240.8909 
L 732.713001 231.962126 
L 735.112344 234.965882 
L 735.912125 234.099694 
L 736.711906 227.982999 
L 738.311468 235.358943 
L 740.710811 237.5232 
L 741.510591 242.295726 
L 742.310372 234.419966 
L 743.110153 239.241018 
L 743.909934 233.291737 
L 747.109058 230.135125 
L 747.908839 213.4883 
L 748.70862 212.304267 
L 749.508401 202.203591 
L 751.907744 201.390782 
L 752.707525 192.898742 
L 753.507306 191.205186 
L 754.307087 184.016068 
L 755.106867 173.973624 
L 757.50621 174.216253 
L 758.305991 170.610776 
L 759.105772 165.331153 
L 759.905553 162.812657 
L 763.104677 172.510566 
L 763.904458 180.281996 
L 764.704239 175.186772 
L 765.50402 172.153901 
L 770.302705 172.517845 
L 771.102486 167.308585 
L 771.902267 165.238954 
L 774.30161 152.105407 
L 775.101391 133.214257 
L 776.700953 118.654048 
L 777.500734 125.479222 
L 779.900077 126.660829 
L 780.699858 130.300274 
L 781.499639 128.601866 
L 782.299419 139.19508 
L 783.0992 128.364089 
L 785.498543 115.014602 
L 786.298324 112.588305 
L 787.098105 110.557494 
L 787.897886 89.540908 
L 788.697667 98.47696 
L 791.09701 106.037302 
L 791.896791 91.040359 
L 792.696572 70.855993 
L 793.496353 69.642845 
L 794.296134 93.908243 
L 796.695476 99.973986 
L 797.495257 93.905816 
L 798.295038 101.912597 
L 799.094819 107.493081 
L 799.8946 101.427338 
L 802.293943 78.134885 
L 803.093724 77.385159 
L 803.893505 70.586674 
L 804.693286 48.320545 
L 807.89241 44.814545 
L 808.692191 62.361527 
L 809.491972 61.83502 
L 810.291752 59.112715 
L 811.091533 75.977907 
L 813.490876 84.200628 
L 814.290657 72.069142 
L 815.090438 83.431492 
L 815.890219 102.883116 
L 816.69 109.434118 
L 816.69 109.434118 
" clip-path="url(#pb17f0d60a8)" style="fill: none; stroke: #ff7f0e; stroke-width: 2; stroke-linecap: round"/>
   </g>
   <g id="patch_3">
    <path d="M 49.98 394.98 
L 49.98 28.14 
" style="fill: none; stroke: #cccccc; stroke-linejoin: miter; stroke-linecap: square"/>
   </g>
   <g id="patch_4">
    <path d="M 853.2 394.98 
L 853.2 28.14 
" style="fill: none; stroke: #cccccc; stroke-linejoin: miter; stroke-linecap: square"/>
   </g>
   <g id="patch_5">
    <path d="M 49.98 394.98 
L 853.2 394.98 
" style="fill: none; stroke: #cccccc; stroke-linejoin: miter; stroke-linecap: square"/>
   </g>
   <g id="patch_6">
    <path d="M 49.98 28.14 
L 853.2 28.14 
" style="fill: none; stroke: #cccccc; stroke-linejoin: miter; stroke-linecap: square"/>
   </g>
   <g id="text_22">
    <!-- Close Price Comparison -->
    <g style="fill: #262626" transform="translate(365.34 22.14) scale(0.16 -0.16)">
     <defs>
      <path id="ArialMT-6d" d="M 422 0 
L 422 3319 
L 925 3319 
L 925 2853 
Q 1081 3097 1340 3245 
Q 1600 3394 1931 3394 
Q 2300 3394 2536 3241 
Q 2772 3088 2869 2813 
Q 3263 3394 3894 3394 
Q 4388 3394 4653 3120 
Q 4919 2847 4919 2278 
L 4919 0 
L 4359 0 
L 4359 2091 
Q 4359 2428 4304 2576 
Q 4250 2725 4106 2815 
Q 3963 2906 3769 2906 
Q 3419 2906 3187 2673 
Q 2956 2441 2956 1928 
L 2956 0 
L 2394 0 
L 2394 2156 
Q 2394 2531 2256 2718 
Q 2119 2906 1806 2906 
Q 1569 2906 1367 2781 
Q 1166 2656 1075 2415 
Q 984 2175 984 1722 
L 984 0 
L 422 0 
z
" transform="scale(0.015625)"/>
      <path id="ArialMT-70" d="M 422 -1272 
L 422 3319 
L 934 3319 
L 934 2888 
Q 1116 3141 1344 3267 
Q 1572 3394 1897 3394 
Q 2322 3394 2647 3175 
Q 2972 2956 3137 2557 
Q 3303 2159 3303 1684 
Q 3303 1175 3120 767 
Q 2938 359 2589 142 
Q 2241 -75 1856 -75 
Q 1575 -75 1351 44 
Q 1128 163 984 344 
L 984 -1272 
L 422 -1272 
z
M 931 1641 
Q 931 1000 1190 694 
Q 1450 388 1819 388 
Q 2194 388 2461 705 
Q 2728 1022 2728 1688 
Q 2728 2322 2467 2637 
Q 2206 2953 1844 2953 
Q 1484 2953 1207 2617 
Q 931 2281 931 1641 
z
" transform="scale(0.015625)"/>
      <path id="ArialMT-6e" d="M 422 0 
L 422 3319 
L 928 3319 
L 928 2847 
Q 1294 3394 1984 3394 
Q 2284 3394 2536 3286 
Q 2788 3178 2913 3003 
Q 3038 2828 3088 2588 
Q 3119 2431 3119 2041 
L 3119 0 
L 2556 0 
L 2556 2019 
Q 2556 2363 2490 2533 
Q 2425 2703 2258 2804 
Q 2091 2906 1866 2906 
Q 1506 2906 1245 2678 
Q 984 2450 984 1813 
L 984 0 
L 422 0 
z
" transform="scale(0.015625)"/>
     </defs>
     <use xlink:href="#ArialMT-43"/>
     <use xlink:href="#ArialMT-6c" transform="translate(72.216797 0)"/>
     <use xlink:href="#ArialMT-6f" transform="translate(94.433594 0)"/>
     <use xlink:href="#ArialMT-73" transform="translate(150.048828 0)"/>
     <use xlink:href="#ArialMT-65" transform="translate(200.048828 0)"/>
     <use xlink:href="#ArialMT-20" transform="translate(255.664062 0)"/>
     <use xlink:href="#ArialMT-50" transform="translate(283.447266 0)"/>
     <use xlink:href="#ArialMT-72" transform="translate(350.146484 0)"/>
     <use xlink:href="#ArialMT-69" transform="translate(383.447266 0)"/>
     <use xlink:href="#ArialMT-63" transform="translate(405.664062 0)"/>
     <use xlink:href="#ArialMT-65" transform="translate(455.664062 0)"/>
     <use xlink:href="#ArialMT-20" transform="translate(511.279297 0)"/>
     <use xlink:href="#ArialMT-43" transform="translate(539.0625 0)"/>
     <use xlink:href="#ArialMT-6f" transform="translate(611.279297 0)"/>
     <use xlink:href="#ArialMT-6d" transform="translate(666.894531 0)"/>
     <use xlink:href="#ArialMT-70" transform="translate(750.195312 0)"/>
     <use xlink:href="#ArialMT-61" transform="translate(805.810547 0)"/>
     <use xlink:href="#ArialMT-72" transform="translate(861.425781 0)"/>
     <use xlink:href="#ArialMT-69" transform="translate(894.726562 0)"/>
     <use xlink:href="#ArialMT-73" transform="translate(916.943359 0)"/>
     <use xlink:href="#ArialMT-6f" transform="translate(966.943359 0)"/>
     <use xlink:href="#ArialMT-6e" transform="translate(1022.558594 0)"/>
    </g>
   </g>
   <g id="legend_1">
    <g id="line2d_41">
     <path d="M 58.98 40.797812 
L 68.98 40.797812 
L 78.98 40.797812 
" style="fill: none; stroke: #1f77b4; stroke-width: 2; stroke-linecap: round"/>
    </g>
    <g id="text_23">
     <!-- China Jushi -->
     <g style="fill: #262626" transform="translate(86.98 44.297812) scale(0.1 -0.1)">
      <defs>
       <path id="ArialMT-68" d="M 422 0 
L 422 4581 
L 984 4581 
L 984 2938 
Q 1378 3394 1978 3394 
Q 2347 3394 2619 3248 
Q 2891 3103 3008 2847 
Q 3125 2591 3125 2103 
L 3125 0 
L 2563 0 
L 2563 2103 
Q 2563 2525 2380 2717 
Q 2197 2909 1863 2909 
Q 1613 2909 1392 2779 
Q 1172 2650 1078 2428 
Q 984 2206 984 1816 
L 984 0 
L 422 0 
z
" transform="scale(0.015625)"/>
       <path id="ArialMT-4a" d="M 184 1300 
L 731 1375 
Q 753 850 928 656 
Q 1103 463 1413 463 
Q 1641 463 1806 567 
Q 1972 672 2034 851 
Q 2097 1031 2097 1425 
L 2097 4581 
L 2703 4581 
L 2703 1459 
Q 2703 884 2564 568 
Q 2425 253 2123 87 
Q 1822 -78 1416 -78 
Q 813 -78 492 269 
Q 172 616 184 1300 
z
" transform="scale(0.015625)"/>
       <path id="ArialMT-75" d="M 2597 0 
L 2597 488 
Q 2209 -75 1544 -75 
Q 1250 -75 995 37 
Q 741 150 617 320 
Q 494 491 444 738 
Q 409 903 409 1263 
L 409 3319 
L 972 3319 
L 972 1478 
Q 972 1038 1006 884 
Q 1059 663 1231 536 
Q 1403 409 1656 409 
Q 1909 409 2131 539 
Q 2353 669 2445 892 
Q 2538 1116 2538 1541 
L 2538 3319 
L 3100 3319 
L 3100 0 
L 2597 0 
z
" transform="scale(0.015625)"/>
      </defs>
      <use xlink:href="#ArialMT-43"/>
      <use xlink:href="#ArialMT-68" transform="translate(72.216797 0)"/>
      <use xlink:href="#ArialMT-69" transform="translate(127.832031 0)"/>
      <use xlink:href="#ArialMT-6e" transform="translate(150.048828 0)"/>
      <use xlink:href="#ArialMT-61" transform="translate(205.664062 0)"/>
      <use xlink:href="#ArialMT-20" transform="translate(261.279297 0)"/>
      <use xlink:href="#ArialMT-4a" transform="translate(289.0625 0)"/>
      <use xlink:href="#ArialMT-75" transform="translate(339.0625 0)"/>
      <use xlink:href="#ArialMT-73" transform="translate(394.677734 0)"/>
      <use xlink:href="#ArialMT-68" transform="translate(444.677734 0)"/>
      <use xlink:href="#ArialMT-69" transform="translate(500.292969 0)"/>
     </g>
    </g>
    <g id="line2d_42">
     <path d="M 58.98 54.943125 
L 68.98 54.943125 
L 78.98 54.943125 
" style="fill: none; stroke: #ff7f0e; stroke-width: 2; stroke-linecap: round"/>
    </g>
    <g id="text_24">
     <!-- Zhongji Xuchuang -->
     <g style="fill: #262626" transform="translate(86.98 58.443125) scale(0.1 -0.1)">
      <defs>
       <path id="ArialMT-5a" d="M 128 0 
L 128 563 
L 2475 3497 
Q 2725 3809 2950 4041 
L 394 4041 
L 394 4581 
L 3675 4581 
L 3675 4041 
L 1103 863 
L 825 541 
L 3750 541 
L 3750 0 
L 128 0 
z
" transform="scale(0.015625)"/>
       <path id="ArialMT-67" d="M 319 -275 
L 866 -356 
Q 900 -609 1056 -725 
Q 1266 -881 1628 -881 
Q 2019 -881 2231 -725 
Q 2444 -569 2519 -288 
Q 2563 -116 2559 434 
Q 2191 0 1641 0 
Q 956 0 581 494 
Q 206 988 206 1678 
Q 206 2153 378 2554 
Q 550 2956 876 3175 
Q 1203 3394 1644 3394 
Q 2231 3394 2613 2919 
L 2613 3319 
L 3131 3319 
L 3131 450 
Q 3131 -325 2973 -648 
Q 2816 -972 2473 -1159 
Q 2131 -1347 1631 -1347 
Q 1038 -1347 672 -1080 
Q 306 -813 319 -275 
z
M 784 1719 
Q 784 1066 1043 766 
Q 1303 466 1694 466 
Q 2081 466 2343 764 
Q 2606 1063 2606 1700 
Q 2606 2309 2336 2618 
Q 2066 2928 1684 2928 
Q 1309 2928 1046 2623 
Q 784 2319 784 1719 
z
" transform="scale(0.015625)"/>
       <path id="ArialMT-6a" d="M 419 3928 
L 419 4581 
L 981 4581 
L 981 3928 
L 419 3928 
z
M -294 -1288 
L -188 -809 
Q -19 -853 78 -853 
Q 250 -853 334 -739 
Q 419 -625 419 -169 
L 419 3319 
L 981 3319 
L 981 -181 
Q 981 -794 822 -1034 
Q 619 -1347 147 -1347 
Q -81 -1347 -294 -1288 
z
" transform="scale(0.015625)"/>
       <path id="ArialMT-58" d="M 28 0 
L 1800 2388 
L 238 4581 
L 959 4581 
L 1791 3406 
Q 2050 3041 2159 2844 
Q 2313 3094 2522 3366 
L 3444 4581 
L 4103 4581 
L 2494 2422 
L 4228 0 
L 3478 0 
L 2325 1634 
Q 2228 1775 2125 1941 
Q 1972 1691 1906 1597 
L 756 0 
L 28 0 
z
" transform="scale(0.015625)"/>
      </defs>
      <use xlink:href="#ArialMT-5a"/>
      <use xlink:href="#ArialMT-68" transform="translate(61.083984 0)"/>
      <use xlink:href="#ArialMT-6f" transform="translate(116.699219 0)"/>
      <use xlink:href="#ArialMT-6e" transform="translate(172.314453 0)"/>
      <use xlink:href="#ArialMT-67" transform="translate(227.929688 0)"/>
      <use xlink:href="#ArialMT-6a" transform="translate(283.544922 0)"/>
      <use xlink:href="#ArialMT-69" transform="translate(305.761719 0)"/>
      <use xlink:href="#ArialMT-20" transform="translate(327.978516 0)"/>
      <use xlink:href="#ArialMT-58" transform="translate(355.761719 0)"/>
      <use xlink:href="#ArialMT-75" transform="translate(422.460938 0)"/>
      <use xlink:href="#ArialMT-63" transform="translate(478.076172 0)"/>
      <use xlink:href="#ArialMT-68" transform="translate(528.076172 0)"/>
      <use xlink:href="#ArialMT-75" transform="translate(583.691406 0)"/>
      <use xlink:href="#ArialMT-61" transform="translate(639.306641 0)"/>
      <use xlink:href="#ArialMT-6e" transform="translate(694.921875 0)"/>
      <use xlink:href="#ArialMT-67" transform="translate(750.537109 0)"/>
     </g>
    </g>
   </g>
  </g>
 </g>
 <defs>
  <clipPath id="pb17f0d60a8">
   <rect x="49.98" y="28.14" width="803.22" height="366.84"/>
  </clipPath>
 </defs>
</svg>
