<?xml version="1.0" encoding="utf-8" standalone="no"?>
<!DOCTYPE svg PUBLIC "-//W3C//DTD SVG 1.1//EN"
  "http://www.w3.org/Graphics/SVG/1.1/DTD/svg11.dtd">
<svg xmlns:xlink="http://www.w3.org/1999/xlink" width="864pt" height="648pt" viewBox="0 0 864 648" xmlns="http://www.w3.org/2000/svg" version="1.1">
 <metadata>
  <rdf:RDF xmlns:dc="http://purl.org/dc/elements/1.1/" xmlns:cc="http://creativecommons.org/ns#" xmlns:rdf="http://www.w3.org/1999/02/22-rdf-syntax-ns#">
   <cc:Work>
    <dc:type rdf:resource="http://purl.org/dc/dcmitype/StillImage"/>
    <dc:date>2026-07-04T20:17:27.209148</dc:date>
    <dc:format>image/svg+xml</dc:format>
    <dc:creator>
     <cc:Agent>
      <dc:title>Matplotlib v3.10.6, https://matplotlib.org/</dc:title>
     </cc:Agent>
    </dc:creator>
   </cc:Work>
  </rdf:RDF>
 </metadata>
 <defs>
  <style type="text/css">*{stroke-linejoin: round; stroke-linecap: butt}</style>
 </defs>
 <g id="figure_1">
  <g id="patch_1">
   <path d="M 0 648 
L 864 648 
L 864 0 
L 0 0 
z
" style="fill: #ffffff"/>
  </g>
  <g id="axes_1">
   <g id="patch_2">
    <path d="M 49.98 314.16 
L 853.2 314.16 
L 853.2 28.14 
L 49.98 28.14 
z
" style="fill: #ffffff"/>
   </g>
   <g id="matplotlib.axis_1">
    <g id="xtick_1">
     <g id="line2d_1">
      <path d="M 85.690219 314.16 
L 85.690219 28.14 
" clip-path="url(#pa436b37764)" style="fill: none; stroke: #cccccc; stroke-width: 0.8; stroke-linecap: round"/>
     </g>
     <g id="line2d_2"/>
    </g>
    <g id="xtick_2">
     <g id="line2d_3">
      <path d="M 158.470285 314.16 
L 158.470285 28.14 
" clip-path="url(#pa436b37764)" style="fill: none; stroke: #cccccc; stroke-width: 0.8; stroke-linecap: round"/>
     </g>
     <g id="line2d_4"/>
    </g>
    <g id="xtick_3">
     <g id="line2d_5">
      <path d="M 231.25035 314.16 
L 231.25035 28.14 
" clip-path="url(#pa436b37764)" style="fill: none; stroke: #cccccc; stroke-width: 0.8; stroke-linecap: round"/>
     </g>
     <g id="line2d_6"/>
    </g>
    <g id="xtick_4">
     <g id="line2d_7">
      <path d="M 304.830197 314.16 
L 304.830197 28.14 
" clip-path="url(#pa436b37764)" style="fill: none; stroke: #cccccc; stroke-width: 0.8; stroke-linecap: round"/>
     </g>
     <g id="line2d_8"/>
    </g>
    <g id="xtick_5">
     <g id="line2d_9">
      <path d="M 378.410044 314.16 
L 378.410044 28.14 
" clip-path="url(#pa436b37764)" style="fill: none; stroke: #cccccc; stroke-width: 0.8; stroke-linecap: round"/>
     </g>
     <g id="line2d_10"/>
    </g>
    <g id="xtick_6">
     <g id="line2d_11">
      <path d="M 450.390329 314.16 
L 450.390329 28.14 
" clip-path="url(#pa436b37764)" style="fill: none; stroke: #cccccc; stroke-width: 0.8; stroke-linecap: round"/>
     </g>
     <g id="line2d_12"/>
    </g>
    <g id="xtick_7">
     <g id="line2d_13">
      <path d="M 523.170394 314.16 
L 523.170394 28.14 
" clip-path="url(#pa436b37764)" style="fill: none; stroke: #cccccc; stroke-width: 0.8; stroke-linecap: round"/>
     </g>
     <g id="line2d_14"/>
    </g>
    <g id="xtick_8">
     <g id="line2d_15">
      <path d="M 596.750241 314.16 
L 596.750241 28.14 
" clip-path="url(#pa436b37764)" style="fill: none; stroke: #cccccc; stroke-width: 0.8; stroke-linecap: round"/>
     </g>
     <g id="line2d_16"/>
    </g>
    <g id="xtick_9">
     <g id="line2d_17">
      <path d="M 670.330088 314.16 
L 670.330088 28.14 
" clip-path="url(#pa436b37764)" style="fill: none; stroke: #cccccc; stroke-width: 0.8; stroke-linecap: round"/>
     </g>
     <g id="line2d_18"/>
    </g>
    <g id="xtick_10">
     <g id="line2d_19">
      <path d="M 742.310372 314.16 
L 742.310372 28.14 
" clip-path="url(#pa436b37764)" style="fill: none; stroke: #cccccc; stroke-width: 0.8; stroke-linecap: round"/>
     </g>
     <g id="line2d_20"/>
    </g>
    <g id="xtick_11">
     <g id="line2d_21">
      <path d="M 815.090438 314.16 
L 815.090438 28.14 
" clip-path="url(#pa436b37764)" style="fill: none; stroke: #cccccc; stroke-width: 0.8; stroke-linecap: round"/>
     </g>
     <g id="line2d_22"/>
    </g>
   </g>
   <g id="matplotlib.axis_2">
    <g id="ytick_1">
     <g id="line2d_23">
      <path d="M 49.98 292.704331 
L 853.2 292.704331 
" clip-path="url(#pa436b37764)" style="fill: none; stroke: #cccccc; stroke-width: 0.8; stroke-linecap: round"/>
     </g>
     <g id="line2d_24"/>
     <g id="text_1">
      <!-- 10 -->
      <g style="fill: #262626" transform="translate(35.358125 296.283238) scale(0.1 -0.1)">
       <defs>
        <path id="ArialMT-31" d="M 2384 0 
L 1822 0 
L 1822 3584 
Q 1619 3391 1289 3197 
Q 959 3003 697 2906 
L 697 3450 
Q 1169 3672 1522 3987 
Q 1875 4303 2022 4600 
L 2384 4600 
L 2384 0 
z
" transform="scale(0.015625)"/>
        <path id="ArialMT-30" d="M 266 2259 
Q 266 3072 433 3567 
Q 600 4063 929 4331 
Q 1259 4600 1759 4600 
Q 2128 4600 2406 4451 
Q 2684 4303 2865 4023 
Q 3047 3744 3150 3342 
Q 3253 2941 3253 2259 
Q 3253 1453 3087 958 
Q 2922 463 2592 192 
Q 2263 -78 1759 -78 
Q 1097 -78 719 397 
Q 266 969 266 2259 
z
M 844 2259 
Q 844 1131 1108 757 
Q 1372 384 1759 384 
Q 2147 384 2411 759 
Q 2675 1134 2675 2259 
Q 2675 3391 2411 3762 
Q 2147 4134 1753 4134 
Q 1366 4134 1134 3806 
Q 844 3388 844 2259 
z
" transform="scale(0.015625)"/>
       </defs>
       <use xlink:href="#ArialMT-31"/>
       <use xlink:href="#ArialMT-30" transform="translate(55.615234 0)"/>
      </g>
     </g>
    </g>
    <g id="ytick_2">
     <g id="line2d_25">
      <path d="M 49.98 253.471109 
L 853.2 253.471109 
" clip-path="url(#pa436b37764)" style="fill: none; stroke: #cccccc; stroke-width: 0.8; stroke-linecap: round"/>
     </g>
     <g id="line2d_26"/>
     <g id="text_2">
      <!-- 20 -->
      <g style="fill: #262626" transform="translate(35.358125 257.050015) scale(0.1 -0.1)">
       <defs>
        <path id="ArialMT-32" d="M 3222 541 
L 3222 0 
L 194 0 
Q 188 203 259 391 
Q 375 700 629 1000 
Q 884 1300 1366 1694 
Q 2113 2306 2375 2664 
Q 2638 3022 2638 3341 
Q 2638 3675 2398 3904 
Q 2159 4134 1775 4134 
Q 1369 4134 1125 3890 
Q 881 3647 878 3216 
L 300 3275 
Q 359 3922 746 4261 
Q 1134 4600 1788 4600 
Q 2447 4600 2831 4234 
Q 3216 3869 3216 3328 
Q 3216 3053 3103 2787 
Q 2991 2522 2730 2228 
Q 2469 1934 1863 1422 
Q 1356 997 1212 845 
Q 1069 694 975 541 
L 3222 541 
z
" transform="scale(0.015625)"/>
       </defs>
       <use xlink:href="#ArialMT-32"/>
       <use xlink:href="#ArialMT-30" transform="translate(55.615234 0)"/>
      </g>
     </g>
    </g>
    <g id="ytick_3">
     <g id="line2d_27">
      <path d="M 49.98 214.237887 
L 853.2 214.237887 
" clip-path="url(#pa436b37764)" style="fill: none; stroke: #cccccc; stroke-width: 0.8; stroke-linecap: round"/>
     </g>
     <g id="line2d_28"/>
     <g id="text_3">
      <!-- 30 -->
      <g style="fill: #262626" transform="translate(35.358125 217.816793) scale(0.1 -0.1)">
       <defs>
        <path id="ArialMT-33" d="M 269 1209 
L 831 1284 
Q 928 806 1161 595 
Q 1394 384 1728 384 
Q 2125 384 2398 659 
Q 2672 934 2672 1341 
Q 2672 1728 2419 1979 
Q 2166 2231 1775 2231 
Q 1616 2231 1378 2169 
L 1441 2663 
Q 1497 2656 1531 2656 
Q 1891 2656 2178 2843 
Q 2466 3031 2466 3422 
Q 2466 3731 2256 3934 
Q 2047 4138 1716 4138 
Q 1388 4138 1169 3931 
Q 950 3725 888 3313 
L 325 3413 
Q 428 3978 793 4289 
Q 1159 4600 1703 4600 
Q 2078 4600 2393 4439 
Q 2709 4278 2876 4000 
Q 3044 3722 3044 3409 
Q 3044 3113 2884 2869 
Q 2725 2625 2413 2481 
Q 2819 2388 3044 2092 
Q 3269 1797 3269 1353 
Q 3269 753 2831 336 
Q 2394 -81 1725 -81 
Q 1122 -81 723 278 
Q 325 638 269 1209 
z
" transform="scale(0.015625)"/>
       </defs>
       <use xlink:href="#ArialMT-33"/>
       <use xlink:href="#ArialMT-30" transform="translate(55.615234 0)"/>
      </g>
     </g>
    </g>
    <g id="ytick_4">
     <g id="line2d_29">
      <path d="M 49.98 175.004664 
L 853.2 175.004664 
" clip-path="url(#pa436b37764)" style="fill: none; stroke: #cccccc; stroke-width: 0.8; stroke-linecap: round"/>
     </g>
     <g id="line2d_30"/>
     <g id="text_4">
      <!-- 40 -->
      <g style="fill: #262626" transform="translate(35.358125 178.58357) scale(0.1 -0.1)">
       <defs>
        <path id="ArialMT-34" d="M 2069 0 
L 2069 1097 
L 81 1097 
L 81 1613 
L 2172 4581 
L 2631 4581 
L 2631 1613 
L 3250 1613 
L 3250 1097 
L 2631 1097 
L 2631 0 
L 2069 0 
z
M 2069 1613 
L 2069 3678 
L 634 1613 
L 2069 1613 
z
" transform="scale(0.015625)"/>
       </defs>
       <use xlink:href="#ArialMT-34"/>
       <use xlink:href="#ArialMT-30" transform="translate(55.615234 0)"/>
      </g>
     </g>
    </g>
    <g id="ytick_5">
     <g id="line2d_31">
      <path d="M 49.98 135.771442 
L 853.2 135.771442 
" clip-path="url(#pa436b37764)" style="fill: none; stroke: #cccccc; stroke-width: 0.8; stroke-linecap: round"/>
     </g>
     <g id="line2d_32"/>
     <g id="text_5">
      <!-- 50 -->
      <g style="fill: #262626" transform="translate(35.358125 139.350348) scale(0.1 -0.1)">
       <defs>
        <path id="ArialMT-35" d="M 266 1200 
L 856 1250 
Q 922 819 1161 601 
Q 1400 384 1738 384 
Q 2144 384 2425 690 
Q 2706 997 2706 1503 
Q 2706 1984 2436 2262 
Q 2166 2541 1728 2541 
Q 1456 2541 1237 2417 
Q 1019 2294 894 2097 
L 366 2166 
L 809 4519 
L 3088 4519 
L 3088 3981 
L 1259 3981 
L 1013 2750 
Q 1425 3038 1878 3038 
Q 2478 3038 2890 2622 
Q 3303 2206 3303 1553 
Q 3303 931 2941 478 
Q 2500 -78 1738 -78 
Q 1113 -78 717 272 
Q 322 622 266 1200 
z
" transform="scale(0.015625)"/>
       </defs>
       <use xlink:href="#ArialMT-35"/>
       <use xlink:href="#ArialMT-30" transform="translate(55.615234 0)"/>
      </g>
     </g>
    </g>
    <g id="ytick_6">
     <g id="line2d_33">
      <path d="M 49.98 96.538219 
L 853.2 96.538219 
" clip-path="url(#pa436b37764)" style="fill: none; stroke: #cccccc; stroke-width: 0.8; stroke-linecap: round"/>
     </g>
     <g id="line2d_34"/>
     <g id="text_6">
      <!-- 60 -->
      <g style="fill: #262626" transform="translate(35.358125 100.117125) scale(0.1 -0.1)">
       <defs>
        <path id="ArialMT-36" d="M 3184 3459 
L 2625 3416 
Q 2550 3747 2413 3897 
Q 2184 4138 1850 4138 
Q 1581 4138 1378 3988 
Q 1113 3794 959 3422 
Q 806 3050 800 2363 
Q 1003 2672 1297 2822 
Q 1591 2972 1913 2972 
Q 2475 2972 2870 2558 
Q 3266 2144 3266 1488 
Q 3266 1056 3080 686 
Q 2894 316 2569 119 
Q 2244 -78 1831 -78 
Q 1128 -78 684 439 
Q 241 956 241 2144 
Q 241 3472 731 4075 
Q 1159 4600 1884 4600 
Q 2425 4600 2770 4297 
Q 3116 3994 3184 3459 
z
M 888 1484 
Q 888 1194 1011 928 
Q 1134 663 1356 523 
Q 1578 384 1822 384 
Q 2178 384 2434 671 
Q 2691 959 2691 1453 
Q 2691 1928 2437 2201 
Q 2184 2475 1800 2475 
Q 1419 2475 1153 2201 
Q 888 1928 888 1484 
z
" transform="scale(0.015625)"/>
       </defs>
       <use xlink:href="#ArialMT-36"/>
       <use xlink:href="#ArialMT-30" transform="translate(55.615234 0)"/>
      </g>
     </g>
    </g>
    <g id="ytick_7">
     <g id="line2d_35">
      <path d="M 49.98 57.304997 
L 853.2 57.304997 
" clip-path="url(#pa436b37764)" style="fill: none; stroke: #cccccc; stroke-width: 0.8; stroke-linecap: round"/>
     </g>
     <g id="line2d_36"/>
     <g id="text_7">
      <!-- 70 -->
      <g style="fill: #262626" transform="translate(35.358125 60.883903) scale(0.1 -0.1)">
       <defs>
        <path id="ArialMT-37" d="M 303 3981 
L 303 4522 
L 3269 4522 
L 3269 4084 
Q 2831 3619 2401 2847 
Q 1972 2075 1738 1259 
Q 1569 684 1522 0 
L 944 0 
Q 953 541 1156 1306 
Q 1359 2072 1739 2783 
Q 2119 3494 2547 3981 
L 303 3981 
z
" transform="scale(0.015625)"/>
       </defs>
       <use xlink:href="#ArialMT-37"/>
       <use xlink:href="#ArialMT-30" transform="translate(55.615234 0)"/>
      </g>
     </g>
    </g>
    <g id="text_8">
     <!-- Price -->
     <g style="fill: #262626" transform="translate(29.370625 182.541406) rotate(-90) scale(0.1 -0.1)">
      <defs>
       <path id="ArialMT-50" d="M 494 0 
L 494 4581 
L 2222 4581 
Q 2678 4581 2919 4538 
Q 3256 4481 3484 4323 
Q 3713 4166 3852 3881 
Q 3991 3597 3991 3256 
Q 3991 2672 3619 2267 
Q 3247 1863 2275 1863 
L 1100 1863 
L 1100 0 
L 494 0 
z
M 1100 2403 
L 2284 2403 
Q 2872 2403 3119 2622 
Q 3366 2841 3366 3238 
Q 3366 3525 3220 3729 
Q 3075 3934 2838 4000 
Q 2684 4041 2272 4041 
L 1100 4041 
L 1100 2403 
z
" transform="scale(0.015625)"/>
       <path id="ArialMT-72" d="M 416 0 
L 416 3319 
L 922 3319 
L 922 2816 
Q 1116 3169 1280 3281 
Q 1444 3394 1641 3394 
Q 1925 3394 2219 3213 
L 2025 2691 
Q 1819 2813 1613 2813 
Q 1428 2813 1281 2702 
Q 1134 2591 1072 2394 
Q 978 2094 978 1738 
L 978 0 
L 416 0 
z
" transform="scale(0.015625)"/>
       <path id="ArialMT-69" d="M 425 3934 
L 425 4581 
L 988 4581 
L 988 3934 
L 425 3934 
z
M 425 0 
L 425 3319 
L 988 3319 
L 988 0 
L 425 0 
z
" transform="scale(0.015625)"/>
       <path id="ArialMT-63" d="M 2588 1216 
L 3141 1144 
Q 3050 572 2676 248 
Q 2303 -75 1759 -75 
Q 1078 -75 664 370 
Q 250 816 250 1647 
Q 250 2184 428 2587 
Q 606 2991 970 3192 
Q 1334 3394 1763 3394 
Q 2303 3394 2647 3120 
Q 2991 2847 3088 2344 
L 2541 2259 
Q 2463 2594 2264 2762 
Q 2066 2931 1784 2931 
Q 1359 2931 1093 2626 
Q 828 2322 828 1663 
Q 828 994 1084 691 
Q 1341 388 1753 388 
Q 2084 388 2306 591 
Q 2528 794 2588 1216 
z
" transform="scale(0.015625)"/>
       <path id="ArialMT-65" d="M 2694 1069 
L 3275 997 
Q 3138 488 2766 206 
Q 2394 -75 1816 -75 
Q 1088 -75 661 373 
Q 234 822 234 1631 
Q 234 2469 665 2931 
Q 1097 3394 1784 3394 
Q 2450 3394 2872 2941 
Q 3294 2488 3294 1666 
Q 3294 1616 3291 1516 
L 816 1516 
Q 847 969 1125 678 
Q 1403 388 1819 388 
Q 2128 388 2347 550 
Q 2566 713 2694 1069 
z
M 847 1978 
L 2700 1978 
Q 2663 2397 2488 2606 
Q 2219 2931 1791 2931 
Q 1403 2931 1139 2672 
Q 875 2413 847 1978 
z
" transform="scale(0.015625)"/>
      </defs>
      <use xlink:href="#ArialMT-50"/>
      <use xlink:href="#ArialMT-72" transform="translate(66.699219 0)"/>
      <use xlink:href="#ArialMT-69" transform="translate(100 0)"/>
      <use xlink:href="#ArialMT-63" transform="translate(122.216797 0)"/>
      <use xlink:href="#ArialMT-65" transform="translate(172.216797 0)"/>
     </g>
    </g>
   </g>
   <g id="line2d_37">
    <path d="M 86.49 297.000369 
L 87.289781 297.118069 
L 88.089562 297.785034 
L 88.889343 298.255832 
L 91.288686 298.883564 
L 92.088467 298.687398 
L 92.888248 298.765864 
L 93.688028 298.491232 
L 94.487809 298.451999 
L 96.887152 298.451999 
L 97.686933 298.765864 
L 98.486714 300.217494 
L 99.286495 300.060561 
L 100.086276 300.060561 
L 102.485619 301.159091 
L 103.2854 301.041391 
L 104.085181 299.942861 
L 104.884962 297.941967 
L 108.084085 297.706567 
L 108.883866 299.354363 
L 109.683647 299.354363 
L 110.483428 298.96203 
L 111.283209 299.942861 
L 113.682552 301.119858 
L 114.482333 298.569698 
L 115.282114 297.314235 
L 116.081895 297.157302 
L 125.679266 296.608037 
L 127.278828 296.137238 
L 128.078609 296.176472 
L 130.477952 296.529571 
L 131.277733 296.372638 
L 132.077514 296.686504 
L 132.877295 296.058772 
L 133.677076 296.058772 
L 136.076418 296.215705 
L 136.876199 296.529571 
L 137.67598 296.529571 
L 138.475761 296.686504 
L 139.275542 297.039603 
L 141.674885 296.64727 
L 142.474666 294.881775 
L 143.274447 295.66644 
L 144.074228 296.176472 
L 144.874009 295.43104 
L 147.273352 295.117175 
L 148.073133 295.744906 
L 148.872913 296.058772 
L 149.672694 296.76497 
L 150.472475 297.157302 
L 152.871818 294.685609 
L 153.671599 292.880881 
L 154.47138 294.175577 
L 155.271161 294.293277 
L 156.070942 293.077047 
L 158.470285 291.429252 
L 159.270066 291.703884 
L 160.069847 291.546951 
L 164.068751 293.155514 
L 164.868532 292.527782 
L 165.668313 293.194747 
L 166.468094 293.312446 
L 167.267875 294.214811 
L 169.667218 290.723054 
L 170.466999 291.743118 
L 171.26678 290.80152 
L 172.066561 288.918326 
L 172.866342 288.094428 
L 175.265685 286.132767 
L 176.065465 287.662862 
L 178.464808 288.60446 
L 180.864151 288.212127 
L 181.663932 288.565227 
L 186.462618 286.446632 
L 187.262399 285.034236 
L 188.06218 286.2897 
L 188.861961 285.740434 
L 189.661742 284.092639 
L 192.061084 284.288805 
L 192.860865 285.701201 
L 193.660646 286.328933 
L 194.460427 285.622735 
L 195.260208 286.015067 
L 197.659551 285.661968 
L 198.459332 286.2897 
L 200.058894 285.505035 
L 200.858675 286.407399 
L 204.057798 288.36906 
L 204.857579 287.760945 
L 205.65736 288.388677 
L 206.457141 289.330274 
L 208.856484 289.408741 
L 209.656265 288.937942 
L 211.255827 288.898709 
L 212.055608 288.702543 
L 215.254732 289.134108 
L 216.054513 288.859476 
L 216.854294 290.821137 
L 217.654074 290.624971 
L 220.053417 291.174236 
L 220.853198 290.781904 
L 221.652979 291.213469 
L 222.45276 292.625865 
L 223.252541 292.115833 
L 225.651884 292.311999 
L 226.451665 291.488102 
L 227.251446 290.389571 
L 228.851008 290.938836 
L 231.25035 289.997239 
L 232.050131 291.762734 
L 232.849912 292.1943 
L 233.649693 292.782798 
L 234.449474 292.311999 
L 236.848817 292.978964 
L 237.648598 294.705226 
L 238.448379 294.234427 
L 239.24816 292.978964 
L 240.047941 293.096664 
L 243.247065 293.410529 
L 244.046846 292.861264 
L 244.846627 293.018197 
L 245.646407 292.861264 
L 248.04575 293.135897 
L 248.845531 294.312894 
L 249.645312 294.626759 
L 250.445093 293.135897 
L 251.244874 292.115833 
L 253.644217 293.724395 
L 254.443998 293.881328 
L 255.243779 292.547399 
L 256.04356 292.037367 
L 256.843341 292.900498 
L 259.242683 293.449763 
L 260.042464 293.410529 
L 260.842245 293.528229 
L 261.642026 293.488996 
L 262.441807 294.312894 
L 265.640931 294.234427 
L 266.440712 294.901392 
L 267.240493 294.155961 
L 268.040274 294.822925 
L 270.439617 294.352127 
L 271.239398 294.940625 
L 272.039179 294.587526 
L 272.838959 295.058325 
L 273.63874 293.881328 
L 276.038083 295.215258 
L 276.837864 296.196088 
L 277.637645 296.470721 
L 278.437426 296.274555 
L 279.237207 295.019092 
L 282.436331 296.470721 
L 283.236112 297.530018 
L 284.035893 297.294618 
L 284.835674 298.236216 
L 287.235016 298.353916 
L 288.034797 298.589315 
L 288.834578 298.589315 
L 289.634359 298.353916 
L 290.43414 299.530912 
L 294.433045 299.177813 
L 295.232826 297.686951 
L 296.032607 297.883117 
L 298.43195 297.80465 
L 299.231731 295.72529 
L 300.031512 295.960689 
L 300.831292 293.763628 
L 301.631073 291.9589 
L 304.030416 288.153278 
L 310.428664 287.407846 
L 311.228445 291.448868 
L 312.028226 290.468038 
L 312.828007 291.684268 
L 315.227349 291.919667 
L 316.02713 293.214363 
L 316.826911 293.567462 
L 317.626692 294.352127 
L 318.426473 293.763628 
L 320.825816 293.332063 
L 321.625597 292.782798 
L 322.425378 292.037367 
L 323.225159 292.665098 
L 324.02494 290.311105 
L 326.424283 288.937942 
L 327.224064 290.546504 
L 328.023844 289.722607 
L 328.823625 289.958006 
L 329.623406 289.722607 
L 332.82253 289.52644 
L 333.622311 289.291041 
L 334.422092 287.878645 
L 335.221873 288.624076 
L 338.420997 289.565674 
L 339.220778 289.173341 
L 340.82034 290.938836 
L 343.219682 291.566568 
L 344.019463 291.252702 
L 345.619025 291.880434 
L 346.418806 293.214363 
L 348.818149 291.684268 
L 349.61793 292.429699 
L 350.417711 290.86037 
L 351.217492 289.840306 
L 352.017273 289.76184 
L 354.416616 288.741776 
L 355.216396 288.624076 
L 356.016177 289.212575 
L 356.815958 289.055642 
L 357.615739 287.878645 
L 360.015082 286.623182 
L 361.614644 287.486313 
L 362.414425 287.486313 
L 363.214206 288.388677 
L 365.613549 288.467143 
L 366.41333 288.741776 
L 367.213111 288.624076 
L 368.812673 289.173341 
L 371.212015 288.898709 
L 372.011796 288.584843 
L 372.811577 288.781009 
L 373.611358 289.134108 
L 374.411139 289.212575 
L 376.810482 289.64414 
L 377.610263 289.604907 
L 379.209825 291.291935 
L 380.009606 291.762734 
L 382.408949 291.017303 
L 384.00851 290.821137 
L 384.808291 291.213469 
L 385.608072 290.664204 
L 388.007415 291.135003 
L 388.807196 288.859476 
L 389.606977 288.898709 
L 390.406758 289.76184 
L 391.206539 290.114939 
L 393.605882 291.488102 
L 394.405663 290.899603 
L 395.205444 291.645034 
L 396.005225 291.919667 
L 396.805005 291.566568 
L 399.204348 289.958006 
L 406.402377 291.684268 
L 407.202158 290.938836 
L 408.001939 290.428805 
L 410.401281 289.840306 
L 411.201062 289.173341 
L 412.000843 288.977175 
L 412.800624 289.487207 
L 413.600405 289.330274 
L 415.999748 290.938836 
L 416.799529 291.252702 
L 417.59931 291.213469 
L 419.198872 291.448868 
L 421.598215 288.820242 
L 422.397996 289.369508 
L 423.197777 288.506377 
L 423.997558 288.898709 
L 424.797338 289.64414 
L 427.196681 289.487207 
L 427.996462 289.683373 
L 428.796243 288.898709 
L 429.596024 289.016409 
L 430.395805 287.368613 
L 432.795148 287.604013 
L 433.594929 287.368613 
L 434.39471 287.525546 
L 435.194491 287.957112 
L 435.994272 287.682479 
L 439.193395 285.838518 
L 439.993176 285.720818 
L 440.792957 283.955323 
L 441.592738 284.426122 
L 444.791862 283.445291 
L 445.591643 283.955323 
L 446.391424 284.661521 
L 447.191205 284.465355 
L 450.390329 283.484524 
L 451.98989 284.151489 
L 455.189014 287.32938 
L 455.988795 286.583949 
L 456.788576 286.780115 
L 457.588357 286.819348 
L 458.388138 287.604013 
L 460.787481 287.133214 
L 461.587262 288.349444 
L 462.387043 288.467143 
L 463.186824 288.114044 
L 466.385947 287.290147 
L 467.185728 287.486313 
L 467.985509 287.21168 
L 468.78529 287.957112 
L 469.585071 288.114044 
L 471.984414 288.153278 
L 472.784195 288.035578 
L 473.583976 288.270977 
L 478.382662 287.093981 
L 479.182442 287.093981 
L 479.982223 287.21168 
L 480.782004 287.564779 
L 483.181347 286.858581 
L 483.981128 286.387783 
L 484.780909 286.309316 
L 486.380471 286.505482 
L 488.779814 286.583949 
L 489.579595 286.819348 
L 490.379376 286.662415 
L 491.179157 286.937048 
L 491.978938 287.604013 
L 494.37828 287.917878 
L 495.178061 288.898709 
L 495.977842 288.781009 
L 496.777623 288.506377 
L 497.577404 288.977175 
L 500.776528 288.937942 
L 501.576309 288.42791 
L 502.37609 288.781009 
L 503.175871 288.781009 
L 505.575214 289.251808 
L 506.374995 290.036472 
L 507.174775 289.330274 
L 511.973461 289.840306 
L 513.573023 290.154172 
L 514.372804 289.683373 
L 517.571928 289.52644 
L 518.371709 289.016409 
L 519.17149 289.330274 
L 519.971271 289.330274 
L 522.370613 288.624076 
L 523.170394 286.740882 
L 523.970175 286.544716 
L 524.769956 286.583949 
L 525.569737 285.916984 
L 527.96908 286.11315 
L 528.768861 284.151489 
L 529.568642 285.210786 
L 530.368423 285.053853 
L 531.168204 285.603118 
L 534.367327 285.250019 
L 535.167108 284.700754 
L 535.966889 283.288358 
L 536.76667 284.033789 
L 539.965794 282.856793 
L 540.765575 283.406058 
L 541.565356 282.150595 
L 542.365137 283.013726 
L 544.76448 282.856793 
L 545.564261 283.602224 
L 546.364042 283.562991 
L 547.163823 284.739987 
L 547.963604 284.89692 
L 550.362946 285.093086 
L 551.162727 284.739987 
L 551.962508 284.779221 
L 553.56207 285.093086 
L 555.961413 284.975387 
L 556.761194 285.13232 
L 557.560975 284.465355 
L 558.360756 284.622288 
L 559.160537 281.444397 
L 561.55988 280.895132 
L 562.35966 282.385994 
L 563.159441 281.954429 
L 563.959222 282.346761 
L 564.759003 280.228167 
L 567.158346 280.071234 
L 567.958127 279.325803 
L 568.757908 280.542033 
L 569.557689 277.678007 
L 570.35747 272.10689 
L 572.756813 269.399797 
L 573.556594 274.18625 
L 574.356375 275.127848 
L 575.156156 276.657943 
L 575.955936 275.40248 
L 578.355279 272.303056 
L 579.15506 273.048487 
L 579.954841 273.362353 
L 580.754622 270.262928 
L 581.554403 272.263823 
L 583.953746 273.08772 
L 584.753527 273.754685 
L 585.553308 273.715452 
L 586.353089 273.401586 
L 587.15287 272.028423 
L 589.552212 269.988296 
L 590.351993 270.341395 
L 591.151774 269.870596 
L 591.951555 266.339606 
L 592.751336 267.438136 
L 595.150679 266.496539 
L 595.95046 265.319542 
L 603.148488 266.614239 
L 603.948269 265.711874 
L 606.347612 267.869702 
L 607.147393 270.537561 
L 607.947174 270.184462 
L 608.746955 270.576794 
L 609.546736 272.773854 
L 611.946079 272.381522 
L 612.74586 270.498328 
L 613.545641 271.87149 
L 614.345422 272.538455 
L 615.145203 270.812193 
L 617.544545 269.713663 
L 618.344326 269.595963 
L 619.144107 267.712769 
L 619.943888 269.478264 
L 620.743669 268.3405 
L 623.942793 271.047593 
L 624.742574 270.89066 
L 625.542355 270.302161 
L 626.342136 269.125165 
L 628.741479 269.635197 
L 630.341041 271.204526 
L 631.140821 267.830468 
L 631.940602 270.341395 
L 634.339945 271.400692 
L 635.139726 271.361458 
L 635.939507 272.067656 
L 636.739288 271.949957 
L 637.539069 274.539349 
L 639.938412 274.147017 
L 640.738193 273.126953 
L 641.537974 273.048487 
L 642.337755 274.18625 
L 643.137536 274.18625 
L 645.536878 270.929893 
L 647.936221 272.185356 
L 648.736002 271.126059 
L 651.135345 270.89066 
L 652.734907 271.439925 
L 653.534688 272.695388 
L 654.334469 272.970021 
L 656.733812 273.048487 
L 657.533593 273.754685 
L 658.333373 272.656155 
L 659.133154 273.20542 
L 659.932935 272.970021 
L 662.332278 271.282992 
L 663.132059 268.654366 
L 663.93184 266.810405 
L 664.731621 267.595069 
L 665.531402 267.595069 
L 667.930745 269.55673 
L 669.530307 265.594175 
L 673.529211 264.024846 
L 674.328992 263.985613 
L 675.128773 263.82868 
L 675.928554 263.82868 
L 676.728335 263.200948 
L 679.127678 262.769383 
L 679.927459 263.397114 
L 680.72724 263.789447 
L 681.527021 260.768488 
L 682.326802 259.002993 
L 684.726145 257.904463 
L 685.525926 257.786763 
L 686.325706 252.490278 
L 687.125487 249.273154 
L 687.925268 251.234815 
L 690.324611 251.705614 
L 691.124392 252.215646 
L 691.924173 247.15456 
L 692.723954 249.116221 
L 693.523735 248.841589 
L 695.923078 253.628042 
L 696.722859 251.509448 
L 697.52264 246.644528 
L 698.322421 247.311493 
L 699.122202 246.409129 
L 701.521544 244.643634 
L 702.321325 241.19111 
L 703.121106 232.04977 
L 703.920887 224.87009 
L 704.720668 231.735904 
L 713.518258 221.652966 
L 714.318039 224.320825 
L 715.11782 220.868301 
L 715.917601 226.596352 
L 718.316944 221.456799 
L 719.116725 228.911112 
L 719.916506 229.028811 
L 720.716287 225.223189 
L 721.516068 229.303444 
L 723.915411 230.676607 
L 724.715192 227.30255 
L 725.514973 228.714946 
L 726.314754 228.714946 
L 727.114535 230.284275 
L 729.513877 235.737692 
L 730.313658 238.837117 
L 731.113439 236.247724 
L 731.91322 240.681078 
L 732.713001 243.819736 
L 735.112344 240.759545 
L 735.912125 237.934753 
L 736.711906 233.462166 
L 737.511687 236.56159 
L 738.311468 234.639162 
L 740.710811 235.188427 
L 741.510591 237.307021 
L 742.310372 231.81437 
L 743.110153 232.128236 
L 743.909934 230.872773 
L 747.109058 229.38191 
L 747.908839 225.380122 
L 748.70862 222.829962 
L 749.508401 218.161209 
L 751.907744 206.705108 
L 752.707525 205.292712 
L 753.507306 210.667663 
L 754.307087 203.213351 
L 755.106867 201.25169 
L 757.50621 208.274437 
L 758.305991 208.117504 
L 759.105772 206.155843 
L 759.905553 201.173223 
L 760.705334 203.213351 
L 763.104677 201.487089 
L 764.704239 192.620381 
L 765.50402 197.328368 
L 770.302705 187.520062 
L 771.102486 183.871372 
L 771.902267 183.59674 
L 774.30161 183.557507 
L 775.101391 184.302938 
L 775.901172 183.204408 
L 776.700953 185.087602 
L 777.500734 199.839294 
L 779.900077 198.740764 
L 780.699858 195.759039 
L 781.499639 194.935141 
L 782.299419 193.326579 
L 783.0992 182.223577 
L 785.498543 178.025622 
L 786.298324 170.728243 
L 787.098105 176.848626 
L 787.897886 161.351503 
L 788.697667 166.765687 
L 791.09701 181.595845 
L 791.896791 179.320319 
L 792.696572 183.204408 
L 793.496353 181.321213 
L 794.296134 186.931564 
L 796.695476 192.424215 
L 797.495257 178.457188 
L 798.295038 177.476357 
L 799.094819 170.806709 
L 799.8946 168.688115 
L 802.293943 152.367095 
L 803.093724 137.183838 
L 803.893505 117.724159 
L 804.693286 122.039814 
L 807.89241 102.894001 
L 808.692191 100.736174 
L 810.291752 54.166339 
L 811.091533 41.140909 
L 813.490876 53.460141 
L 814.290657 46.005829 
L 815.890219 65.857839 
L 816.69 53.774007 
L 816.69 53.774007 
" clip-path="url(#pa436b37764)" style="fill: none; stroke: #1f77b4; stroke-width: 1.5; stroke-linecap: round"/>
   </g>
   <g id="line2d_38">
    <path d="M 108.084085 298.832561 
L 111.283209 299.205276 
L 114.482333 299.311206 
L 116.081895 299.171928 
L 125.679266 298.993417 
L 127.278828 298.669743 
L 128.078609 298.475538 
L 130.477952 298.298989 
L 132.877295 297.647717 
L 133.677076 297.553558 
L 136.876199 297.412318 
L 139.275542 297.041564 
L 141.674885 296.876785 
L 142.474666 296.564881 
L 144.074228 296.362829 
L 144.874009 296.276516 
L 149.672694 296.168625 
L 150.472475 296.217667 
L 152.871818 296.125468 
L 154.47138 295.825334 
L 158.470285 295.348651 
L 160.069847 294.858235 
L 164.068751 294.681686 
L 165.668313 294.283469 
L 169.667218 293.85975 
L 171.26678 293.459571 
L 172.866342 292.720025 
L 175.265685 292.188415 
L 176.065465 291.713693 
L 177.665027 291.152658 
L 178.464808 290.874102 
L 180.864151 290.570044 
L 181.663932 290.344453 
L 186.462618 290.095322 
L 189.661742 288.706466 
L 192.061084 288.261169 
L 194.460427 287.231297 
L 195.260208 286.944894 
L 200.858675 286.350511 
L 206.457141 286.34953 
L 208.856484 286.497636 
L 212.055608 287.21168 
L 216.054513 287.611859 
L 217.654074 288.086581 
L 220.053417 288.34454 
L 222.45276 289.185111 
L 223.252541 289.515651 
L 227.251446 290.093361 
L 228.851008 290.36407 
L 232.050131 290.515118 
L 234.449474 291.042804 
L 236.848817 291.256626 
L 238.448379 291.803929 
L 240.047941 292.035405 
L 243.247065 292.270804 
L 245.646407 292.410082 
L 248.04575 292.451277 
L 251.244874 292.988772 
L 256.04356 293.261443 
L 259.242683 293.314408 
L 260.842245 293.214363 
L 266.440712 293.496843 
L 271.239398 293.744012 
L 272.838959 293.838172 
L 273.63874 293.926446 
L 276.837864 294.116727 
L 279.237207 294.630683 
L 282.436331 294.921009 
L 284.835674 295.507545 
L 287.235016 295.709596 
L 290.43414 296.557034 
L 295.232826 296.935635 
L 296.032607 297.100414 
L 300.031512 297.3672 
L 301.631073 297.019986 
L 304.030416 296.613922 
L 310.428664 296.23336 
L 312.028226 295.695865 
L 312.828007 295.403577 
L 315.227349 295.13483 
L 318.426473 294.191271 
L 320.825816 293.940178 
L 324.02494 292.616057 
L 327.224064 291.913782 
L 328.023844 291.601878 
L 329.623406 291.299782 
L 333.622311 291.370402 
L 335.221873 291.087923 
L 337.621216 290.960415 
L 340.82034 290.19929 
L 345.619025 289.969776 
L 346.418806 290.114939 
L 352.017273 290.39938 
L 360.015082 290.191444 
L 363.214206 289.72653 
L 366.41333 289.446012 
L 368.812673 288.94775 
L 371.212015 288.808472 
L 372.811577 288.512262 
L 374.411139 288.449488 
L 379.209825 288.647616 
L 380.009606 288.782971 
L 382.408949 288.939904 
L 385.608072 289.689258 
L 395.205444 290.342491 
L 396.805005 290.621047 
L 408.001939 290.783865 
L 411.201062 290.595546 
L 413.600405 290.338568 
L 416.799529 290.358185 
L 419.198872 290.683821 
L 422.397996 290.513156 
L 424.797338 290.142402 
L 428.796243 289.885424 
L 430.395805 289.636293 
L 434.39471 289.361661 
L 438.393614 288.973252 
L 440.792957 288.057156 
L 441.592738 287.706019 
L 443.992081 287.451003 
L 445.591643 286.927239 
L 447.191205 286.456441 
L 449.590548 286.166115 
L 451.19011 285.60508 
L 451.98989 285.361834 
L 456.788576 285.279444 
L 460.787481 285.199016 
L 463.186824 285.550153 
L 463.986605 285.748281 
L 466.385947 285.891482 
L 469.585071 286.640837 
L 471.984414 286.825233 
L 473.583976 287.2823 
L 478.382662 287.443156 
L 479.182442 287.590281 
L 485.58069 287.515738 
L 486.380471 287.42354 
L 491.978938 287.190102 
L 500.776528 287.403923 
L 507.174775 288.023808 
L 508.774337 288.329827 
L 511.973461 288.65154 
L 514.372804 289.122338 
L 522.370613 289.353814 
L 525.569737 288.896747 
L 527.96908 288.739814 
L 529.568642 288.239591 
L 531.168204 287.829604 
L 533.567547 287.613821 
L 535.167108 287.119482 
L 536.76667 286.493712 
L 539.166013 286.173962 
L 542.365137 284.88515 
L 545.564261 284.439853 
L 547.163823 284.198569 
L 550.362946 284.096562 
L 552.762289 284.098524 
L 557.560975 284.035751 
L 558.360756 284.102447 
L 559.160537 283.972978 
L 567.158346 283.498256 
L 569.557689 282.780288 
L 570.35747 282.140786 
L 572.756813 281.356122 
L 574.356375 280.345866 
L 575.955936 279.447426 
L 578.355279 278.813809 
L 581.554403 276.477471 
L 583.953746 276.0871 
L 587.15287 274.38634 
L 589.552212 273.882193 
L 591.151774 272.899401 
L 591.951555 272.332481 
L 592.751336 272.099043 
L 595.150679 271.95388 
L 595.95046 271.510545 
L 603.148488 271.084864 
L 603.948269 270.537561 
L 608.746955 269.790168 
L 609.546736 269.915714 
L 611.946079 269.921599 
L 615.145203 269.50965 
L 620.743669 269.323293 
L 623.143012 269.470417 
L 626.342136 270.331586 
L 630.341041 270.466941 
L 631.940602 270.208002 
L 636.739288 270.1825 
L 637.539069 270.368858 
L 640.738193 270.767075 
L 643.137536 271.561548 
L 647.13644 271.645899 
L 648.736002 271.840104 
L 652.734907 271.951918 
L 654.334469 272.326596 
L 658.333373 272.558072 
L 659.133154 272.620845 
L 663.132059 272.175548 
L 665.531402 271.204526 
L 667.930745 271.135867 
L 668.730526 270.947548 
L 669.530307 270.639567 
L 673.529211 270.231542 
L 676.728335 268.740679 
L 679.127678 268.244379 
L 680.72724 267.302782 
L 682.326802 265.970814 
L 684.726145 265.205766 
L 685.525926 264.446603 
L 687.925268 261.759127 
L 690.324611 260.964655 
L 691.124392 260.195683 
L 691.924173 259.075575 
L 693.523735 257.315965 
L 695.923078 256.796125 
L 696.722859 256.172316 
L 699.122202 253.647659 
L 701.521544 252.741371 
L 702.321325 251.631071 
L 704.720668 246.885813 
L 713.518258 245.073238 
L 715.11782 241.818842 
L 715.917601 240.685002 
L 718.316944 239.196101 
L 721.516068 234.809827 
L 723.915411 233.901578 
L 725.514973 231.445578 
L 727.114535 229.697738 
L 730.313658 228.87384 
L 731.113439 228.626671 
L 731.91322 229.058236 
L 732.713001 230.005719 
L 735.112344 230.456901 
L 735.912125 231.27099 
L 736.711906 231.728057 
L 737.511687 232.512722 
L 738.311468 232.914862 
L 740.710811 233.601444 
L 741.510591 234.021239 
L 742.310372 234.160517 
L 743.110153 234.505769 
L 743.909934 234.584236 
L 747.908839 234.42338 
L 748.70862 234.12913 
L 749.508401 233.601444 
L 751.907744 232.422485 
L 754.307087 227.840045 
L 755.106867 225.868575 
L 757.50621 224.09131 
L 760.705334 217.588404 
L 763.104677 215.9308 
L 763.904458 214.037797 
L 764.704239 211.803465 
L 765.50402 210.079165 
L 770.302705 207.848756 
L 771.902267 203.209428 
L 774.30161 201.118297 
L 775.901172 197.444106 
L 776.700953 196.36323 
L 777.500734 196.09056 
L 779.900077 195.494215 
L 781.499639 194.805671 
L 782.299419 194.058279 
L 783.0992 192.763582 
L 785.498543 191.357071 
L 787.098105 188.516586 
L 787.897886 186.509807 
L 788.697667 184.981673 
L 791.09701 184.430446 
L 791.896791 183.530043 
L 793.496353 183.186753 
L 796.695476 183.796829 
L 798.295038 183.218139 
L 799.094819 182.504095 
L 799.8946 180.946536 
L 802.293943 178.627852 
L 803.093724 175.699092 
L 804.693286 168.274205 
L 807.89241 164.307726 
L 808.692191 160.443254 
L 809.491972 155.788232 
L 811.091533 143.643588 
L 813.490876 137.97831 
L 815.090438 125.045079 
L 816.69 112.80039 
L 816.69 112.80039 
" clip-path="url(#pa436b37764)" style="fill: none; stroke: #ff7f0e; stroke-width: 2; stroke-linecap: round"/>
   </g>
   <g id="patch_3">
    <path d="M 49.98 314.16 
L 49.98 28.14 
" style="fill: none; stroke: #cccccc; stroke-linejoin: miter; stroke-linecap: square"/>
   </g>
   <g id="patch_4">
    <path d="M 853.2 314.16 
L 853.2 28.14 
" style="fill: none; stroke: #cccccc; stroke-linejoin: miter; stroke-linecap: square"/>
   </g>
   <g id="patch_5">
    <path d="M 49.98 314.16 
L 853.2 314.16 
" style="fill: none; stroke: #cccccc; stroke-linejoin: miter; stroke-linecap: square"/>
   </g>
   <g id="patch_6">
    <path d="M 49.98 28.14 
L 853.2 28.14 
" style="fill: none; stroke: #cccccc; stroke-linejoin: miter; stroke-linecap: square"/>
   </g>
   <g id="text_9">
    <!-- Close Price and 20-Day Moving Average -->
    <g style="fill: #262626" transform="translate(307.6625 22.14) scale(0.16 -0.16)">
     <defs>
      <path id="ArialMT-43" d="M 3763 1606 
L 4369 1453 
Q 4178 706 3683 314 
Q 3188 -78 2472 -78 
Q 1731 -78 1267 223 
Q 803 525 561 1097 
Q 319 1669 319 2325 
Q 319 3041 592 3573 
Q 866 4106 1370 4382 
Q 1875 4659 2481 4659 
Q 3169 4659 3637 4309 
Q 4106 3959 4291 3325 
L 3694 3184 
Q 3534 3684 3231 3912 
Q 2928 4141 2469 4141 
Q 1941 4141 1586 3887 
Q 1231 3634 1087 3207 
Q 944 2781 944 2328 
Q 944 1744 1114 1308 
Q 1284 872 1643 656 
Q 2003 441 2422 441 
Q 2931 441 3284 734 
Q 3638 1028 3763 1606 
z
" transform="scale(0.015625)"/>
      <path id="ArialMT-6c" d="M 409 0 
L 409 4581 
L 972 4581 
L 972 0 
L 409 0 
z
" transform="scale(0.015625)"/>
      <path id="ArialMT-6f" d="M 213 1659 
Q 213 2581 725 3025 
Q 1153 3394 1769 3394 
Q 2453 3394 2887 2945 
Q 3322 2497 3322 1706 
Q 3322 1066 3130 698 
Q 2938 331 2570 128 
Q 2203 -75 1769 -75 
Q 1072 -75 642 372 
Q 213 819 213 1659 
z
M 791 1659 
Q 791 1022 1069 705 
Q 1347 388 1769 388 
Q 2188 388 2466 706 
Q 2744 1025 2744 1678 
Q 2744 2294 2464 2611 
Q 2184 2928 1769 2928 
Q 1347 2928 1069 2612 
Q 791 2297 791 1659 
z
" transform="scale(0.015625)"/>
      <path id="ArialMT-73" d="M 197 991 
L 753 1078 
Q 800 744 1014 566 
Q 1228 388 1613 388 
Q 2000 388 2187 545 
Q 2375 703 2375 916 
Q 2375 1106 2209 1216 
Q 2094 1291 1634 1406 
Q 1016 1563 777 1677 
Q 538 1791 414 1992 
Q 291 2194 291 2438 
Q 291 2659 392 2848 
Q 494 3038 669 3163 
Q 800 3259 1026 3326 
Q 1253 3394 1513 3394 
Q 1903 3394 2198 3281 
Q 2494 3169 2634 2976 
Q 2775 2784 2828 2463 
L 2278 2388 
Q 2241 2644 2061 2787 
Q 1881 2931 1553 2931 
Q 1166 2931 1000 2803 
Q 834 2675 834 2503 
Q 834 2394 903 2306 
Q 972 2216 1119 2156 
Q 1203 2125 1616 2013 
Q 2213 1853 2448 1751 
Q 2684 1650 2818 1456 
Q 2953 1263 2953 975 
Q 2953 694 2789 445 
Q 2625 197 2315 61 
Q 2006 -75 1616 -75 
Q 969 -75 630 194 
Q 291 463 197 991 
z
" transform="scale(0.015625)"/>
      <path id="ArialMT-20" transform="scale(0.015625)"/>
      <path id="ArialMT-61" d="M 2588 409 
Q 2275 144 1986 34 
Q 1697 -75 1366 -75 
Q 819 -75 525 192 
Q 231 459 231 875 
Q 231 1119 342 1320 
Q 453 1522 633 1644 
Q 813 1766 1038 1828 
Q 1203 1872 1538 1913 
Q 2219 1994 2541 2106 
Q 2544 2222 2544 2253 
Q 2544 2597 2384 2738 
Q 2169 2928 1744 2928 
Q 1347 2928 1158 2789 
Q 969 2650 878 2297 
L 328 2372 
Q 403 2725 575 2942 
Q 747 3159 1072 3276 
Q 1397 3394 1825 3394 
Q 2250 3394 2515 3294 
Q 2781 3194 2906 3042 
Q 3031 2891 3081 2659 
Q 3109 2516 3109 2141 
L 3109 1391 
Q 3109 606 3145 398 
Q 3181 191 3288 0 
L 2700 0 
Q 2613 175 2588 409 
z
M 2541 1666 
Q 2234 1541 1622 1453 
Q 1275 1403 1131 1340 
Q 988 1278 909 1158 
Q 831 1038 831 891 
Q 831 666 1001 516 
Q 1172 366 1500 366 
Q 1825 366 2078 508 
Q 2331 650 2450 897 
Q 2541 1088 2541 1459 
L 2541 1666 
z
" transform="scale(0.015625)"/>
      <path id="ArialMT-6e" d="M 422 0 
L 422 3319 
L 928 3319 
L 928 2847 
Q 1294 3394 1984 3394 
Q 2284 3394 2536 3286 
Q 2788 3178 2913 3003 
Q 3038 2828 3088 2588 
Q 3119 2431 3119 2041 
L 3119 0 
L 2556 0 
L 2556 2019 
Q 2556 2363 2490 2533 
Q 2425 2703 2258 2804 
Q 2091 2906 1866 2906 
Q 1506 2906 1245 2678 
Q 984 2450 984 1813 
L 984 0 
L 422 0 
z
" transform="scale(0.015625)"/>
      <path id="ArialMT-64" d="M 2575 0 
L 2575 419 
Q 2259 -75 1647 -75 
Q 1250 -75 917 144 
Q 584 363 401 755 
Q 219 1147 219 1656 
Q 219 2153 384 2558 
Q 550 2963 881 3178 
Q 1213 3394 1622 3394 
Q 1922 3394 2156 3267 
Q 2391 3141 2538 2938 
L 2538 4581 
L 3097 4581 
L 3097 0 
L 2575 0 
z
M 797 1656 
Q 797 1019 1065 703 
Q 1334 388 1700 388 
Q 2069 388 2326 689 
Q 2584 991 2584 1609 
Q 2584 2291 2321 2609 
Q 2059 2928 1675 2928 
Q 1300 2928 1048 2622 
Q 797 2316 797 1656 
z
" transform="scale(0.015625)"/>
      <path id="ArialMT-2d" d="M 203 1375 
L 203 1941 
L 1931 1941 
L 1931 1375 
L 203 1375 
z
" transform="scale(0.015625)"/>
      <path id="ArialMT-44" d="M 494 0 
L 494 4581 
L 2072 4581 
Q 2606 4581 2888 4516 
Q 3281 4425 3559 4188 
Q 3922 3881 4101 3404 
Q 4281 2928 4281 2316 
Q 4281 1794 4159 1391 
Q 4038 988 3847 723 
Q 3656 459 3429 307 
Q 3203 156 2883 78 
Q 2563 0 2147 0 
L 494 0 
z
M 1100 541 
L 2078 541 
Q 2531 541 2789 625 
Q 3047 709 3200 863 
Q 3416 1078 3536 1442 
Q 3656 1806 3656 2325 
Q 3656 3044 3420 3430 
Q 3184 3816 2847 3947 
Q 2603 4041 2063 4041 
L 1100 4041 
L 1100 541 
z
" transform="scale(0.015625)"/>
      <path id="ArialMT-79" d="M 397 -1278 
L 334 -750 
Q 519 -800 656 -800 
Q 844 -800 956 -737 
Q 1069 -675 1141 -563 
Q 1194 -478 1313 -144 
Q 1328 -97 1363 -6 
L 103 3319 
L 709 3319 
L 1400 1397 
Q 1534 1031 1641 628 
Q 1738 1016 1872 1384 
L 2581 3319 
L 3144 3319 
L 1881 -56 
Q 1678 -603 1566 -809 
Q 1416 -1088 1222 -1217 
Q 1028 -1347 759 -1347 
Q 597 -1347 397 -1278 
z
" transform="scale(0.015625)"/>
      <path id="ArialMT-4d" d="M 475 0 
L 475 4581 
L 1388 4581 
L 2472 1338 
Q 2622 884 2691 659 
Q 2769 909 2934 1394 
L 4031 4581 
L 4847 4581 
L 4847 0 
L 4263 0 
L 4263 3834 
L 2931 0 
L 2384 0 
L 1059 3900 
L 1059 0 
L 475 0 
z
" transform="scale(0.015625)"/>
      <path id="ArialMT-76" d="M 1344 0 
L 81 3319 
L 675 3319 
L 1388 1331 
Q 1503 1009 1600 663 
Q 1675 925 1809 1294 
L 2547 3319 
L 3125 3319 
L 1869 0 
L 1344 0 
z
" transform="scale(0.015625)"/>
      <path id="ArialMT-67" d="M 319 -275 
L 866 -356 
Q 900 -609 1056 -725 
Q 1266 -881 1628 -881 
Q 2019 -881 2231 -725 
Q 2444 -569 2519 -288 
Q 2563 -116 2559 434 
Q 2191 0 1641 0 
Q 956 0 581 494 
Q 206 988 206 1678 
Q 206 2153 378 2554 
Q 550 2956 876 3175 
Q 1203 3394 1644 3394 
Q 2231 3394 2613 2919 
L 2613 3319 
L 3131 3319 
L 3131 450 
Q 3131 -325 2973 -648 
Q 2816 -972 2473 -1159 
Q 2131 -1347 1631 -1347 
Q 1038 -1347 672 -1080 
Q 306 -813 319 -275 
z
M 784 1719 
Q 784 1066 1043 766 
Q 1303 466 1694 466 
Q 2081 466 2343 764 
Q 2606 1063 2606 1700 
Q 2606 2309 2336 2618 
Q 2066 2928 1684 2928 
Q 1309 2928 1046 2623 
Q 784 2319 784 1719 
z
" transform="scale(0.015625)"/>
      <path id="ArialMT-41" d="M -9 0 
L 1750 4581 
L 2403 4581 
L 4278 0 
L 3588 0 
L 3053 1388 
L 1138 1388 
L 634 0 
L -9 0 
z
M 1313 1881 
L 2866 1881 
L 2388 3150 
Q 2169 3728 2063 4100 
Q 1975 3659 1816 3225 
L 1313 1881 
z
" transform="scale(0.015625)"/>
     </defs>
     <use xlink:href="#ArialMT-43"/>
     <use xlink:href="#ArialMT-6c" transform="translate(72.216797 0)"/>
     <use xlink:href="#ArialMT-6f" transform="translate(94.433594 0)"/>
     <use xlink:href="#ArialMT-73" transform="translate(150.048828 0)"/>
     <use xlink:href="#ArialMT-65" transform="translate(200.048828 0)"/>
     <use xlink:href="#ArialMT-20" transform="translate(255.664062 0)"/>
     <use xlink:href="#ArialMT-50" transform="translate(283.447266 0)"/>
     <use xlink:href="#ArialMT-72" transform="translate(350.146484 0)"/>
     <use xlink:href="#ArialMT-69" transform="translate(383.447266 0)"/>
     <use xlink:href="#ArialMT-63" transform="translate(405.664062 0)"/>
     <use xlink:href="#ArialMT-65" transform="translate(455.664062 0)"/>
     <use xlink:href="#ArialMT-20" transform="translate(511.279297 0)"/>
     <use xlink:href="#ArialMT-61" transform="translate(539.0625 0)"/>
     <use xlink:href="#ArialMT-6e" transform="translate(594.677734 0)"/>
     <use xlink:href="#ArialMT-64" transform="translate(650.292969 0)"/>
     <use xlink:href="#ArialMT-20" transform="translate(705.908203 0)"/>
     <use xlink:href="#ArialMT-32" transform="translate(733.691406 0)"/>
     <use xlink:href="#ArialMT-30" transform="translate(789.306641 0)"/>
     <use xlink:href="#ArialMT-2d" transform="translate(844.921875 0)"/>
     <use xlink:href="#ArialMT-44" transform="translate(878.222656 0)"/>
     <use xlink:href="#ArialMT-61" transform="translate(950.439453 0)"/>
     <use xlink:href="#ArialMT-79" transform="translate(1006.054688 0)"/>
     <use xlink:href="#ArialMT-20" transform="translate(1056.054688 0)"/>
     <use xlink:href="#ArialMT-4d" transform="translate(1083.837891 0)"/>
     <use xlink:href="#ArialMT-6f" transform="translate(1167.138672 0)"/>
     <use xlink:href="#ArialMT-76" transform="translate(1222.753906 0)"/>
     <use xlink:href="#ArialMT-69" transform="translate(1272.753906 0)"/>
     <use xlink:href="#ArialMT-6e" transform="translate(1294.970703 0)"/>
     <use xlink:href="#ArialMT-67" transform="translate(1350.585938 0)"/>
     <use xlink:href="#ArialMT-20" transform="translate(1406.201172 0)"/>
     <use xlink:href="#ArialMT-41" transform="translate(1428.484375 0)"/>
     <use xlink:href="#ArialMT-76" transform="translate(1493.433594 0)"/>
     <use xlink:href="#ArialMT-65" transform="translate(1543.433594 0)"/>
     <use xlink:href="#ArialMT-72" transform="translate(1599.048828 0)"/>
     <use xlink:href="#ArialMT-61" transform="translate(1632.349609 0)"/>
     <use xlink:href="#ArialMT-67" transform="translate(1687.964844 0)"/>
     <use xlink:href="#ArialMT-65" transform="translate(1743.580078 0)"/>
    </g>
   </g>
   <g id="legend_1">
    <g id="line2d_39">
     <path d="M 58.98 40.797812 
L 68.98 40.797812 
L 78.98 40.797812 
" style="fill: none; stroke: #1f77b4; stroke-width: 1.5; stroke-linecap: round"/>
    </g>
    <g id="text_10">
     <!-- China Jushi Close -->
     <g style="fill: #262626" transform="translate(86.98 44.297812) scale(0.1 -0.1)">
      <defs>
       <path id="ArialMT-68" d="M 422 0 
L 422 4581 
L 984 4581 
L 984 2938 
Q 1378 3394 1978 3394 
Q 2347 3394 2619 3248 
Q 2891 3103 3008 2847 
Q 3125 2591 3125 2103 
L 3125 0 
L 2563 0 
L 2563 2103 
Q 2563 2525 2380 2717 
Q 2197 2909 1863 2909 
Q 1613 2909 1392 2779 
Q 1172 2650 1078 2428 
Q 984 2206 984 1816 
L 984 0 
L 422 0 
z
" transform="scale(0.015625)"/>
       <path id="ArialMT-4a" d="M 184 1300 
L 731 1375 
Q 753 850 928 656 
Q 1103 463 1413 463 
Q 1641 463 1806 567 
Q 1972 672 2034 851 
Q 2097 1031 2097 1425 
L 2097 4581 
L 2703 4581 
L 2703 1459 
Q 2703 884 2564 568 
Q 2425 253 2123 87 
Q 1822 -78 1416 -78 
Q 813 -78 492 269 
Q 172 616 184 1300 
z
" transform="scale(0.015625)"/>
       <path id="ArialMT-75" d="M 2597 0 
L 2597 488 
Q 2209 -75 1544 -75 
Q 1250 -75 995 37 
Q 741 150 617 320 
Q 494 491 444 738 
Q 409 903 409 1263 
L 409 3319 
L 972 3319 
L 972 1478 
Q 972 1038 1006 884 
Q 1059 663 1231 536 
Q 1403 409 1656 409 
Q 1909 409 2131 539 
Q 2353 669 2445 892 
Q 2538 1116 2538 1541 
L 2538 3319 
L 3100 3319 
L 3100 0 
L 2597 0 
z
" transform="scale(0.015625)"/>
      </defs>
      <use xlink:href="#ArialMT-43"/>
      <use xlink:href="#ArialMT-68" transform="translate(72.216797 0)"/>
      <use xlink:href="#ArialMT-69" transform="translate(127.832031 0)"/>
      <use xlink:href="#ArialMT-6e" transform="translate(150.048828 0)"/>
      <use xlink:href="#ArialMT-61" transform="translate(205.664062 0)"/>
      <use xlink:href="#ArialMT-20" transform="translate(261.279297 0)"/>
      <use xlink:href="#ArialMT-4a" transform="translate(289.0625 0)"/>
      <use xlink:href="#ArialMT-75" transform="translate(339.0625 0)"/>
      <use xlink:href="#ArialMT-73" transform="translate(394.677734 0)"/>
      <use xlink:href="#ArialMT-68" transform="translate(444.677734 0)"/>
      <use xlink:href="#ArialMT-69" transform="translate(500.292969 0)"/>
      <use xlink:href="#ArialMT-20" transform="translate(522.509766 0)"/>
      <use xlink:href="#ArialMT-43" transform="translate(550.292969 0)"/>
      <use xlink:href="#ArialMT-6c" transform="translate(622.509766 0)"/>
      <use xlink:href="#ArialMT-6f" transform="translate(644.726562 0)"/>
      <use xlink:href="#ArialMT-73" transform="translate(700.341797 0)"/>
      <use xlink:href="#ArialMT-65" transform="translate(750.341797 0)"/>
     </g>
    </g>
    <g id="line2d_40">
     <path d="M 58.98 54.943125 
L 68.98 54.943125 
L 78.98 54.943125 
" style="fill: none; stroke: #ff7f0e; stroke-width: 2; stroke-linecap: round"/>
    </g>
    <g id="text_11">
     <!-- China Jushi 20D MA -->
     <g style="fill: #262626" transform="translate(86.98 58.443125) scale(0.1 -0.1)">
      <use xlink:href="#ArialMT-43"/>
      <use xlink:href="#ArialMT-68" transform="translate(72.216797 0)"/>
      <use xlink:href="#ArialMT-69" transform="translate(127.832031 0)"/>
      <use xlink:href="#ArialMT-6e" transform="translate(150.048828 0)"/>
      <use xlink:href="#ArialMT-61" transform="translate(205.664062 0)"/>
      <use xlink:href="#ArialMT-20" transform="translate(261.279297 0)"/>
      <use xlink:href="#ArialMT-4a" transform="translate(289.0625 0)"/>
      <use xlink:href="#ArialMT-75" transform="translate(339.0625 0)"/>
      <use xlink:href="#ArialMT-73" transform="translate(394.677734 0)"/>
      <use xlink:href="#ArialMT-68" transform="translate(444.677734 0)"/>
      <use xlink:href="#ArialMT-69" transform="translate(500.292969 0)"/>
      <use xlink:href="#ArialMT-20" transform="translate(522.509766 0)"/>
      <use xlink:href="#ArialMT-32" transform="translate(550.292969 0)"/>
      <use xlink:href="#ArialMT-30" transform="translate(605.908203 0)"/>
      <use xlink:href="#ArialMT-44" transform="translate(661.523438 0)"/>
      <use xlink:href="#ArialMT-20" transform="translate(733.740234 0)"/>
      <use xlink:href="#ArialMT-4d" transform="translate(761.523438 0)"/>
      <use xlink:href="#ArialMT-41" transform="translate(844.824219 0)"/>
     </g>
    </g>
   </g>
  </g>
  <g id="axes_2">
   <g id="patch_7">
    <path d="M 49.98 610.98 
L 853.2 610.98 
L 853.2 324.96 
L 49.98 324.96 
z
" style="fill: #ffffff"/>
   </g>
   <g id="matplotlib.axis_3">
    <g id="xtick_12">
     <g id="line2d_41">
      <path d="M 85.690219 610.98 
L 85.690219 324.96 
" clip-path="url(#p443f98a9de)" style="fill: none; stroke: #cccccc; stroke-width: 0.8; stroke-linecap: round"/>
     </g>
     <g id="line2d_42"/>
     <g id="text_12">
      <!-- 2024-01 -->
      <g style="fill: #262626" transform="translate(67.342563 621.637812) scale(0.1 -0.1)">
       <use xlink:href="#ArialMT-32"/>
       <use xlink:href="#ArialMT-30" transform="translate(55.615234 0)"/>
       <use xlink:href="#ArialMT-32" transform="translate(111.230469 0)"/>
       <use xlink:href="#ArialMT-34" transform="translate(166.845703 0)"/>
       <use xlink:href="#ArialMT-2d" transform="translate(222.460938 0)"/>
       <use xlink:href="#ArialMT-30" transform="translate(255.761719 0)"/>
       <use xlink:href="#ArialMT-31" transform="translate(311.376953 0)"/>
      </g>
     </g>
    </g>
    <g id="xtick_13">
     <g id="line2d_43">
      <path d="M 158.470285 610.98 
L 158.470285 324.96 
" clip-path="url(#p443f98a9de)" style="fill: none; stroke: #cccccc; stroke-width: 0.8; stroke-linecap: round"/>
     </g>
     <g id="line2d_44"/>
     <g id="text_13">
      <!-- 2024-04 -->
      <g style="fill: #262626" transform="translate(140.122629 621.637812) scale(0.1 -0.1)">
       <use xlink:href="#ArialMT-32"/>
       <use xlink:href="#ArialMT-30" transform="translate(55.615234 0)"/>
       <use xlink:href="#ArialMT-32" transform="translate(111.230469 0)"/>
       <use xlink:href="#ArialMT-34" transform="translate(166.845703 0)"/>
       <use xlink:href="#ArialMT-2d" transform="translate(222.460938 0)"/>
       <use xlink:href="#ArialMT-30" transform="translate(255.761719 0)"/>
       <use xlink:href="#ArialMT-34" transform="translate(311.376953 0)"/>
      </g>
     </g>
    </g>
    <g id="xtick_14">
     <g id="line2d_45">
      <path d="M 231.25035 610.98 
L 231.25035 324.96 
" clip-path="url(#p443f98a9de)" style="fill: none; stroke: #cccccc; stroke-width: 0.8; stroke-linecap: round"/>
     </g>
     <g id="line2d_46"/>
     <g id="text_14">
      <!-- 2024-07 -->
      <g style="fill: #262626" transform="translate(212.902694 621.637812) scale(0.1 -0.1)">
       <use xlink:href="#ArialMT-32"/>
       <use xlink:href="#ArialMT-30" transform="translate(55.615234 0)"/>
       <use xlink:href="#ArialMT-32" transform="translate(111.230469 0)"/>
       <use xlink:href="#ArialMT-34" transform="translate(166.845703 0)"/>
       <use xlink:href="#ArialMT-2d" transform="translate(222.460938 0)"/>
       <use xlink:href="#ArialMT-30" transform="translate(255.761719 0)"/>
       <use xlink:href="#ArialMT-37" transform="translate(311.376953 0)"/>
      </g>
     </g>
    </g>
    <g id="xtick_15">
     <g id="line2d_47">
      <path d="M 304.830197 610.98 
L 304.830197 324.96 
" clip-path="url(#p443f98a9de)" style="fill: none; stroke: #cccccc; stroke-width: 0.8; stroke-linecap: round"/>
     </g>
     <g id="line2d_48"/>
     <g id="text_15">
      <!-- 2024-10 -->
      <g style="fill: #262626" transform="translate(286.482541 621.637812) scale(0.1 -0.1)">
       <use xlink:href="#ArialMT-32"/>
       <use xlink:href="#ArialMT-30" transform="translate(55.615234 0)"/>
       <use xlink:href="#ArialMT-32" transform="translate(111.230469 0)"/>
       <use xlink:href="#ArialMT-34" transform="translate(166.845703 0)"/>
       <use xlink:href="#ArialMT-2d" transform="translate(222.460938 0)"/>
       <use xlink:href="#ArialMT-31" transform="translate(255.761719 0)"/>
       <use xlink:href="#ArialMT-30" transform="translate(311.376953 0)"/>
      </g>
     </g>
    </g>
    <g id="xtick_16">
     <g id="line2d_49">
      <path d="M 378.410044 610.98 
L 378.410044 324.96 
" clip-path="url(#p443f98a9de)" style="fill: none; stroke: #cccccc; stroke-width: 0.8; stroke-linecap: round"/>
     </g>
     <g id="line2d_50"/>
     <g id="text_16">
      <!-- 2025-01 -->
      <g style="fill: #262626" transform="translate(360.062388 621.637812) scale(0.1 -0.1)">
       <use xlink:href="#ArialMT-32"/>
       <use xlink:href="#ArialMT-30" transform="translate(55.615234 0)"/>
       <use xlink:href="#ArialMT-32" transform="translate(111.230469 0)"/>
       <use xlink:href="#ArialMT-35" transform="translate(166.845703 0)"/>
       <use xlink:href="#ArialMT-2d" transform="translate(222.460938 0)"/>
       <use xlink:href="#ArialMT-30" transform="translate(255.761719 0)"/>
       <use xlink:href="#ArialMT-31" transform="translate(311.376953 0)"/>
      </g>
     </g>
    </g>
    <g id="xtick_17">
     <g id="line2d_51">
      <path d="M 450.390329 610.98 
L 450.390329 324.96 
" clip-path="url(#p443f98a9de)" style="fill: none; stroke: #cccccc; stroke-width: 0.8; stroke-linecap: round"/>
     </g>
     <g id="line2d_52"/>
     <g id="text_17">
      <!-- 2025-04 -->
      <g style="fill: #262626" transform="translate(432.042672 621.637812) scale(0.1 -0.1)">
       <use xlink:href="#ArialMT-32"/>
       <use xlink:href="#ArialMT-30" transform="translate(55.615234 0)"/>
       <use xlink:href="#ArialMT-32" transform="translate(111.230469 0)"/>
       <use xlink:href="#ArialMT-35" transform="translate(166.845703 0)"/>
       <use xlink:href="#ArialMT-2d" transform="translate(222.460938 0)"/>
       <use xlink:href="#ArialMT-30" transform="translate(255.761719 0)"/>
       <use xlink:href="#ArialMT-34" transform="translate(311.376953 0)"/>
      </g>
     </g>
    </g>
    <g id="xtick_18">
     <g id="line2d_53">
      <path d="M 523.170394 610.98 
L 523.170394 324.96 
" clip-path="url(#p443f98a9de)" style="fill: none; stroke: #cccccc; stroke-width: 0.8; stroke-linecap: round"/>
     </g>
     <g id="line2d_54"/>
     <g id="text_18">
      <!-- 2025-07 -->
      <g style="fill: #262626" transform="translate(504.822738 621.637812) scale(0.1 -0.1)">
       <use xlink:href="#ArialMT-32"/>
       <use xlink:href="#ArialMT-30" transform="translate(55.615234 0)"/>
       <use xlink:href="#ArialMT-32" transform="translate(111.230469 0)"/>
       <use xlink:href="#ArialMT-35" transform="translate(166.845703 0)"/>
       <use xlink:href="#ArialMT-2d" transform="translate(222.460938 0)"/>
       <use xlink:href="#ArialMT-30" transform="translate(255.761719 0)"/>
       <use xlink:href="#ArialMT-37" transform="translate(311.376953 0)"/>
      </g>
     </g>
    </g>
    <g id="xtick_19">
     <g id="line2d_55">
      <path d="M 596.750241 610.98 
L 596.750241 324.96 
" clip-path="url(#p443f98a9de)" style="fill: none; stroke: #cccccc; stroke-width: 0.8; stroke-linecap: round"/>
     </g>
     <g id="line2d_56"/>
     <g id="text_19">
      <!-- 2025-10 -->
      <g style="fill: #262626" transform="translate(578.402585 621.637812) scale(0.1 -0.1)">
       <use xlink:href="#ArialMT-32"/>
       <use xlink:href="#ArialMT-30" transform="translate(55.615234 0)"/>
       <use xlink:href="#ArialMT-32" transform="translate(111.230469 0)"/>
       <use xlink:href="#ArialMT-35" transform="translate(166.845703 0)"/>
       <use xlink:href="#ArialMT-2d" transform="translate(222.460938 0)"/>
       <use xlink:href="#ArialMT-31" transform="translate(255.761719 0)"/>
       <use xlink:href="#ArialMT-30" transform="translate(311.376953 0)"/>
      </g>
     </g>
    </g>
    <g id="xtick_20">
     <g id="line2d_57">
      <path d="M 670.330088 610.98 
L 670.330088 324.96 
" clip-path="url(#p443f98a9de)" style="fill: none; stroke: #cccccc; stroke-width: 0.8; stroke-linecap: round"/>
     </g>
     <g id="line2d_58"/>
     <g id="text_20">
      <!-- 2026-01 -->
      <g style="fill: #262626" transform="translate(651.982431 621.637812) scale(0.1 -0.1)">
       <use xlink:href="#ArialMT-32"/>
       <use xlink:href="#ArialMT-30" transform="translate(55.615234 0)"/>
       <use xlink:href="#ArialMT-32" transform="translate(111.230469 0)"/>
       <use xlink:href="#ArialMT-36" transform="translate(166.845703 0)"/>
       <use xlink:href="#ArialMT-2d" transform="translate(222.460938 0)"/>
       <use xlink:href="#ArialMT-30" transform="translate(255.761719 0)"/>
       <use xlink:href="#ArialMT-31" transform="translate(311.376953 0)"/>
      </g>
     </g>
    </g>
    <g id="xtick_21">
     <g id="line2d_59">
      <path d="M 742.310372 610.98 
L 742.310372 324.96 
" clip-path="url(#p443f98a9de)" style="fill: none; stroke: #cccccc; stroke-width: 0.8; stroke-linecap: round"/>
     </g>
     <g id="line2d_60"/>
     <g id="text_21">
      <!-- 2026-04 -->
      <g style="fill: #262626" transform="translate(723.962716 621.637812) scale(0.1 -0.1)">
       <use xlink:href="#ArialMT-32"/>
       <use xlink:href="#ArialMT-30" transform="translate(55.615234 0)"/>
       <use xlink:href="#ArialMT-32" transform="translate(111.230469 0)"/>
       <use xlink:href="#ArialMT-36" transform="translate(166.845703 0)"/>
       <use xlink:href="#ArialMT-2d" transform="translate(222.460938 0)"/>
       <use xlink:href="#ArialMT-30" transform="translate(255.761719 0)"/>
       <use xlink:href="#ArialMT-34" transform="translate(311.376953 0)"/>
      </g>
     </g>
    </g>
    <g id="xtick_22">
     <g id="line2d_61">
      <path d="M 815.090438 610.98 
L 815.090438 324.96 
" clip-path="url(#p443f98a9de)" style="fill: none; stroke: #cccccc; stroke-width: 0.8; stroke-linecap: round"/>
     </g>
     <g id="line2d_62"/>
     <g id="text_22">
      <!-- 2026-07 -->
      <g style="fill: #262626" transform="translate(796.742782 621.637812) scale(0.1 -0.1)">
       <use xlink:href="#ArialMT-32"/>
       <use xlink:href="#ArialMT-30" transform="translate(55.615234 0)"/>
       <use xlink:href="#ArialMT-32" transform="translate(111.230469 0)"/>
       <use xlink:href="#ArialMT-36" transform="translate(166.845703 0)"/>
       <use xlink:href="#ArialMT-2d" transform="translate(222.460938 0)"/>
       <use xlink:href="#ArialMT-30" transform="translate(255.761719 0)"/>
       <use xlink:href="#ArialMT-37" transform="translate(311.376953 0)"/>
      </g>
     </g>
    </g>
    <g id="text_23">
     <!-- Date -->
     <g style="fill: #262626" transform="translate(441.029063 634.783125) scale(0.1 -0.1)">
      <defs>
       <path id="ArialMT-74" d="M 1650 503 
L 1731 6 
Q 1494 -44 1306 -44 
Q 1000 -44 831 53 
Q 663 150 594 308 
Q 525 466 525 972 
L 525 2881 
L 113 2881 
L 113 3319 
L 525 3319 
L 525 4141 
L 1084 4478 
L 1084 3319 
L 1650 3319 
L 1650 2881 
L 1084 2881 
L 1084 941 
Q 1084 700 1114 631 
Q 1144 563 1211 522 
Q 1278 481 1403 481 
Q 1497 481 1650 503 
z
" transform="scale(0.015625)"/>
      </defs>
      <use xlink:href="#ArialMT-44"/>
      <use xlink:href="#ArialMT-61" transform="translate(72.216797 0)"/>
      <use xlink:href="#ArialMT-74" transform="translate(127.832031 0)"/>
      <use xlink:href="#ArialMT-65" transform="translate(155.615234 0)"/>
     </g>
    </g>
   </g>
   <g id="matplotlib.axis_4">
    <g id="ytick_8">
     <g id="line2d_63">
      <path d="M 49.98 572.002036 
L 853.2 572.002036 
" clip-path="url(#p443f98a9de)" style="fill: none; stroke: #cccccc; stroke-width: 0.8; stroke-linecap: round"/>
     </g>
     <g id="line2d_64"/>
     <g id="text_24">
      <!-- 200 -->
      <g style="fill: #262626" transform="translate(29.797188 575.580942) scale(0.1 -0.1)">
       <use xlink:href="#ArialMT-32"/>
       <use xlink:href="#ArialMT-30" transform="translate(55.615234 0)"/>
       <use xlink:href="#ArialMT-30" transform="translate(111.230469 0)"/>
      </g>
     </g>
    </g>
    <g id="ytick_9">
     <g id="line2d_65">
      <path d="M 49.98 532.412222 
L 853.2 532.412222 
" clip-path="url(#p443f98a9de)" style="fill: none; stroke: #cccccc; stroke-width: 0.8; stroke-linecap: round"/>
     </g>
     <g id="line2d_66"/>
     <g id="text_25">
      <!-- 400 -->
      <g style="fill: #262626" transform="translate(29.797188 535.991128) scale(0.1 -0.1)">
       <use xlink:href="#ArialMT-34"/>
       <use xlink:href="#ArialMT-30" transform="translate(55.615234 0)"/>
       <use xlink:href="#ArialMT-30" transform="translate(111.230469 0)"/>
      </g>
     </g>
    </g>
    <g id="ytick_10">
     <g id="line2d_67">
      <path d="M 49.98 492.822407 
L 853.2 492.822407 
" clip-path="url(#p443f98a9de)" style="fill: none; stroke: #cccccc; stroke-width: 0.8; stroke-linecap: round"/>
     </g>
     <g id="line2d_68"/>
     <g id="text_26">
      <!-- 600 -->
      <g style="fill: #262626" transform="translate(29.797188 496.401313) scale(0.1 -0.1)">
       <use xlink:href="#ArialMT-36"/>
       <use xlink:href="#ArialMT-30" transform="translate(55.615234 0)"/>
       <use xlink:href="#ArialMT-30" transform="translate(111.230469 0)"/>
      </g>
     </g>
    </g>
    <g id="ytick_11">
     <g id="line2d_69">
      <path d="M 49.98 453.232593 
L 853.2 453.232593 
" clip-path="url(#p443f98a9de)" style="fill: none; stroke: #cccccc; stroke-width: 0.8; stroke-linecap: round"/>
     </g>
     <g id="line2d_70"/>
     <g id="text_27">
      <!-- 800 -->
      <g style="fill: #262626" transform="translate(29.797188 456.811499) scale(0.1 -0.1)">
       <defs>
        <path id="ArialMT-38" d="M 1131 2484 
Q 781 2613 612 2850 
Q 444 3088 444 3419 
Q 444 3919 803 4259 
Q 1163 4600 1759 4600 
Q 2359 4600 2725 4251 
Q 3091 3903 3091 3403 
Q 3091 3084 2923 2848 
Q 2756 2613 2416 2484 
Q 2838 2347 3058 2040 
Q 3278 1734 3278 1309 
Q 3278 722 2862 322 
Q 2447 -78 1769 -78 
Q 1091 -78 675 323 
Q 259 725 259 1325 
Q 259 1772 486 2073 
Q 713 2375 1131 2484 
z
M 1019 3438 
Q 1019 3113 1228 2906 
Q 1438 2700 1772 2700 
Q 2097 2700 2305 2904 
Q 2513 3109 2513 3406 
Q 2513 3716 2298 3927 
Q 2084 4138 1766 4138 
Q 1444 4138 1231 3931 
Q 1019 3725 1019 3438 
z
M 838 1322 
Q 838 1081 952 856 
Q 1066 631 1291 507 
Q 1516 384 1775 384 
Q 2178 384 2440 643 
Q 2703 903 2703 1303 
Q 2703 1709 2433 1975 
Q 2163 2241 1756 2241 
Q 1359 2241 1098 1978 
Q 838 1716 838 1322 
z
" transform="scale(0.015625)"/>
       </defs>
       <use xlink:href="#ArialMT-38"/>
       <use xlink:href="#ArialMT-30" transform="translate(55.615234 0)"/>
       <use xlink:href="#ArialMT-30" transform="translate(111.230469 0)"/>
      </g>
     </g>
    </g>
    <g id="ytick_12">
     <g id="line2d_71">
      <path d="M 49.98 413.642778 
L 853.2 413.642778 
" clip-path="url(#p443f98a9de)" style="fill: none; stroke: #cccccc; stroke-width: 0.8; stroke-linecap: round"/>
     </g>
     <g id="line2d_72"/>
     <g id="text_28">
      <!-- 1000 -->
      <g style="fill: #262626" transform="translate(24.23625 417.221684) scale(0.1 -0.1)">
       <use xlink:href="#ArialMT-31"/>
       <use xlink:href="#ArialMT-30" transform="translate(55.615234 0)"/>
       <use xlink:href="#ArialMT-30" transform="translate(111.230469 0)"/>
       <use xlink:href="#ArialMT-30" transform="translate(166.845703 0)"/>
      </g>
     </g>
    </g>
    <g id="ytick_13">
     <g id="line2d_73">
      <path d="M 49.98 374.052964 
L 853.2 374.052964 
" clip-path="url(#p443f98a9de)" style="fill: none; stroke: #cccccc; stroke-width: 0.8; stroke-linecap: round"/>
     </g>
     <g id="line2d_74"/>
     <g id="text_29">
      <!-- 1200 -->
      <g style="fill: #262626" transform="translate(24.23625 377.63187) scale(0.1 -0.1)">
       <use xlink:href="#ArialMT-31"/>
       <use xlink:href="#ArialMT-32" transform="translate(55.615234 0)"/>
       <use xlink:href="#ArialMT-30" transform="translate(111.230469 0)"/>
       <use xlink:href="#ArialMT-30" transform="translate(166.845703 0)"/>
      </g>
     </g>
    </g>
    <g id="ytick_14">
     <g id="line2d_75">
      <path d="M 49.98 334.463149 
L 853.2 334.463149 
" clip-path="url(#p443f98a9de)" style="fill: none; stroke: #cccccc; stroke-width: 0.8; stroke-linecap: round"/>
     </g>
     <g id="line2d_76"/>
     <g id="text_30">
      <!-- 1400 -->
      <g style="fill: #262626" transform="translate(24.23625 338.042055) scale(0.1 -0.1)">
       <use xlink:href="#ArialMT-31"/>
       <use xlink:href="#ArialMT-34" transform="translate(55.615234 0)"/>
       <use xlink:href="#ArialMT-30" transform="translate(111.230469 0)"/>
       <use xlink:href="#ArialMT-30" transform="translate(166.845703 0)"/>
      </g>
     </g>
    </g>
    <g id="text_31">
     <!-- Price -->
     <g style="fill: #262626" transform="translate(18.24875 479.361406) rotate(-90) scale(0.1 -0.1)">
      <use xlink:href="#ArialMT-50"/>
      <use xlink:href="#ArialMT-72" transform="translate(66.699219 0)"/>
      <use xlink:href="#ArialMT-69" transform="translate(100 0)"/>
      <use xlink:href="#ArialMT-63" transform="translate(122.216797 0)"/>
      <use xlink:href="#ArialMT-65" transform="translate(172.216797 0)"/>
     </g>
    </g>
   </g>
   <g id="line2d_77">
    <path d="M 86.49 596.299295 
L 87.289781 597.098613 
L 88.089562 597.239553 
L 88.889343 597.804104 
L 91.288686 597.979091 
L 92.088467 597.620605 
L 92.888248 597.808261 
L 93.688028 597.326255 
L 94.487809 597.728685 
L 96.887152 597.54103 
L 98.486714 597.947815 
L 99.286495 596.410345 
L 100.086276 596.243869 
L 102.485619 596.158553 
L 103.2854 595.817289 
L 104.085181 595.859848 
L 104.884962 595.1985 
L 105.684743 595.538379 
L 108.084085 597.265089 
L 108.883866 597.637629 
L 109.683647 597.410185 
L 110.483428 596.236743 
L 111.283209 596.407375 
L 113.682552 596.101742 
L 114.482333 594.269921 
L 115.282114 594.308323 
L 116.081895 593.968247 
L 124.879485 590.355874 
L 125.679266 589.346136 
L 126.479047 590.702879 
L 127.278828 590.055783 
L 128.078609 591.019993 
L 130.477952 590.835109 
L 131.277733 588.999131 
L 132.077514 590.724257 
L 133.677076 589.118495 
L 136.076418 588.470013 
L 136.876199 587.972171 
L 137.67598 588.239601 
L 138.475761 588.686174 
L 139.275542 587.142963 
L 141.674885 587.767492 
L 142.474666 588.58522 
L 143.274447 588.563841 
L 144.074228 587.919517 
L 144.874009 586.806053 
L 147.273352 586.43193 
L 148.073133 587.310824 
L 148.872913 588.000676 
L 149.672694 588.182789 
L 150.472475 588.182789 
L 152.871818 588.349066 
L 153.671599 589.488263 
L 154.47138 590.099926 
L 155.271161 590.030248 
L 156.070942 589.764204 
L 158.470285 588.848294 
L 159.270066 588.912232 
L 160.069847 589.829726 
L 164.068751 588.626393 
L 164.868532 588.578094 
L 165.668313 589.346136 
L 166.468094 589.253694 
L 167.267875 587.948022 
L 169.667218 587.923872 
L 170.466999 588.370445 
L 171.26678 587.197201 
L 172.066561 587.37199 
L 172.866342 587.75324 
L 175.265685 589.508256 
L 176.065465 589.629203 
L 176.865246 588.098859 
L 177.665027 588.684788 
L 178.464808 585.739306 
L 180.864151 585.33549 
L 181.663932 585.533043 
L 186.462618 585.97249 
L 187.262399 586.887015 
L 189.661742 587.682176 
L 192.061084 587.632293 
L 192.860865 588.502675 
L 193.660646 588.31205 
L 194.460427 587.781546 
L 195.260208 587.770263 
L 197.659551 586.877117 
L 198.459332 586.795958 
L 199.259113 587.40188 
L 200.058894 587.313793 
L 200.858675 588.508415 
L 203.258018 588.081637 
L 204.057798 589.131361 
L 204.857579 589.132747 
L 205.65736 589.279229 
L 206.457141 589.66325 
L 208.856484 588.087378 
L 209.656265 587.42603 
L 210.456046 588.285129 
L 211.255827 587.141181 
L 212.055608 588.31106 
L 216.054513 588.370445 
L 216.854294 587.481654 
L 217.654074 584.591597 
L 220.053417 583.758232 
L 220.853198 582.887256 
L 222.45276 583.324723 
L 223.252541 583.661237 
L 225.651884 584.213514 
L 226.451665 585.264624 
L 227.251446 584.255084 
L 228.051227 585.019167 
L 228.851008 584.674736 
L 231.25035 583.285133 
L 232.050131 583.144589 
L 232.849912 583.562262 
L 233.649693 583.659257 
L 234.449474 583.95816 
L 236.848817 583.386087 
L 237.648598 581.418474 
L 238.448379 580.785037 
L 239.24816 581.630279 
L 240.047941 582.251839 
L 242.447284 582.358732 
L 243.247065 582.647737 
L 244.046846 583.916591 
L 244.846627 584.255084 
L 245.646407 585.248788 
L 248.04575 585.324009 
L 248.845531 586.052461 
L 249.645312 586.167272 
L 250.445093 587.764721 
L 253.644217 586.315734 
L 254.443998 586.697775 
L 255.243779 586.333549 
L 256.04356 586.254369 
L 256.843341 588.415973 
L 259.242683 590.169802 
L 260.042464 589.306744 
L 260.842245 589.536365 
L 261.642026 590.094581 
L 262.441807 589.692745 
L 264.84115 589.530427 
L 265.640931 588.819789 
L 267.240493 589.184016 
L 268.040274 588.221983 
L 272.039179 587.774618 
L 272.838959 587.938916 
L 273.63874 588.229901 
L 276.038083 589.334457 
L 277.637645 589.686806 
L 278.437426 590.858665 
L 279.237207 590.4113 
L 281.63655 591.355517 
L 282.436331 591.121937 
L 283.236112 591.796943 
L 284.035893 591.842472 
L 284.835674 592.287857 
L 287.235016 591.777149 
L 288.034797 590.900234 
L 288.834578 590.949721 
L 289.634359 590.589454 
L 290.43414 589.017738 
L 294.433045 589.473021 
L 295.232826 590.187617 
L 296.032607 590.391505 
L 298.43195 590.4113 
L 299.231731 587.786495 
L 300.031512 587.820147 
L 300.831292 586.297918 
L 301.631073 585.521958 
L 304.030416 581.313561 
L 310.428664 575.183078 
L 311.228445 579.029228 
L 312.828007 580.367364 
L 315.227349 579.900204 
L 316.02713 580.73159 
L 316.826911 582.532927 
L 317.626692 582.176618 
L 318.426473 578.71251 
L 320.825816 579.312295 
L 321.625597 578.316612 
L 322.425378 581.056227 
L 323.225159 580.870155 
L 324.02494 581.016637 
L 326.424283 582.168701 
L 327.224064 583.5682 
L 328.023844 584.007647 
L 328.823625 583.657278 
L 329.623406 584.110581 
L 332.022749 583.631544 
L 332.82253 582.614086 
L 333.622311 583.681031 
L 334.422092 583.249502 
L 335.221873 583.817616 
L 337.621216 583.285133 
L 338.420997 582.770466 
L 339.220778 581.028514 
L 340.82034 584.156109 
L 343.219682 585.836697 
L 344.819244 584.623269 
L 345.619025 585.482368 
L 346.418806 585.783251 
L 348.818149 587.22432 
L 350.417711 586.493888 
L 351.217492 587.265889 
L 354.416616 585.832738 
L 356.016177 586.626514 
L 356.815958 585.870348 
L 357.615739 585.935671 
L 360.814863 587.590526 
L 361.614644 587.198586 
L 362.414425 586.200923 
L 363.214206 586.808627 
L 365.613549 587.659808 
L 366.41333 587.02835 
L 367.213111 587.5351 
L 368.012892 586.820504 
L 368.812673 586.808627 
L 371.212015 585.721886 
L 372.011796 585.915876 
L 372.811577 585.246809 
L 373.611358 584.096724 
L 374.411139 584.878623 
L 376.810482 586.000995 
L 377.610263 587.519264 
L 379.209825 587.796393 
L 382.408949 587.127325 
L 383.208729 586.56119 
L 384.00851 587.37872 
L 384.808291 587.915162 
L 385.608072 589.573975 
L 388.007415 590.035197 
L 388.807196 589.332477 
L 389.606977 590.086663 
L 390.406758 588.315019 
L 391.206539 588.827707 
L 394.405663 588.301163 
L 395.205444 585.838676 
L 396.005225 586.67996 
L 396.805005 586.580985 
L 399.204348 589.239441 
L 406.402377 592.519458 
L 407.202158 591.975098 
L 408.001939 590.633003 
L 411.201062 589.896632 
L 412.000843 589.817453 
L 412.800624 590.5657 
L 413.600405 590.702285 
L 415.999748 589.092959 
L 416.799529 589.482919 
L 418.399091 589.314662 
L 419.198872 588.465461 
L 421.598215 589.302785 
L 422.397996 589.926325 
L 423.197777 589.754109 
L 423.997558 590.553823 
L 424.797338 592.000831 
L 427.196681 591.624728 
L 427.996462 591.686092 
L 428.796243 591.488143 
L 429.596024 591.14965 
L 430.395805 591.729641 
L 432.795148 591.701928 
L 433.594929 591.820697 
L 435.994272 591.38323 
L 438.393614 591.329784 
L 439.193395 590.419218 
L 439.993176 591.18726 
L 440.792957 591.183301 
L 441.592738 591.688071 
L 443.992081 591.602953 
L 445.591643 591.959262 
L 447.191205 592.685735 
L 451.19011 592.220554 
L 451.98989 593.384495 
L 455.189014 597.101979 
L 455.988795 597.660195 
L 456.788576 597.7176 
L 457.588357 596.62888 
L 460.787481 595.827187 
L 461.587262 596.098377 
L 462.387043 596.529906 
L 463.186824 596.605126 
L 463.986605 596.302264 
L 466.385947 595.896469 
L 467.185728 596.118172 
L 467.985509 595.435247 
L 468.78529 595.868756 
L 469.585071 595.088836 
L 472.784195 595.520365 
L 473.583976 595.441186 
L 479.182442 594.815667 
L 479.982223 592.867848 
L 480.782004 593.202382 
L 483.181347 592.713448 
L 483.981128 592.879725 
L 484.780909 592.491745 
L 485.58069 593.336987 
L 486.380471 592.602596 
L 488.779814 593.107366 
L 489.579595 592.972761 
L 490.379376 593.018289 
L 491.179157 593.269685 
L 491.978938 593.782373 
L 494.37828 593.685378 
L 495.178061 594.120866 
L 496.777623 593.174669 
L 497.577404 593.449818 
L 500.776528 593.804147 
L 502.37609 591.602953 
L 503.175871 591.490122 
L 505.575214 590.480582 
L 506.374995 590.634982 
L 507.174775 590.593413 
L 507.974556 589.005861 
L 508.774337 588.877195 
L 511.17368 588.101234 
L 511.973461 588.340753 
L 512.773242 587.212443 
L 513.573023 586.472113 
L 514.372804 586.234574 
L 516.772147 586.711632 
L 517.571928 587.075858 
L 518.371709 586.980842 
L 519.17149 586.194985 
L 519.971271 584.472828 
L 522.370613 582.996128 
L 523.170394 583.106979 
L 523.970175 584.367915 
L 524.769956 583.708744 
L 525.569737 584.264981 
L 527.96908 585.116162 
L 528.768861 583.190118 
L 529.568642 583.106979 
L 530.368423 582.851625 
L 531.168204 583.110938 
L 533.567547 582.212249 
L 534.367327 577.265502 
L 535.167108 578.067196 
L 535.966889 576.861686 
L 536.76667 576.115418 
L 539.166013 574.664451 
L 539.965794 575.359252 
L 540.765575 575.014821 
L 541.565356 575.208811 
L 542.365137 575.204852 
L 544.76448 573.888491 
L 545.564261 570.313531 
L 546.364042 570.180905 
L 547.163823 568.793282 
L 547.963604 570.174966 
L 550.362946 570.612434 
L 551.162727 570.117561 
L 551.962508 570.196741 
L 552.762289 570.604516 
L 553.56207 570.438238 
L 555.961413 569.359416 
L 556.761194 567.195833 
L 557.560975 561.985813 
L 558.360756 564.466115 
L 559.160537 564.747203 
L 561.55988 560.40222 
L 562.35966 557.33401 
L 563.159441 558.860197 
L 563.959222 559.368926 
L 567.158346 548.525276 
L 567.958127 549.712971 
L 568.757908 547.515736 
L 569.557689 540.799324 
L 570.35747 541.612895 
L 572.756813 531.481861 
L 573.556594 535.856535 
L 574.356375 527.505064 
L 575.156156 538.798059 
L 575.955936 531.303707 
L 579.15506 540.747857 
L 579.954841 535.658586 
L 580.754622 524.777326 
L 581.554403 528.316655 
L 583.953746 531.101799 
L 584.753527 530.428772 
L 585.553308 531.462066 
L 586.353089 530.828629 
L 587.15287 528.433445 
L 589.552212 529.126267 
L 590.351993 525.901677 
L 591.151774 528.037547 
L 591.951555 525.840312 
L 592.751336 529.977448 
L 595.150679 529.373703 
L 595.95046 531.960898 
L 603.148488 532.92491 
L 603.948269 534.668841 
L 606.347612 537.164979 
L 607.147393 543.279626 
L 607.947174 541.692074 
L 608.746955 539.148429 
L 609.546736 537.836026 
L 611.946079 532.016323 
L 612.74586 524.395284 
L 613.545641 523.841027 
L 614.345422 524.518013 
L 615.145203 514.002958 
L 617.544545 511.045599 
L 618.344326 510.241925 
L 619.144107 508.713759 
L 619.943888 509.897494 
L 620.743669 518.157909 
L 623.143012 516.774245 
L 623.942793 517.209733 
L 624.742574 517.366113 
L 625.542355 513.432865 
L 626.342136 514.784857 
L 628.741479 514.794754 
L 629.54126 519.139736 
L 630.341041 514.448343 
L 631.140821 516.576296 
L 631.940602 520.17501 
L 634.339945 516.140808 
L 635.139726 518.177704 
L 635.939507 515.071883 
L 636.739288 514.398856 
L 637.539069 519.939451 
L 639.938412 521.366663 
L 640.738193 516.841548 
L 641.537974 504.259905 
L 642.337755 508.064486 
L 643.137536 509.945002 
L 645.536878 505.293199 
L 646.336659 504.501402 
L 647.13644 508.117932 
L 647.936221 505.788071 
L 648.736002 505.48125 
L 651.135345 498.958828 
L 651.935126 491.832662 
L 652.734907 489.853171 
L 653.534688 495.631304 
L 654.334469 496.583439 
L 656.733812 498.788592 
L 657.533593 502.563481 
L 658.333373 495.003806 
L 659.133154 498.721289 
L 659.932935 498.622315 
L 662.332278 489.556247 
L 663.132059 488.863426 
L 663.93184 486.210908 
L 664.731621 485.141983 
L 665.531402 487.675731 
L 667.930745 489.457273 
L 668.730526 486.685986 
L 669.530307 491.040865 
L 673.529211 488.366573 
L 674.328992 491.981124 
L 675.128773 489.140554 
L 675.928554 493.921024 
L 676.728335 496.345901 
L 679.127678 494.609887 
L 679.927459 495.839151 
L 680.72724 494.406 
L 681.527021 488.06767 
L 682.326802 489.655222 
L 684.726145 491.931636 
L 685.525926 495.989592 
L 686.325706 496.603234 
L 687.125487 488.863426 
L 687.925268 495.989592 
L 690.324611 495.039437 
L 691.124392 489.932351 
L 691.924173 487.477782 
L 692.723954 490.278762 
L 693.523735 483.320852 
L 695.923078 494.801898 
L 696.722859 495.059232 
L 697.52264 500.938319 
L 698.322421 500.5444 
L 699.122202 504.895321 
L 701.521544 499.752604 
L 702.321325 501.787521 
L 703.121106 506.498709 
L 703.920887 507.379582 
L 704.720668 506.678842 
L 713.518258 502.126014 
L 714.318039 499.736768 
L 715.11782 498.519381 
L 715.917601 506.084995 
L 718.316944 498.844018 
L 719.116725 500.186113 
L 719.916506 505.09525 
L 720.716287 501.532166 
L 721.516068 503.81254 
L 723.915411 507.670567 
L 724.715192 503.511657 
L 725.514973 501.991408 
L 726.314754 505.926636 
L 727.114535 504.497443 
L 729.513877 500.601806 
L 730.313658 504.303453 
L 731.113439 496.979338 
L 731.91322 497.929493 
L 732.713001 490.644967 
L 735.112344 493.095577 
L 735.912125 492.388899 
L 736.711906 487.398603 
L 738.311468 493.416254 
L 740.710811 495.18196 
L 741.510591 499.075618 
L 742.310372 492.650191 
L 743.110153 496.583439 
L 743.909934 491.729728 
L 747.109058 489.154411 
L 747.908839 475.573125 
L 748.70862 474.607133 
L 749.508401 466.366514 
L 751.907744 465.703384 
L 752.707525 458.775167 
L 753.507306 457.393482 
L 754.307087 451.528251 
L 755.106867 443.335139 
L 757.50621 443.533088 
L 758.305991 440.591565 
L 759.105772 436.284193 
L 759.905553 434.229482 
L 763.104677 442.141506 
L 763.904458 448.481815 
L 764.704239 444.324884 
L 765.50402 441.850521 
L 770.302705 442.147444 
L 771.102486 437.897478 
L 771.902267 436.208972 
L 774.30161 425.493989 
L 775.101391 410.081674 
L 776.700953 398.20275 
L 777.500734 403.771058 
L 779.900077 404.73507 
L 780.699858 407.704306 
L 781.499639 406.318662 
L 782.299419 414.961119 
L 783.0992 406.124672 
L 785.498543 395.233514 
L 786.298324 393.254024 
L 787.098105 391.59719 
L 787.897886 374.450841 
L 788.697667 381.741305 
L 791.09701 387.909399 
L 791.896791 375.674166 
L 792.696572 359.206783 
L 793.496353 358.217038 
L 794.296134 378.013924 
L 796.695476 382.962651 
L 797.495257 378.011945 
L 798.295038 384.544264 
L 799.094819 389.097093 
L 799.8946 384.148366 
L 802.293943 365.145255 
L 803.093724 364.533593 
L 803.893505 358.98706 
L 804.693286 340.821273 
L 807.89241 337.960909 
L 808.692191 352.276586 
L 809.491972 351.847037 
L 810.291752 349.626048 
L 811.091533 363.385488 
L 813.490876 370.093982 
L 814.290657 360.196528 
L 815.090438 369.466483 
L 815.890219 385.336061 
L 816.69 390.680686 
L 816.69 390.680686 
" clip-path="url(#p443f98a9de)" style="fill: none; stroke: #1f77b4; stroke-width: 1.5; stroke-linecap: round"/>
   </g>
   <g id="line2d_78">
    <path d="M 108.084085 596.932613 
L 109.683647 597.015109 
L 114.482333 596.63373 
L 116.081895 596.290833 
L 124.879485 595.922192 
L 127.278828 594.764636 
L 128.078609 594.495118 
L 130.477952 594.22468 
L 132.077514 593.612057 
L 133.677076 593.013232 
L 136.076418 592.659813 
L 139.275542 590.834376 
L 141.674885 590.402382 
L 143.274447 589.741252 
L 144.874009 589.063702 
L 148.872913 588.630629 
L 152.871818 588.270817 
L 156.070942 588.299688 
L 159.270066 588.365605 
L 160.069847 588.445111 
L 164.868532 588.513879 
L 166.468094 588.626235 
L 169.667218 588.595662 
L 171.26678 588.712145 
L 177.665027 588.788741 
L 178.464808 588.57071 
L 180.864151 588.335972 
L 181.663932 588.124414 
L 187.262399 587.879363 
L 188.861961 587.685086 
L 192.860865 587.517047 
L 195.260208 587.498123 
L 199.259113 587.435749 
L 200.858675 587.269987 
L 204.057798 587.291454 
L 206.457141 587.864824 
L 212.055608 588.07175 
L 216.854294 588.062505 
L 217.654074 587.903008 
L 220.053417 587.702406 
L 223.252541 586.929999 
L 226.451665 586.574404 
L 228.851008 585.894686 
L 231.25035 585.57578 
L 233.649693 584.904159 
L 234.449474 584.745008 
L 236.848817 584.498759 
L 239.24816 583.477342 
L 240.047941 583.360354 
L 244.046846 583.320863 
L 250.445093 583.774562 
L 251.244874 583.909465 
L 253.644217 584.060995 
L 256.843341 584.729865 
L 259.242683 585.06905 
L 262.441807 586.696291 
L 264.84115 587.054875 
L 267.240493 587.866566 
L 268.040274 588.015225 
L 276.038083 588.517719 
L 279.237207 589.157985 
L 282.436331 589.308031 
L 284.835674 589.63821 
L 288.034797 589.854568 
L 290.43414 590.059643 
L 295.232826 590.254227 
L 296.032607 590.385072 
L 299.231731 590.486521 
L 300.831292 590.24819 
L 301.631073 590.039947 
L 304.030416 589.562692 
L 310.428664 588.801281 
L 312.828007 587.045374 
L 315.227349 586.448261 
L 316.826911 585.408236 
L 317.626692 584.972055 
L 318.426473 584.360195 
L 320.825816 583.796337 
L 322.425378 582.840441 
L 324.02494 581.905824 
L 327.224064 581.282779 
L 328.823625 580.960122 
L 329.623406 580.889554 
L 332.022749 581.005453 
L 332.82253 581.377003 
L 334.422092 581.784085 
L 335.221873 581.956598 
L 339.220778 582.152568 
L 340.020559 582.169294 
L 340.82034 582.441474 
L 343.219682 582.767694 
L 344.019463 583.116085 
L 346.418806 583.763378 
L 349.61793 584.178774 
L 352.017273 584.622081 
L 354.416616 584.732141 
L 356.815958 585.191482 
L 357.615739 585.297385 
L 360.015082 585.493354 
L 363.214206 586.359975 
L 366.41333 586.538327 
L 368.012892 586.750826 
L 368.812673 586.802094 
L 372.811577 586.619387 
L 374.411139 586.360767 
L 377.610263 586.433414 
L 385.608072 586.80061 
L 388.807196 587.045572 
L 389.606977 587.198487 
L 393.605882 587.416429 
L 394.405663 587.545393 
L 396.005225 587.613191 
L 396.805005 587.737404 
L 399.204348 587.955445 
L 406.402377 588.281368 
L 408.001939 588.64599 
L 411.201062 588.907085 
L 413.600405 589.368603 
L 422.397996 589.388002 
L 423.197777 589.460649 
L 424.797338 589.96245 
L 428.796243 590.285404 
L 430.395805 590.298964 
L 433.594929 590.476722 
L 435.994272 590.660914 
L 439.993176 590.91122 
L 446.391424 591.573261 
L 451.98989 591.834851 
L 455.189014 592.103468 
L 458.388138 593.181102 
L 460.787481 593.4033 
L 463.186824 594.218158 
L 463.986605 594.474106 
L 466.385947 594.684526 
L 468.78529 595.288666 
L 469.585071 595.425746 
L 472.784195 595.718414 
L 473.583976 595.868063 
L 479.182442 596.069377 
L 480.782004 595.63478 
L 483.981128 595.197115 
L 486.380471 594.699669 
L 488.779814 594.528542 
L 491.179157 594.051385 
L 491.978938 593.934595 
L 495.977842 593.686961 
L 497.577404 593.469118 
L 501.576309 593.281858 
L 503.175871 593.052336 
L 506.374995 592.812323 
L 507.974556 592.523713 
L 508.774337 592.300724 
L 511.17368 592.075656 
L 512.773242 591.549309 
L 514.372804 590.870245 
L 516.772147 590.516708 
L 519.17149 589.457284 
L 519.971271 589.022192 
L 522.370613 588.499508 
L 523.970175 587.54767 
L 525.569737 586.791702 
L 527.96908 586.523481 
L 530.368423 585.469204 
L 531.168204 585.180892 
L 533.567547 584.886442 
L 535.167108 583.875417 
L 536.76667 582.888938 
L 539.166013 582.286579 
L 541.565356 580.553139 
L 542.365137 580.08974 
L 544.76448 579.634359 
L 546.364042 578.285336 
L 547.963604 576.835062 
L 550.362946 576.109875 
L 553.56207 573.564745 
L 555.961413 572.922103 
L 556.761194 572.41862 
L 557.560975 571.614551 
L 559.160537 570.426362 
L 561.55988 569.71325 
L 563.159441 568.004257 
L 564.759003 566.285069 
L 567.158346 565.016908 
L 568.757908 562.853622 
L 570.35747 560.02582 
L 572.756813 558.069292 
L 573.556594 556.35624 
L 574.356375 554.221657 
L 575.156156 552.631334 
L 575.955936 550.674607 
L 578.355279 549.138126 
L 579.954841 546.499366 
L 581.554403 542.6934 
L 583.953746 541.228378 
L 587.15287 535.674818 
L 589.552212 534.704868 
L 590.351993 533.514303 
L 591.151774 532.540394 
L 591.951555 531.792443 
L 592.751336 531.210671 
L 595.150679 531.105263 
L 595.95046 530.910481 
L 603.148488 531.181473 
L 603.948269 530.975012 
L 606.347612 531.268076 
L 607.147393 531.500567 
L 607.947174 531.547778 
L 608.746955 531.72227 
L 609.546736 532.375205 
L 611.946079 532.560189 
L 614.345422 531.548273 
L 615.145203 530.706989 
L 617.544545 529.837597 
L 619.943888 527.126981 
L 620.743669 526.742861 
L 623.143012 526.082701 
L 624.742574 524.744763 
L 626.342136 522.775962 
L 628.741479 521.657451 
L 631.140821 517.959663 
L 631.940602 517.076612 
L 635.139726 515.971957 
L 636.739288 515.027542 
L 637.539069 515.324367 
L 639.938412 515.84042 
L 640.738193 516.170401 
L 641.537974 515.947709 
L 642.337755 515.856058 
L 643.137536 515.445413 
L 645.536878 514.87136 
L 646.336659 514.235944 
L 648.736002 512.926115 
L 651.135345 512.134319 
L 652.734907 509.539206 
L 654.334469 507.312378 
L 656.733812 506.444767 
L 657.533593 505.664056 
L 658.333373 504.660652 
L 659.133154 503.876774 
L 659.932935 502.810917 
L 662.332278 501.220397 
L 663.132059 499.82149 
L 663.93184 498.919041 
L 665.531402 496.659452 
L 667.930745 495.867656 
L 669.530307 494.123031 
L 673.529211 493.251957 
L 674.328992 492.57695 
L 675.128773 492.086037 
L 675.928554 492.190455 
L 676.728335 492.515091 
L 679.927459 492.426806 
L 680.72724 492.207676 
L 681.527021 491.482886 
L 682.326802 491.215457 
L 685.525926 490.744338 
L 686.325706 491.096687 
L 687.125487 491.096687 
L 687.925268 491.585621 
L 691.124392 492.193325 
L 691.924173 492.09435 
L 692.723954 492.273989 
L 693.523735 491.887988 
L 696.722859 492.36366 
L 697.52264 492.953548 
L 699.122202 493.712188 
L 701.521544 493.969324 
L 702.321325 494.266743 
L 703.121106 494.871378 
L 704.720668 496.688155 
L 713.518258 497.197873 
L 715.11782 497.48104 
L 715.917601 498.342118 
L 718.316944 498.484839 
L 719.116725 498.742173 
L 721.516068 500.879726 
L 725.514973 502.879309 
L 727.114535 503.326377 
L 729.513877 503.111701 
L 730.313658 503.339243 
L 731.113439 503.098834 
L 731.91322 502.670373 
L 732.713001 501.833643 
L 735.112344 501.154479 
L 737.511687 499.63522 
L 738.311468 499.001783 
L 741.510591 498.763156 
L 742.310372 498.140903 
L 743.110153 497.893466 
L 743.909934 497.289326 
L 747.109058 496.363518 
L 748.70862 493.597378 
L 749.508401 491.619372 
L 751.907744 489.679669 
L 753.507306 485.242838 
L 754.307087 482.970284 
L 755.106867 480.240566 
L 757.50621 477.884972 
L 760.705334 467.096154 
L 763.104677 464.532416 
L 763.904458 462.197409 
L 765.50402 456.919889 
L 770.302705 454.198089 
L 771.902267 448.859205 
L 774.30161 446.355248 
L 777.500734 433.880596 
L 779.900077 431.247676 
L 780.699858 429.056478 
L 781.499639 427.205655 
L 782.299419 425.777056 
L 783.0992 424.053712 
L 785.498543 422.001178 
L 787.098105 417.721717 
L 788.697667 411.000158 
L 791.09701 408.179384 
L 791.896791 404.870566 
L 793.496353 396.739511 
L 794.296134 393.829758 
L 796.695476 391.703192 
L 797.495257 390.099705 
L 798.295038 389.131734 
L 799.094819 388.676451 
L 799.8946 387.695317 
L 802.293943 385.715826 
L 803.893505 381.19071 
L 804.693286 377.483718 
L 807.89241 374.07553 
L 810.291752 367.758777 
L 811.091533 367.205509 
L 813.490876 366.623143 
L 814.290657 365.2375 
L 815.090438 364.927115 
L 815.890219 366.233579 
L 816.69 367.856762 
L 816.69 367.856762 
" clip-path="url(#p443f98a9de)" style="fill: none; stroke: #ff7f0e; stroke-width: 2; stroke-linecap: round"/>
   </g>
   <g id="patch_8">
    <path d="M 49.98 610.98 
L 49.98 324.96 
" style="fill: none; stroke: #cccccc; stroke-linejoin: miter; stroke-linecap: square"/>
   </g>
   <g id="patch_9">
    <path d="M 853.2 610.98 
L 853.2 324.96 
" style="fill: none; stroke: #cccccc; stroke-linejoin: miter; stroke-linecap: square"/>
   </g>
   <g id="patch_10">
    <path d="M 49.98 610.98 
L 853.2 610.98 
" style="fill: none; stroke: #cccccc; stroke-linejoin: miter; stroke-linecap: square"/>
   </g>
   <g id="patch_11">
    <path d="M 49.98 324.96 
L 853.2 324.96 
" style="fill: none; stroke: #cccccc; stroke-linejoin: miter; stroke-linecap: square"/>
   </g>
   <g id="legend_2">
    <g id="line2d_79">
     <path d="M 58.98 337.739687 
L 68.98 337.739687 
L 78.98 337.739687 
" style="fill: none; stroke: #1f77b4; stroke-width: 1.5; stroke-linecap: round"/>
    </g>
    <g id="text_32">
     <!-- Zhongji Xuchuang Close -->
     <g style="fill: #262626" transform="translate(86.98 341.239687) scale(0.1 -0.1)">
      <defs>
       <path id="ArialMT-5a" d="M 128 0 
L 128 563 
L 2475 3497 
Q 2725 3809 2950 4041 
L 394 4041 
L 394 4581 
L 3675 4581 
L 3675 4041 
L 1103 863 
L 825 541 
L 3750 541 
L 3750 0 
L 128 0 
z
" transform="scale(0.015625)"/>
       <path id="ArialMT-6a" d="M 419 3928 
L 419 4581 
L 981 4581 
L 981 3928 
L 419 3928 
z
M -294 -1288 
L -188 -809 
Q -19 -853 78 -853 
Q 250 -853 334 -739 
Q 419 -625 419 -169 
L 419 3319 
L 981 3319 
L 981 -181 
Q 981 -794 822 -1034 
Q 619 -1347 147 -1347 
Q -81 -1347 -294 -1288 
z
" transform="scale(0.015625)"/>
       <path id="ArialMT-58" d="M 28 0 
L 1800 2388 
L 238 4581 
L 959 4581 
L 1791 3406 
Q 2050 3041 2159 2844 
Q 2313 3094 2522 3366 
L 3444 4581 
L 4103 4581 
L 2494 2422 
L 4228 0 
L 3478 0 
L 2325 1634 
Q 2228 1775 2125 1941 
Q 1972 1691 1906 1597 
L 756 0 
L 28 0 
z
" transform="scale(0.015625)"/>
      </defs>
      <use xlink:href="#ArialMT-5a"/>
      <use xlink:href="#ArialMT-68" transform="translate(61.083984 0)"/>
      <use xlink:href="#ArialMT-6f" transform="translate(116.699219 0)"/>
      <use xlink:href="#ArialMT-6e" transform="translate(172.314453 0)"/>
      <use xlink:href="#ArialMT-67" transform="translate(227.929688 0)"/>
      <use xlink:href="#ArialMT-6a" transform="translate(283.544922 0)"/>
      <use xlink:href="#ArialMT-69" transform="translate(305.761719 0)"/>
      <use xlink:href="#ArialMT-20" transform="translate(327.978516 0)"/>
      <use xlink:href="#ArialMT-58" transform="translate(355.761719 0)"/>
      <use xlink:href="#ArialMT-75" transform="translate(422.460938 0)"/>
      <use xlink:href="#ArialMT-63" transform="translate(478.076172 0)"/>
      <use xlink:href="#ArialMT-68" transform="translate(528.076172 0)"/>
      <use xlink:href="#ArialMT-75" transform="translate(583.691406 0)"/>
      <use xlink:href="#ArialMT-61" transform="translate(639.306641 0)"/>
      <use xlink:href="#ArialMT-6e" transform="translate(694.921875 0)"/>
      <use xlink:href="#ArialMT-67" transform="translate(750.537109 0)"/>
      <use xlink:href="#ArialMT-20" transform="translate(806.152344 0)"/>
      <use xlink:href="#ArialMT-43" transform="translate(833.935547 0)"/>
      <use xlink:href="#ArialMT-6c" transform="translate(906.152344 0)"/>
      <use xlink:href="#ArialMT-6f" transform="translate(928.369141 0)"/>
      <use xlink:href="#ArialMT-73" transform="translate(983.984375 0)"/>
      <use xlink:href="#ArialMT-65" transform="translate(1033.984375 0)"/>
     </g>
    </g>
    <g id="line2d_80">
     <path d="M 58.98 352.031875 
L 68.98 352.031875 
L 78.98 352.031875 
" style="fill: none; stroke: #ff7f0e; stroke-width: 2; stroke-linecap: round"/>
    </g>
    <g id="text_33">
     <!-- Zhongji Xuchuang 20D MA -->
     <g style="fill: #262626" transform="translate(86.98 355.531875) scale(0.1 -0.1)">
      <use xlink:href="#ArialMT-5a"/>
      <use xlink:href="#ArialMT-68" transform="translate(61.083984 0)"/>
      <use xlink:href="#ArialMT-6f" transform="translate(116.699219 0)"/>
      <use xlink:href="#ArialMT-6e" transform="translate(172.314453 0)"/>
      <use xlink:href="#ArialMT-67" transform="translate(227.929688 0)"/>
      <use xlink:href="#ArialMT-6a" transform="translate(283.544922 0)"/>
      <use xlink:href="#ArialMT-69" transform="translate(305.761719 0)"/>
      <use xlink:href="#ArialMT-20" transform="translate(327.978516 0)"/>
      <use xlink:href="#ArialMT-58" transform="translate(355.761719 0)"/>
      <use xlink:href="#ArialMT-75" transform="translate(422.460938 0)"/>
      <use xlink:href="#ArialMT-63" transform="translate(478.076172 0)"/>
      <use xlink:href="#ArialMT-68" transform="translate(528.076172 0)"/>
      <use xlink:href="#ArialMT-75" transform="translate(583.691406 0)"/>
      <use xlink:href="#ArialMT-61" transform="translate(639.306641 0)"/>
      <use xlink:href="#ArialMT-6e" transform="translate(694.921875 0)"/>
      <use xlink:href="#ArialMT-67" transform="translate(750.537109 0)"/>
      <use xlink:href="#ArialMT-20" transform="translate(806.152344 0)"/>
      <use xlink:href="#ArialMT-32" transform="translate(833.935547 0)"/>
      <use xlink:href="#ArialMT-30" transform="translate(889.550781 0)"/>
      <use xlink:href="#ArialMT-44" transform="translate(945.166016 0)"/>
      <use xlink:href="#ArialMT-20" transform="translate(1017.382812 0)"/>
      <use xlink:href="#ArialMT-4d" transform="translate(1045.166016 0)"/>
      <use xlink:href="#ArialMT-41" transform="translate(1128.466797 0)"/>
     </g>
    </g>
   </g>
  </g>
 </g>
 <defs>
  <clipPath id="pa436b37764">
   <rect x="49.98" y="28.14" width="803.22" height="286.02"/>
  </clipPath>
  <clipPath id="p443f98a9de">
   <rect x="49.98" y="324.96" width="803.22" height="286.02"/>
  </clipPath>
 </defs>
</svg>
