<?xml version="1.0" encoding="utf-8" standalone="no"?>
<!DOCTYPE svg PUBLIC "-//W3C//DTD SVG 1.1//EN"
  "http://www.w3.org/Graphics/SVG/1.1/DTD/svg11.dtd">
<svg xmlns:xlink="http://www.w3.org/1999/xlink" width="864pt" height="432pt" viewBox="0 0 864 432" xmlns="http://www.w3.org/2000/svg" version="1.1">
 <metadata>
  <rdf:RDF xmlns:dc="http://purl.org/dc/elements/1.1/" xmlns:cc="http://creativecommons.org/ns#" xmlns:rdf="http://www.w3.org/1999/02/22-rdf-syntax-ns#">
   <cc:Work>
    <dc:type rdf:resource="http://purl.org/dc/dcmitype/StillImage"/>
    <dc:date>2026-07-04T20:17:26.994172</dc:date>
    <dc:format>image/svg+xml</dc:format>
    <dc:creator>
     <cc:Agent>
      <dc:title>Matplotlib v3.10.6, https://matplotlib.org/</dc:title>
     </cc:Agent>
    </dc:creator>
   </cc:Work>
  </rdf:RDF>
 </metadata>
 <defs>
  <style type="text/css">*{stroke-linejoin: round; stroke-linecap: butt}</style>
 </defs>
 <g id="figure_1">
  <g id="patch_1">
   <path d="M 0 432 
L 864 432 
L 864 0 
L 0 0 
z
" style="fill: #ffffff"/>
  </g>
  <g id="axes_1">
   <g id="patch_2">
    <path d="M 49.98 394.98 
L 853.2 394.98 
L 853.2 28.14 
L 49.98 28.14 
z
" style="fill: #ffffff"/>
   </g>
   <g id="matplotlib.axis_1">
    <g id="xtick_1">
     <g id="line2d_1">
      <path d="M 85.690219 394.98 
L 85.690219 28.14 
" clip-path="url(#p0cb62b6e57)" style="fill: none; stroke: #cccccc; stroke-width: 0.8; stroke-linecap: round"/>
     </g>
     <g id="line2d_2"/>
     <g id="text_1">
      <!-- 2024-01 -->
      <g style="fill: #262626" transform="translate(67.342563 405.637812) scale(0.1 -0.1)">
       <defs>
        <path id="ArialMT-32" d="M 3222 541 
L 3222 0 
L 194 0 
Q 188 203 259 391 
Q 375 700 629 1000 
Q 884 1300 1366 1694 
Q 2113 2306 2375 2664 
Q 2638 3022 2638 3341 
Q 2638 3675 2398 3904 
Q 2159 4134 1775 4134 
Q 1369 4134 1125 3890 
Q 881 3647 878 3216 
L 300 3275 
Q 359 3922 746 4261 
Q 1134 4600 1788 4600 
Q 2447 4600 2831 4234 
Q 3216 3869 3216 3328 
Q 3216 3053 3103 2787 
Q 2991 2522 2730 2228 
Q 2469 1934 1863 1422 
Q 1356 997 1212 845 
Q 1069 694 975 541 
L 3222 541 
z
" transform="scale(0.015625)"/>
        <path id="ArialMT-30" d="M 266 2259 
Q 266 3072 433 3567 
Q 600 4063 929 4331 
Q 1259 4600 1759 4600 
Q 2128 4600 2406 4451 
Q 2684 4303 2865 4023 
Q 3047 3744 3150 3342 
Q 3253 2941 3253 2259 
Q 3253 1453 3087 958 
Q 2922 463 2592 192 
Q 2263 -78 1759 -78 
Q 1097 -78 719 397 
Q 266 969 266 2259 
z
M 844 2259 
Q 844 1131 1108 757 
Q 1372 384 1759 384 
Q 2147 384 2411 759 
Q 2675 1134 2675 2259 
Q 2675 3391 2411 3762 
Q 2147 4134 1753 4134 
Q 1366 4134 1134 3806 
Q 844 3388 844 2259 
z
" transform="scale(0.015625)"/>
        <path id="ArialMT-34" d="M 2069 0 
L 2069 1097 
L 81 1097 
L 81 1613 
L 2172 4581 
L 2631 4581 
L 2631 1613 
L 3250 1613 
L 3250 1097 
L 2631 1097 
L 2631 0 
L 2069 0 
z
M 2069 1613 
L 2069 3678 
L 634 1613 
L 2069 1613 
z
" transform="scale(0.015625)"/>
        <path id="ArialMT-2d" d="M 203 1375 
L 203 1941 
L 1931 1941 
L 1931 1375 
L 203 1375 
z
" transform="scale(0.015625)"/>
        <path id="ArialMT-31" d="M 2384 0 
L 1822 0 
L 1822 3584 
Q 1619 3391 1289 3197 
Q 959 3003 697 2906 
L 697 3450 
Q 1169 3672 1522 3987 
Q 1875 4303 2022 4600 
L 2384 4600 
L 2384 0 
z
" transform="scale(0.015625)"/>
       </defs>
       <use xlink:href="#ArialMT-32"/>
       <use xlink:href="#ArialMT-30" transform="translate(55.615234 0)"/>
       <use xlink:href="#ArialMT-32" transform="translate(111.230469 0)"/>
       <use xlink:href="#ArialMT-34" transform="translate(166.845703 0)"/>
       <use xlink:href="#ArialMT-2d" transform="translate(222.460938 0)"/>
       <use xlink:href="#ArialMT-30" transform="translate(255.761719 0)"/>
       <use xlink:href="#ArialMT-31" transform="translate(311.376953 0)"/>
      </g>
     </g>
    </g>
    <g id="xtick_2">
     <g id="line2d_3">
      <path d="M 158.470285 394.98 
L 158.470285 28.14 
" clip-path="url(#p0cb62b6e57)" style="fill: none; stroke: #cccccc; stroke-width: 0.8; stroke-linecap: round"/>
     </g>
     <g id="line2d_4"/>
     <g id="text_2">
      <!-- 2024-04 -->
      <g style="fill: #262626" transform="translate(140.122629 405.637812) scale(0.1 -0.1)">
       <use xlink:href="#ArialMT-32"/>
       <use xlink:href="#ArialMT-30" transform="translate(55.615234 0)"/>
       <use xlink:href="#ArialMT-32" transform="translate(111.230469 0)"/>
       <use xlink:href="#ArialMT-34" transform="translate(166.845703 0)"/>
       <use xlink:href="#ArialMT-2d" transform="translate(222.460938 0)"/>
       <use xlink:href="#ArialMT-30" transform="translate(255.761719 0)"/>
       <use xlink:href="#ArialMT-34" transform="translate(311.376953 0)"/>
      </g>
     </g>
    </g>
    <g id="xtick_3">
     <g id="line2d_5">
      <path d="M 231.25035 394.98 
L 231.25035 28.14 
" clip-path="url(#p0cb62b6e57)" style="fill: none; stroke: #cccccc; stroke-width: 0.8; stroke-linecap: round"/>
     </g>
     <g id="line2d_6"/>
     <g id="text_3">
      <!-- 2024-07 -->
      <g style="fill: #262626" transform="translate(212.902694 405.637812) scale(0.1 -0.1)">
       <defs>
        <path id="ArialMT-37" d="M 303 3981 
L 303 4522 
L 3269 4522 
L 3269 4084 
Q 2831 3619 2401 2847 
Q 1972 2075 1738 1259 
Q 1569 684 1522 0 
L 944 0 
Q 953 541 1156 1306 
Q 1359 2072 1739 2783 
Q 2119 3494 2547 3981 
L 303 3981 
z
" transform="scale(0.015625)"/>
       </defs>
       <use xlink:href="#ArialMT-32"/>
       <use xlink:href="#ArialMT-30" transform="translate(55.615234 0)"/>
       <use xlink:href="#ArialMT-32" transform="translate(111.230469 0)"/>
       <use xlink:href="#ArialMT-34" transform="translate(166.845703 0)"/>
       <use xlink:href="#ArialMT-2d" transform="translate(222.460938 0)"/>
       <use xlink:href="#ArialMT-30" transform="translate(255.761719 0)"/>
       <use xlink:href="#ArialMT-37" transform="translate(311.376953 0)"/>
      </g>
     </g>
    </g>
    <g id="xtick_4">
     <g id="line2d_7">
      <path d="M 304.830197 394.98 
L 304.830197 28.14 
" clip-path="url(#p0cb62b6e57)" style="fill: none; stroke: #cccccc; stroke-width: 0.8; stroke-linecap: round"/>
     </g>
     <g id="line2d_8"/>
     <g id="text_4">
      <!-- 2024-10 -->
      <g style="fill: #262626" transform="translate(286.482541 405.637812) scale(0.1 -0.1)">
       <use xlink:href="#ArialMT-32"/>
       <use xlink:href="#ArialMT-30" transform="translate(55.615234 0)"/>
       <use xlink:href="#ArialMT-32" transform="translate(111.230469 0)"/>
       <use xlink:href="#ArialMT-34" transform="translate(166.845703 0)"/>
       <use xlink:href="#ArialMT-2d" transform="translate(222.460938 0)"/>
       <use xlink:href="#ArialMT-31" transform="translate(255.761719 0)"/>
       <use xlink:href="#ArialMT-30" transform="translate(311.376953 0)"/>
      </g>
     </g>
    </g>
    <g id="xtick_5">
     <g id="line2d_9">
      <path d="M 378.410044 394.98 
L 378.410044 28.14 
" clip-path="url(#p0cb62b6e57)" style="fill: none; stroke: #cccccc; stroke-width: 0.8; stroke-linecap: round"/>
     </g>
     <g id="line2d_10"/>
     <g id="text_5">
      <!-- 2025-01 -->
      <g style="fill: #262626" transform="translate(360.062388 405.637812) scale(0.1 -0.1)">
       <defs>
        <path id="ArialMT-35" d="M 266 1200 
L 856 1250 
Q 922 819 1161 601 
Q 1400 384 1738 384 
Q 2144 384 2425 690 
Q 2706 997 2706 1503 
Q 2706 1984 2436 2262 
Q 2166 2541 1728 2541 
Q 1456 2541 1237 2417 
Q 1019 2294 894 2097 
L 366 2166 
L 809 4519 
L 3088 4519 
L 3088 3981 
L 1259 3981 
L 1013 2750 
Q 1425 3038 1878 3038 
Q 2478 3038 2890 2622 
Q 3303 2206 3303 1553 
Q 3303 931 2941 478 
Q 2500 -78 1738 -78 
Q 1113 -78 717 272 
Q 322 622 266 1200 
z
" transform="scale(0.015625)"/>
       </defs>
       <use xlink:href="#ArialMT-32"/>
       <use xlink:href="#ArialMT-30" transform="translate(55.615234 0)"/>
       <use xlink:href="#ArialMT-32" transform="translate(111.230469 0)"/>
       <use xlink:href="#ArialMT-35" transform="translate(166.845703 0)"/>
       <use xlink:href="#ArialMT-2d" transform="translate(222.460938 0)"/>
       <use xlink:href="#ArialMT-30" transform="translate(255.761719 0)"/>
       <use xlink:href="#ArialMT-31" transform="translate(311.376953 0)"/>
      </g>
     </g>
    </g>
    <g id="xtick_6">
     <g id="line2d_11">
      <path d="M 450.390329 394.98 
L 450.390329 28.14 
" clip-path="url(#p0cb62b6e57)" style="fill: none; stroke: #cccccc; stroke-width: 0.8; stroke-linecap: round"/>
     </g>
     <g id="line2d_12"/>
     <g id="text_6">
      <!-- 2025-04 -->
      <g style="fill: #262626" transform="translate(432.042672 405.637812) scale(0.1 -0.1)">
       <use xlink:href="#ArialMT-32"/>
       <use xlink:href="#ArialMT-30" transform="translate(55.615234 0)"/>
       <use xlink:href="#ArialMT-32" transform="translate(111.230469 0)"/>
       <use xlink:href="#ArialMT-35" transform="translate(166.845703 0)"/>
       <use xlink:href="#ArialMT-2d" transform="translate(222.460938 0)"/>
       <use xlink:href="#ArialMT-30" transform="translate(255.761719 0)"/>
       <use xlink:href="#ArialMT-34" transform="translate(311.376953 0)"/>
      </g>
     </g>
    </g>
    <g id="xtick_7">
     <g id="line2d_13">
      <path d="M 523.170394 394.98 
L 523.170394 28.14 
" clip-path="url(#p0cb62b6e57)" style="fill: none; stroke: #cccccc; stroke-width: 0.8; stroke-linecap: round"/>
     </g>
     <g id="line2d_14"/>
     <g id="text_7">
      <!-- 2025-07 -->
      <g style="fill: #262626" transform="translate(504.822738 405.637812) scale(0.1 -0.1)">
       <use xlink:href="#ArialMT-32"/>
       <use xlink:href="#ArialMT-30" transform="translate(55.615234 0)"/>
       <use xlink:href="#ArialMT-32" transform="translate(111.230469 0)"/>
       <use xlink:href="#ArialMT-35" transform="translate(166.845703 0)"/>
       <use xlink:href="#ArialMT-2d" transform="translate(222.460938 0)"/>
       <use xlink:href="#ArialMT-30" transform="translate(255.761719 0)"/>
       <use xlink:href="#ArialMT-37" transform="translate(311.376953 0)"/>
      </g>
     </g>
    </g>
    <g id="xtick_8">
     <g id="line2d_15">
      <path d="M 596.750241 394.98 
L 596.750241 28.14 
" clip-path="url(#p0cb62b6e57)" style="fill: none; stroke: #cccccc; stroke-width: 0.8; stroke-linecap: round"/>
     </g>
     <g id="line2d_16"/>
     <g id="text_8">
      <!-- 2025-10 -->
      <g style="fill: #262626" transform="translate(578.402585 405.637812) scale(0.1 -0.1)">
       <use xlink:href="#ArialMT-32"/>
       <use xlink:href="#ArialMT-30" transform="translate(55.615234 0)"/>
       <use xlink:href="#ArialMT-32" transform="translate(111.230469 0)"/>
       <use xlink:href="#ArialMT-35" transform="translate(166.845703 0)"/>
       <use xlink:href="#ArialMT-2d" transform="translate(222.460938 0)"/>
       <use xlink:href="#ArialMT-31" transform="translate(255.761719 0)"/>
       <use xlink:href="#ArialMT-30" transform="translate(311.376953 0)"/>
      </g>
     </g>
    </g>
    <g id="xtick_9">
     <g id="line2d_17">
      <path d="M 670.330088 394.98 
L 670.330088 28.14 
" clip-path="url(#p0cb62b6e57)" style="fill: none; stroke: #cccccc; stroke-width: 0.8; stroke-linecap: round"/>
     </g>
     <g id="line2d_18"/>
     <g id="text_9">
      <!-- 2026-01 -->
      <g style="fill: #262626" transform="translate(651.982431 405.637812) scale(0.1 -0.1)">
       <defs>
        <path id="ArialMT-36" d="M 3184 3459 
L 2625 3416 
Q 2550 3747 2413 3897 
Q 2184 4138 1850 4138 
Q 1581 4138 1378 3988 
Q 1113 3794 959 3422 
Q 806 3050 800 2363 
Q 1003 2672 1297 2822 
Q 1591 2972 1913 2972 
Q 2475 2972 2870 2558 
Q 3266 2144 3266 1488 
Q 3266 1056 3080 686 
Q 2894 316 2569 119 
Q 2244 -78 1831 -78 
Q 1128 -78 684 439 
Q 241 956 241 2144 
Q 241 3472 731 4075 
Q 1159 4600 1884 4600 
Q 2425 4600 2770 4297 
Q 3116 3994 3184 3459 
z
M 888 1484 
Q 888 1194 1011 928 
Q 1134 663 1356 523 
Q 1578 384 1822 384 
Q 2178 384 2434 671 
Q 2691 959 2691 1453 
Q 2691 1928 2437 2201 
Q 2184 2475 1800 2475 
Q 1419 2475 1153 2201 
Q 888 1928 888 1484 
z
" transform="scale(0.015625)"/>
       </defs>
       <use xlink:href="#ArialMT-32"/>
       <use xlink:href="#ArialMT-30" transform="translate(55.615234 0)"/>
       <use xlink:href="#ArialMT-32" transform="translate(111.230469 0)"/>
       <use xlink:href="#ArialMT-36" transform="translate(166.845703 0)"/>
       <use xlink:href="#ArialMT-2d" transform="translate(222.460938 0)"/>
       <use xlink:href="#ArialMT-30" transform="translate(255.761719 0)"/>
       <use xlink:href="#ArialMT-31" transform="translate(311.376953 0)"/>
      </g>
     </g>
    </g>
    <g id="xtick_10">
     <g id="line2d_19">
      <path d="M 742.310372 394.98 
L 742.310372 28.14 
" clip-path="url(#p0cb62b6e57)" style="fill: none; stroke: #cccccc; stroke-width: 0.8; stroke-linecap: round"/>
     </g>
     <g id="line2d_20"/>
     <g id="text_10">
      <!-- 2026-04 -->
      <g style="fill: #262626" transform="translate(723.962716 405.637812) scale(0.1 -0.1)">
       <use xlink:href="#ArialMT-32"/>
       <use xlink:href="#ArialMT-30" transform="translate(55.615234 0)"/>
       <use xlink:href="#ArialMT-32" transform="translate(111.230469 0)"/>
       <use xlink:href="#ArialMT-36" transform="translate(166.845703 0)"/>
       <use xlink:href="#ArialMT-2d" transform="translate(222.460938 0)"/>
       <use xlink:href="#ArialMT-30" transform="translate(255.761719 0)"/>
       <use xlink:href="#ArialMT-34" transform="translate(311.376953 0)"/>
      </g>
     </g>
    </g>
    <g id="xtick_11">
     <g id="line2d_21">
      <path d="M 815.090438 394.98 
L 815.090438 28.14 
" clip-path="url(#p0cb62b6e57)" style="fill: none; stroke: #cccccc; stroke-width: 0.8; stroke-linecap: round"/>
     </g>
     <g id="line2d_22"/>
     <g id="text_11">
      <!-- 2026-07 -->
      <g style="fill: #262626" transform="translate(796.742782 405.637812) scale(0.1 -0.1)">
       <use xlink:href="#ArialMT-32"/>
       <use xlink:href="#ArialMT-30" transform="translate(55.615234 0)"/>
       <use xlink:href="#ArialMT-32" transform="translate(111.230469 0)"/>
       <use xlink:href="#ArialMT-36" transform="translate(166.845703 0)"/>
       <use xlink:href="#ArialMT-2d" transform="translate(222.460938 0)"/>
       <use xlink:href="#ArialMT-30" transform="translate(255.761719 0)"/>
       <use xlink:href="#ArialMT-37" transform="translate(311.376953 0)"/>
      </g>
     </g>
    </g>
    <g id="text_12">
     <!-- Date -->
     <g style="fill: #262626" transform="translate(441.029063 418.783125) scale(0.1 -0.1)">
      <defs>
       <path id="ArialMT-44" d="M 494 0 
L 494 4581 
L 2072 4581 
Q 2606 4581 2888 4516 
Q 3281 4425 3559 4188 
Q 3922 3881 4101 3404 
Q 4281 2928 4281 2316 
Q 4281 1794 4159 1391 
Q 4038 988 3847 723 
Q 3656 459 3429 307 
Q 3203 156 2883 78 
Q 2563 0 2147 0 
L 494 0 
z
M 1100 541 
L 2078 541 
Q 2531 541 2789 625 
Q 3047 709 3200 863 
Q 3416 1078 3536 1442 
Q 3656 1806 3656 2325 
Q 3656 3044 3420 3430 
Q 3184 3816 2847 3947 
Q 2603 4041 2063 4041 
L 1100 4041 
L 1100 541 
z
" transform="scale(0.015625)"/>
       <path id="ArialMT-61" d="M 2588 409 
Q 2275 144 1986 34 
Q 1697 -75 1366 -75 
Q 819 -75 525 192 
Q 231 459 231 875 
Q 231 1119 342 1320 
Q 453 1522 633 1644 
Q 813 1766 1038 1828 
Q 1203 1872 1538 1913 
Q 2219 1994 2541 2106 
Q 2544 2222 2544 2253 
Q 2544 2597 2384 2738 
Q 2169 2928 1744 2928 
Q 1347 2928 1158 2789 
Q 969 2650 878 2297 
L 328 2372 
Q 403 2725 575 2942 
Q 747 3159 1072 3276 
Q 1397 3394 1825 3394 
Q 2250 3394 2515 3294 
Q 2781 3194 2906 3042 
Q 3031 2891 3081 2659 
Q 3109 2516 3109 2141 
L 3109 1391 
Q 3109 606 3145 398 
Q 3181 191 3288 0 
L 2700 0 
Q 2613 175 2588 409 
z
M 2541 1666 
Q 2234 1541 1622 1453 
Q 1275 1403 1131 1340 
Q 988 1278 909 1158 
Q 831 1038 831 891 
Q 831 666 1001 516 
Q 1172 366 1500 366 
Q 1825 366 2078 508 
Q 2331 650 2450 897 
Q 2541 1088 2541 1459 
L 2541 1666 
z
" transform="scale(0.015625)"/>
       <path id="ArialMT-74" d="M 1650 503 
L 1731 6 
Q 1494 -44 1306 -44 
Q 1000 -44 831 53 
Q 663 150 594 308 
Q 525 466 525 972 
L 525 2881 
L 113 2881 
L 113 3319 
L 525 3319 
L 525 4141 
L 1084 4478 
L 1084 3319 
L 1650 3319 
L 1650 2881 
L 1084 2881 
L 1084 941 
Q 1084 700 1114 631 
Q 1144 563 1211 522 
Q 1278 481 1403 481 
Q 1497 481 1650 503 
z
" transform="scale(0.015625)"/>
       <path id="ArialMT-65" d="M 2694 1069 
L 3275 997 
Q 3138 488 2766 206 
Q 2394 -75 1816 -75 
Q 1088 -75 661 373 
Q 234 822 234 1631 
Q 234 2469 665 2931 
Q 1097 3394 1784 3394 
Q 2450 3394 2872 2941 
Q 3294 2488 3294 1666 
Q 3294 1616 3291 1516 
L 816 1516 
Q 847 969 1125 678 
Q 1403 388 1819 388 
Q 2128 388 2347 550 
Q 2566 713 2694 1069 
z
M 847 1978 
L 2700 1978 
Q 2663 2397 2488 2606 
Q 2219 2931 1791 2931 
Q 1403 2931 1139 2672 
Q 875 2413 847 1978 
z
" transform="scale(0.015625)"/>
      </defs>
      <use xlink:href="#ArialMT-44"/>
      <use xlink:href="#ArialMT-61" transform="translate(72.216797 0)"/>
      <use xlink:href="#ArialMT-74" transform="translate(127.832031 0)"/>
      <use xlink:href="#ArialMT-65" transform="translate(155.615234 0)"/>
     </g>
    </g>
   </g>
   <g id="matplotlib.axis_2">
    <g id="ytick_1">
     <g id="line2d_23">
      <path d="M 49.98 346.567297 
L 853.2 346.567297 
" clip-path="url(#p0cb62b6e57)" style="fill: none; stroke: #cccccc; stroke-width: 0.8; stroke-linecap: round"/>
     </g>
     <g id="line2d_24"/>
     <g id="text_13">
      <!-- 250 -->
      <g style="fill: #262626" transform="translate(29.797188 350.146203) scale(0.1 -0.1)">
       <use xlink:href="#ArialMT-32"/>
       <use xlink:href="#ArialMT-35" transform="translate(55.615234 0)"/>
       <use xlink:href="#ArialMT-30" transform="translate(111.230469 0)"/>
      </g>
     </g>
    </g>
    <g id="ytick_2">
     <g id="line2d_25">
      <path d="M 49.98 297.559443 
L 853.2 297.559443 
" clip-path="url(#p0cb62b6e57)" style="fill: none; stroke: #cccccc; stroke-width: 0.8; stroke-linecap: round"/>
     </g>
     <g id="line2d_26"/>
     <g id="text_14">
      <!-- 500 -->
      <g style="fill: #262626" transform="translate(29.797188 301.13835) scale(0.1 -0.1)">
       <use xlink:href="#ArialMT-35"/>
       <use xlink:href="#ArialMT-30" transform="translate(55.615234 0)"/>
       <use xlink:href="#ArialMT-30" transform="translate(111.230469 0)"/>
      </g>
     </g>
    </g>
    <g id="ytick_3">
     <g id="line2d_27">
      <path d="M 49.98 248.55159 
L 853.2 248.55159 
" clip-path="url(#p0cb62b6e57)" style="fill: none; stroke: #cccccc; stroke-width: 0.8; stroke-linecap: round"/>
     </g>
     <g id="line2d_28"/>
     <g id="text_15">
      <!-- 750 -->
      <g style="fill: #262626" transform="translate(29.797188 252.130496) scale(0.1 -0.1)">
       <use xlink:href="#ArialMT-37"/>
       <use xlink:href="#ArialMT-35" transform="translate(55.615234 0)"/>
       <use xlink:href="#ArialMT-30" transform="translate(111.230469 0)"/>
      </g>
     </g>
    </g>
    <g id="ytick_4">
     <g id="line2d_29">
      <path d="M 49.98 199.543736 
L 853.2 199.543736 
" clip-path="url(#p0cb62b6e57)" style="fill: none; stroke: #cccccc; stroke-width: 0.8; stroke-linecap: round"/>
     </g>
     <g id="line2d_30"/>
     <g id="text_16">
      <!-- 1000 -->
      <g style="fill: #262626" transform="translate(24.23625 203.122642) scale(0.1 -0.1)">
       <use xlink:href="#ArialMT-31"/>
       <use xlink:href="#ArialMT-30" transform="translate(55.615234 0)"/>
       <use xlink:href="#ArialMT-30" transform="translate(111.230469 0)"/>
       <use xlink:href="#ArialMT-30" transform="translate(166.845703 0)"/>
      </g>
     </g>
    </g>
    <g id="ytick_5">
     <g id="line2d_31">
      <path d="M 49.98 150.535882 
L 853.2 150.535882 
" clip-path="url(#p0cb62b6e57)" style="fill: none; stroke: #cccccc; stroke-width: 0.8; stroke-linecap: round"/>
     </g>
     <g id="line2d_32"/>
     <g id="text_17">
      <!-- 1250 -->
      <g style="fill: #262626" transform="translate(24.23625 154.114789) scale(0.1 -0.1)">
       <use xlink:href="#ArialMT-31"/>
       <use xlink:href="#ArialMT-32" transform="translate(55.615234 0)"/>
       <use xlink:href="#ArialMT-35" transform="translate(111.230469 0)"/>
       <use xlink:href="#ArialMT-30" transform="translate(166.845703 0)"/>
      </g>
     </g>
    </g>
    <g id="ytick_6">
     <g id="line2d_33">
      <path d="M 49.98 101.528029 
L 853.2 101.528029 
" clip-path="url(#p0cb62b6e57)" style="fill: none; stroke: #cccccc; stroke-width: 0.8; stroke-linecap: round"/>
     </g>
     <g id="line2d_34"/>
     <g id="text_18">
      <!-- 1500 -->
      <g style="fill: #262626" transform="translate(24.23625 105.106935) scale(0.1 -0.1)">
       <use xlink:href="#ArialMT-31"/>
       <use xlink:href="#ArialMT-35" transform="translate(55.615234 0)"/>
       <use xlink:href="#ArialMT-30" transform="translate(111.230469 0)"/>
       <use xlink:href="#ArialMT-30" transform="translate(166.845703 0)"/>
      </g>
     </g>
    </g>
    <g id="ytick_7">
     <g id="line2d_35">
      <path d="M 49.98 52.520175 
L 853.2 52.520175 
" clip-path="url(#p0cb62b6e57)" style="fill: none; stroke: #cccccc; stroke-width: 0.8; stroke-linecap: round"/>
     </g>
     <g id="line2d_36"/>
     <g id="text_19">
      <!-- 1750 -->
      <g style="fill: #262626" transform="translate(24.23625 56.099081) scale(0.1 -0.1)">
       <use xlink:href="#ArialMT-31"/>
       <use xlink:href="#ArialMT-37" transform="translate(55.615234 0)"/>
       <use xlink:href="#ArialMT-35" transform="translate(111.230469 0)"/>
       <use xlink:href="#ArialMT-30" transform="translate(166.845703 0)"/>
      </g>
     </g>
    </g>
    <g id="text_20">
     <!-- Indexed Value -->
     <g style="fill: #262626" transform="translate(18.24875 243.159219) rotate(-90) scale(0.1 -0.1)">
      <defs>
       <path id="ArialMT-49" d="M 597 0 
L 597 4581 
L 1203 4581 
L 1203 0 
L 597 0 
z
" transform="scale(0.015625)"/>
       <path id="ArialMT-6e" d="M 422 0 
L 422 3319 
L 928 3319 
L 928 2847 
Q 1294 3394 1984 3394 
Q 2284 3394 2536 3286 
Q 2788 3178 2913 3003 
Q 3038 2828 3088 2588 
Q 3119 2431 3119 2041 
L 3119 0 
L 2556 0 
L 2556 2019 
Q 2556 2363 2490 2533 
Q 2425 2703 2258 2804 
Q 2091 2906 1866 2906 
Q 1506 2906 1245 2678 
Q 984 2450 984 1813 
L 984 0 
L 422 0 
z
" transform="scale(0.015625)"/>
       <path id="ArialMT-64" d="M 2575 0 
L 2575 419 
Q 2259 -75 1647 -75 
Q 1250 -75 917 144 
Q 584 363 401 755 
Q 219 1147 219 1656 
Q 219 2153 384 2558 
Q 550 2963 881 3178 
Q 1213 3394 1622 3394 
Q 1922 3394 2156 3267 
Q 2391 3141 2538 2938 
L 2538 4581 
L 3097 4581 
L 3097 0 
L 2575 0 
z
M 797 1656 
Q 797 1019 1065 703 
Q 1334 388 1700 388 
Q 2069 388 2326 689 
Q 2584 991 2584 1609 
Q 2584 2291 2321 2609 
Q 2059 2928 1675 2928 
Q 1300 2928 1048 2622 
Q 797 2316 797 1656 
z
" transform="scale(0.015625)"/>
       <path id="ArialMT-78" d="M 47 0 
L 1259 1725 
L 138 3319 
L 841 3319 
L 1350 2541 
Q 1494 2319 1581 2169 
Q 1719 2375 1834 2534 
L 2394 3319 
L 3066 3319 
L 1919 1756 
L 3153 0 
L 2463 0 
L 1781 1031 
L 1600 1309 
L 728 0 
L 47 0 
z
" transform="scale(0.015625)"/>
       <path id="ArialMT-20" transform="scale(0.015625)"/>
       <path id="ArialMT-56" d="M 1803 0 
L 28 4581 
L 684 4581 
L 1875 1253 
Q 2019 853 2116 503 
Q 2222 878 2363 1253 
L 3600 4581 
L 4219 4581 
L 2425 0 
L 1803 0 
z
" transform="scale(0.015625)"/>
       <path id="ArialMT-6c" d="M 409 0 
L 409 4581 
L 972 4581 
L 972 0 
L 409 0 
z
" transform="scale(0.015625)"/>
       <path id="ArialMT-75" d="M 2597 0 
L 2597 488 
Q 2209 -75 1544 -75 
Q 1250 -75 995 37 
Q 741 150 617 320 
Q 494 491 444 738 
Q 409 903 409 1263 
L 409 3319 
L 972 3319 
L 972 1478 
Q 972 1038 1006 884 
Q 1059 663 1231 536 
Q 1403 409 1656 409 
Q 1909 409 2131 539 
Q 2353 669 2445 892 
Q 2538 1116 2538 1541 
L 2538 3319 
L 3100 3319 
L 3100 0 
L 2597 0 
z
" transform="scale(0.015625)"/>
      </defs>
      <use xlink:href="#ArialMT-49"/>
      <use xlink:href="#ArialMT-6e" transform="translate(27.783203 0)"/>
      <use xlink:href="#ArialMT-64" transform="translate(83.398438 0)"/>
      <use xlink:href="#ArialMT-65" transform="translate(139.013672 0)"/>
      <use xlink:href="#ArialMT-78" transform="translate(194.628906 0)"/>
      <use xlink:href="#ArialMT-65" transform="translate(244.628906 0)"/>
      <use xlink:href="#ArialMT-64" transform="translate(300.244141 0)"/>
      <use xlink:href="#ArialMT-20" transform="translate(355.859375 0)"/>
      <use xlink:href="#ArialMT-56" transform="translate(383.642578 0)"/>
      <use xlink:href="#ArialMT-61" transform="translate(442.966797 0)"/>
      <use xlink:href="#ArialMT-6c" transform="translate(498.582031 0)"/>
      <use xlink:href="#ArialMT-75" transform="translate(520.798828 0)"/>
      <use xlink:href="#ArialMT-65" transform="translate(576.414062 0)"/>
     </g>
    </g>
   </g>
   <g id="line2d_37">
    <path d="M 86.49 375.972009 
L 87.289781 376.03805 
L 88.889343 376.676446 
L 91.288686 377.028664 
L 92.088467 376.918596 
L 92.888248 376.962623 
L 93.688028 376.808527 
L 96.887152 376.786514 
L 97.686933 376.962623 
L 98.486714 377.777127 
L 100.086276 377.689073 
L 102.485619 378.305455 
L 103.2854 378.239414 
L 104.085181 377.623032 
L 104.884962 376.500337 
L 108.084085 376.368255 
L 108.883866 377.292827 
L 109.683647 377.292827 
L 110.483428 377.072691 
L 111.283209 377.623032 
L 113.682552 378.283441 
L 114.482333 376.852555 
L 115.282114 376.148118 
L 116.081895 376.060064 
L 125.679266 375.751873 
L 127.278828 375.487709 
L 128.078609 375.509723 
L 130.477952 375.707846 
L 131.277733 375.619791 
L 132.077514 375.7959 
L 132.877295 375.443682 
L 136.076418 375.531737 
L 136.876199 375.707846 
L 138.475761 375.7959 
L 139.275542 375.994023 
L 141.674885 375.773887 
L 142.474666 374.783273 
L 143.274447 375.223546 
L 144.074228 375.509723 
L 144.874009 375.091464 
L 147.273352 374.915355 
L 148.073133 375.267573 
L 148.872913 375.443682 
L 149.672694 375.839927 
L 150.472475 376.060064 
L 152.871818 374.673205 
L 153.671599 373.660578 
L 154.47138 374.387028 
L 155.271161 374.453069 
L 156.070942 373.770646 
L 158.470285 372.846073 
L 159.270066 373.000169 
L 160.069847 372.912114 
L 164.068751 373.814673 
L 164.868532 373.462455 
L 165.668313 373.836687 
L 166.468094 373.902728 
L 167.267875 374.409041 
L 169.667218 372.449828 
L 170.466999 373.022182 
L 171.26678 372.493855 
L 172.066561 371.437201 
L 172.866342 370.974914 
L 175.265685 369.874233 
L 176.065465 370.732764 
L 178.464808 371.261092 
L 180.864151 371.040955 
L 181.663932 371.239078 
L 186.462618 370.050342 
L 187.262399 369.257851 
L 188.06218 369.962287 
L 188.861961 369.654096 
L 189.661742 368.729524 
L 192.061084 368.839592 
L 192.860865 369.632083 
L 193.660646 369.984301 
L 194.460427 369.588055 
L 195.260208 369.808192 
L 197.659551 369.610069 
L 198.459332 369.962287 
L 200.058894 369.522014 
L 200.858675 370.028328 
L 204.057798 371.12901 
L 204.857579 370.787798 
L 205.65736 371.140017 
L 206.457141 371.668344 
L 208.856484 371.712371 
L 209.656265 371.448207 
L 212.055608 371.316126 
L 215.254732 371.558276 
L 216.054513 371.40418 
L 216.854294 372.504862 
L 217.654074 372.394794 
L 220.053417 372.702985 
L 220.853198 372.482848 
L 221.652979 372.724998 
L 222.45276 373.517489 
L 223.252541 373.231312 
L 225.651884 373.34138 
L 226.451665 372.879094 
L 227.251446 372.262712 
L 228.851008 372.570903 
L 231.25035 372.042576 
L 232.050131 373.033189 
L 233.649693 373.605544 
L 234.449474 373.34138 
L 236.848817 373.715612 
L 237.648598 374.684212 
L 238.448379 374.420048 
L 239.24816 373.715612 
L 243.247065 373.957762 
L 244.046846 373.649571 
L 244.846627 373.737625 
L 245.646407 373.649571 
L 248.04575 373.803666 
L 248.845531 374.464075 
L 249.645312 374.640184 
L 250.445093 373.803666 
L 251.244874 373.231312 
L 253.644217 374.133871 
L 254.443998 374.221925 
L 255.243779 373.473462 
L 256.04356 373.187285 
L 256.843341 373.671584 
L 259.242683 373.979775 
L 261.642026 374.001789 
L 262.441807 374.464075 
L 265.640931 374.420048 
L 266.440712 374.79428 
L 267.240493 374.376021 
L 268.040274 374.750253 
L 270.439617 374.486089 
L 271.239398 374.816293 
L 272.039179 374.618171 
L 272.838959 374.882334 
L 273.63874 374.221925 
L 276.038083 374.970389 
L 276.837864 375.52073 
L 277.637645 375.674825 
L 278.437426 375.564757 
L 279.237207 374.860321 
L 282.436331 375.674825 
L 283.236112 376.269193 
L 284.035893 376.137112 
L 284.835674 376.665439 
L 289.634359 376.73148 
L 290.43414 377.391889 
L 294.433045 377.193766 
L 295.232826 376.357248 
L 296.032607 376.467316 
L 298.43195 376.423289 
L 299.231731 375.256566 
L 300.031512 375.388648 
L 300.831292 374.155884 
L 301.631073 373.143257 
L 304.030416 371.007935 
L 310.428664 370.589676 
L 311.228445 372.85708 
L 312.028226 372.306739 
L 312.828007 372.989162 
L 315.227349 373.121244 
L 316.02713 373.847694 
L 316.826911 374.045816 
L 317.626692 374.486089 
L 318.426473 374.155884 
L 320.825816 373.913734 
L 322.425378 373.187285 
L 323.225159 373.539503 
L 324.02494 372.218685 
L 326.424283 371.448207 
L 327.224064 372.350766 
L 328.023844 371.88848 
L 328.823625 372.020562 
L 329.623406 371.88848 
L 332.82253 371.778412 
L 333.622311 371.64633 
L 334.422092 370.853839 
L 335.221873 371.272098 
L 338.420997 371.800426 
L 339.220778 371.580289 
L 340.82034 372.570903 
L 343.219682 372.923121 
L 344.019463 372.747012 
L 345.619025 373.09923 
L 346.418806 373.847694 
L 348.818149 372.989162 
L 349.61793 373.407421 
L 350.417711 372.526876 
L 351.217492 371.954521 
L 352.017273 371.910494 
L 354.416616 371.338139 
L 355.216396 371.272098 
L 356.016177 371.602303 
L 356.815958 371.514248 
L 357.615739 370.853839 
L 360.015082 370.149403 
L 361.614644 370.633703 
L 362.414425 370.633703 
L 363.214206 371.140017 
L 365.613549 371.184044 
L 366.41333 371.338139 
L 367.213111 371.272098 
L 368.812673 371.580289 
L 371.212015 371.426194 
L 372.011796 371.250085 
L 376.810482 371.844453 
L 377.610263 371.822439 
L 379.209825 372.769025 
L 380.009606 373.033189 
L 383.208729 372.548889 
L 384.00851 372.504862 
L 384.808291 372.724998 
L 385.608072 372.416807 
L 388.007415 372.680971 
L 388.807196 371.40418 
L 389.606977 371.426194 
L 390.406758 371.910494 
L 391.206539 372.108616 
L 393.605882 372.879094 
L 394.405663 372.548889 
L 395.205444 372.967148 
L 396.005225 373.121244 
L 396.805005 372.923121 
L 399.204348 372.020562 
L 406.402377 372.989162 
L 407.202158 372.570903 
L 408.001939 372.284726 
L 410.401281 371.954521 
L 411.201062 371.580289 
L 412.000843 371.470221 
L 412.800624 371.756398 
L 413.600405 371.668344 
L 415.999748 372.570903 
L 416.799529 372.747012 
L 418.399091 372.813053 
L 419.198872 372.85708 
L 421.598215 371.382167 
L 422.397996 371.690357 
L 423.197777 371.206057 
L 423.997558 371.426194 
L 424.797338 371.844453 
L 427.196681 371.756398 
L 427.996462 371.866466 
L 428.796243 371.426194 
L 429.596024 371.492235 
L 430.395805 370.567662 
L 432.795148 370.699744 
L 433.594929 370.567662 
L 434.39471 370.655717 
L 435.194491 370.897867 
L 435.994272 370.743771 
L 439.193395 369.70913 
L 439.993176 369.643089 
L 440.792957 368.652476 
L 441.592738 368.916639 
L 444.791862 368.366299 
L 446.391424 369.048721 
L 450.390329 368.388312 
L 451.98989 368.762544 
L 455.189014 370.545648 
L 455.988795 370.127389 
L 457.588357 370.259471 
L 458.388138 370.699744 
L 460.787481 370.43558 
L 461.587262 371.118003 
L 462.387043 371.184044 
L 463.986605 370.875853 
L 466.385947 370.523635 
L 467.185728 370.633703 
L 467.985509 370.479607 
L 468.78529 370.897867 
L 469.585071 370.985921 
L 473.583976 371.073976 
L 479.182442 370.413567 
L 479.982223 370.479607 
L 480.782004 370.67773 
L 483.181347 370.281485 
L 483.981128 370.017321 
L 485.58069 370.039335 
L 489.579595 370.259471 
L 490.379376 370.171417 
L 491.179157 370.325512 
L 491.978938 370.699744 
L 494.37828 370.875853 
L 495.178061 371.426194 
L 496.777623 371.206057 
L 497.577404 371.470221 
L 500.776528 371.448207 
L 501.576309 371.16203 
L 502.37609 371.360153 
L 503.175871 371.360153 
L 505.575214 371.624316 
L 506.374995 372.064589 
L 507.174775 371.668344 
L 513.573023 372.13063 
L 514.372804 371.866466 
L 517.571928 371.778412 
L 518.371709 371.492235 
L 519.17149 371.668344 
L 519.971271 371.668344 
L 522.370613 371.272098 
L 523.170394 370.215444 
L 523.970175 370.105376 
L 524.769956 370.127389 
L 525.569737 369.753158 
L 527.96908 369.863226 
L 528.768861 368.762544 
L 529.568642 369.356912 
L 530.368423 369.268858 
L 531.168204 369.577048 
L 534.367327 369.378926 
L 535.167108 369.070735 
L 535.966889 368.278244 
L 536.76667 368.696503 
L 539.965794 368.036094 
L 540.765575 368.344285 
L 541.565356 367.639849 
L 542.365137 368.124149 
L 544.76448 368.036094 
L 545.564261 368.454353 
L 546.364042 368.432339 
L 547.163823 369.092749 
L 547.963604 369.180803 
L 550.362946 369.290871 
L 551.162727 369.092749 
L 552.762289 369.202817 
L 553.56207 369.290871 
L 556.761194 369.312885 
L 557.560975 368.938653 
L 558.360756 369.026708 
L 559.160537 367.243603 
L 561.55988 366.935412 
L 562.35966 367.77193 
L 563.159441 367.52978 
L 563.959222 367.749917 
L 564.759003 366.561181 
L 567.158346 366.473126 
L 567.958127 366.054867 
L 568.757908 366.73729 
L 569.557689 365.130294 
L 570.35747 362.004358 
L 572.756813 360.485417 
L 573.556594 363.171081 
L 574.356375 363.699408 
L 575.156156 364.55794 
L 575.955936 363.853504 
L 578.355279 362.114426 
L 579.15506 362.532685 
L 579.954841 362.708795 
L 580.754622 360.969717 
L 581.554403 362.092413 
L 583.953746 362.554699 
L 584.753527 362.928931 
L 585.553308 362.906917 
L 586.353089 362.730808 
L 587.15287 361.960331 
L 589.552212 360.815622 
L 590.351993 361.013745 
L 591.151774 360.749581 
L 591.951555 358.768354 
L 592.751336 359.384736 
L 595.150679 358.856409 
L 595.95046 358.195999 
L 603.148488 358.922449 
L 603.948269 358.416136 
L 606.347612 359.626886 
L 607.147393 361.123813 
L 607.947174 360.92569 
L 608.746955 361.145826 
L 609.546736 362.37859 
L 611.946079 362.158454 
L 612.74586 361.101799 
L 613.545641 361.872276 
L 614.345422 362.246508 
L 615.145203 361.277908 
L 617.544545 360.661527 
L 618.344326 360.595486 
L 619.144107 359.538831 
L 619.943888 360.529445 
L 620.743669 359.891049 
L 623.942793 361.40999 
L 624.742574 361.321936 
L 625.542355 360.991731 
L 626.342136 360.331322 
L 628.741479 360.617499 
L 630.341041 361.498045 
L 631.140821 359.604872 
L 631.940602 361.013745 
L 634.339945 361.608113 
L 635.139726 361.586099 
L 635.939507 361.982345 
L 636.739288 361.916304 
L 637.539069 363.369204 
L 639.938412 363.149067 
L 640.738193 362.576713 
L 641.537974 362.532685 
L 642.337755 363.171081 
L 643.137536 363.171081 
L 645.536878 361.343949 
L 647.936221 362.048386 
L 648.736002 361.454017 
L 651.135345 361.321936 
L 652.734907 361.630126 
L 653.534688 362.334563 
L 654.334469 362.488658 
L 656.733812 362.532685 
L 657.533593 362.928931 
L 658.333373 362.312549 
L 659.133154 362.62074 
L 659.932935 362.488658 
L 662.332278 361.542072 
L 663.132059 360.067158 
L 663.93184 359.032518 
L 664.731621 359.47279 
L 665.531402 359.47279 
L 667.930745 360.573472 
L 669.530307 358.350095 
L 673.529211 357.46955 
L 675.928554 357.359481 
L 676.728335 357.007263 
L 679.127678 356.765113 
L 679.927459 357.117331 
L 680.72724 357.337468 
L 681.527021 355.642418 
L 682.326802 354.651804 
L 684.726145 354.035423 
L 685.525926 353.969382 
L 686.325706 350.997541 
L 687.125487 349.192423 
L 687.925268 350.293105 
L 690.324611 350.557268 
L 691.124392 350.843446 
L 691.924173 348.003687 
L 692.723954 349.104368 
L 693.523735 348.950273 
L 695.923078 351.635936 
L 696.722859 350.4472 
L 697.52264 347.717509 
L 698.322421 348.091741 
L 699.122202 347.585428 
L 701.521544 346.594814 
L 702.321325 344.657614 
L 703.121106 339.528437 
L 703.920887 335.499942 
L 704.720668 339.352328 
L 713.518258 333.694824 
L 714.318039 335.191751 
L 715.11782 333.254552 
L 715.917601 336.468542 
L 718.316944 333.584756 
L 719.116725 337.767347 
L 719.916506 337.833388 
L 720.716287 335.698065 
L 721.516068 337.987483 
L 723.915411 338.75796 
L 724.715192 336.864788 
L 725.514973 337.657279 
L 726.314754 337.657279 
L 727.114535 338.537824 
L 729.513877 341.597719 
L 730.313658 343.336796 
L 731.113439 341.883896 
L 731.91322 344.371437 
L 732.713001 346.132528 
L 735.112344 344.415464 
L 735.912125 342.830483 
L 736.711906 340.320928 
L 737.511687 342.060005 
L 738.311468 340.981337 
L 740.710811 341.289528 
L 741.510591 342.478264 
L 742.310372 339.396356 
L 743.110153 339.572465 
L 743.909934 338.868028 
L 747.109058 338.03151 
L 747.908839 335.78612 
L 748.70862 334.355233 
L 749.508401 331.735611 
L 751.907744 325.30763 
L 752.707525 324.515139 
L 753.507306 327.531007 
L 754.307087 323.348416 
L 755.106867 322.247734 
L 757.50621 326.188175 
L 758.305991 326.10012 
L 759.105772 324.999439 
L 759.905553 322.203707 
L 760.705334 323.348416 
L 763.104677 322.379816 
L 764.704239 317.404735 
L 765.50402 320.046371 
L 770.302705 314.542962 
L 771.102486 312.495694 
L 771.902267 312.341599 
L 774.30161 312.319585 
L 775.101391 312.737844 
L 775.901172 312.121463 
L 776.700953 313.178117 
L 777.500734 321.455244 
L 779.900077 320.838862 
L 780.699858 319.165826 
L 781.499639 318.703539 
L 782.299419 317.80098 
L 783.0992 311.571122 
L 785.498543 309.215663 
L 786.298324 305.121127 
L 787.098105 308.555254 
L 787.897886 299.859868 
L 788.697667 302.89775 
L 791.09701 311.218904 
L 791.896791 309.942113 
L 792.696572 312.121463 
L 793.496353 311.064808 
L 794.296134 314.212758 
L 796.695476 317.294667 
L 797.495257 309.457813 
L 798.295038 308.907472 
L 799.094819 305.165154 
L 799.8946 303.976418 
L 802.293943 294.818746 
L 803.093724 286.299469 
L 803.893505 275.380707 
L 804.693286 277.802206 
L 807.89241 267.059553 
L 808.692191 265.848803 
L 810.291752 239.718619 
L 811.091533 232.410092 
L 813.490876 239.322373 
L 814.290657 235.139783 
L 815.890219 246.278682 
L 816.69 239.498482 
L 816.69 239.498482 
" clip-path="url(#p0cb62b6e57)" style="fill: none; stroke: #1f77b4; stroke-width: 2; stroke-linecap: round"/>
   </g>
   <g id="line2d_38">
    <path d="M 86.49 375.972009 
L 87.289781 376.996635 
L 88.089562 377.177302 
L 88.889343 377.900986 
L 91.288686 378.125297 
L 92.088467 377.665763 
L 92.888248 377.906314 
L 93.688028 377.288443 
L 94.487809 377.804309 
L 96.887152 377.563757 
L 98.486714 378.085205 
L 99.286495 376.114361 
L 100.086276 375.90096 
L 102.485619 375.791596 
L 103.2854 375.354138 
L 104.085181 375.408693 
L 104.884962 374.560928 
L 105.684743 374.99661 
L 108.084085 377.210036 
L 108.883866 377.687585 
L 109.683647 377.396031 
L 110.483428 375.891826 
L 111.283209 376.110555 
L 113.682552 375.718771 
L 114.482333 373.370606 
L 115.282114 373.419833 
L 116.081895 372.983897 
L 124.879485 368.353288 
L 125.679266 367.05893 
L 126.479047 368.798104 
L 127.278828 367.968609 
L 128.078609 369.204605 
L 130.477952 368.967607 
L 131.277733 366.614113 
L 132.077514 368.825509 
L 133.677076 366.767122 
L 136.076418 365.93585 
L 136.876199 365.297679 
L 137.67598 365.64049 
L 138.475761 366.212941 
L 139.275542 364.234738 
L 141.674885 365.035306 
L 142.474666 366.083531 
L 143.274447 366.056126 
L 144.074228 365.230183 
L 144.874009 363.802862 
L 147.273352 363.323282 
L 148.073133 364.449914 
L 148.872913 365.334219 
L 149.672694 365.567665 
L 150.472475 365.567665 
L 152.871818 365.780812 
L 153.671599 367.241119 
L 154.47138 368.025194 
L 155.271161 367.935876 
L 156.070942 367.594841 
L 158.470285 366.420759 
L 159.270066 366.502719 
L 160.069847 367.678831 
L 164.068751 366.13631 
L 164.868532 366.074396 
L 165.668313 367.05893 
L 166.468094 366.940431 
L 167.267875 365.266722 
L 169.667218 365.235765 
L 170.466999 365.808216 
L 171.26678 364.304264 
L 172.066561 364.528322 
L 172.866342 365.017036 
L 175.265685 367.266748 
L 176.065465 367.421787 
L 176.865246 365.460077 
L 177.665027 366.211165 
L 178.464808 362.435425 
L 180.864151 361.917784 
L 181.663932 362.171022 
L 186.462618 362.734338 
L 187.262399 363.906644 
L 189.661742 364.925942 
L 192.061084 364.861998 
L 192.860865 365.977719 
L 193.660646 365.733361 
L 194.460427 365.053322 
L 195.260208 365.038859 
L 197.659551 363.893957 
L 198.459332 363.789921 
L 199.259113 364.566637 
L 200.058894 364.45372 
L 200.858675 365.985077 
L 203.258018 365.438001 
L 204.057798 366.783616 
L 204.857579 366.785392 
L 205.65736 366.973164 
L 206.457141 367.465431 
L 208.856484 365.44536 
L 209.656265 364.597594 
L 210.456046 365.698852 
L 211.255827 364.232454 
L 212.055608 365.732092 
L 216.054513 365.808216 
L 216.854294 364.668897 
L 217.654074 360.964207 
L 220.053417 359.895936 
L 220.853198 358.779454 
L 222.45276 359.340233 
L 223.252541 359.771601 
L 225.651884 360.479552 
L 226.451665 361.826943 
L 227.251446 360.532838 
L 228.051227 361.512298 
L 228.851008 361.07078 
L 231.25035 359.289483 
L 232.050131 359.109324 
L 232.849912 359.644728 
L 233.649693 359.769063 
L 234.449474 360.15222 
L 236.848817 359.418894 
L 237.648598 356.896659 
L 238.448379 356.084672 
L 239.24816 357.168167 
L 240.047941 357.96493 
L 242.447284 358.101952 
L 243.247065 358.472422 
L 244.046846 360.098933 
L 244.846627 360.532838 
L 245.646407 361.806643 
L 248.04575 361.903066 
L 248.845531 362.836851 
L 249.645312 362.984024 
L 250.445093 365.031754 
L 251.244874 364.529337 
L 253.644217 363.174334 
L 254.443998 363.664063 
L 255.243779 363.197171 
L 256.04356 363.095672 
L 256.843341 365.866578 
L 259.242683 368.114767 
L 260.042464 367.008434 
L 260.842245 367.30278 
L 261.642026 368.018343 
L 262.441807 367.503239 
L 264.84115 367.295167 
L 265.640931 366.384219 
L 266.440712 366.678565 
L 267.240493 366.851112 
L 268.040274 365.617907 
L 270.439617 365.191614 
L 271.239398 365.178926 
L 272.039179 365.044441 
L 272.838959 365.25505 
L 273.63874 365.628057 
L 276.038083 367.043959 
L 277.637645 367.495627 
L 278.437426 368.997803 
L 279.237207 368.424337 
L 281.63655 369.634705 
L 282.436331 369.335285 
L 283.236112 370.200558 
L 284.035893 370.25892 
L 284.835674 370.829848 
L 287.235016 370.175184 
L 288.034797 369.051089 
L 288.834578 369.114526 
L 289.634359 368.652708 
L 290.43414 366.637965 
L 294.433045 367.221581 
L 295.232826 368.137604 
L 296.032607 368.398962 
L 298.43195 368.424337 
L 299.231731 365.059666 
L 300.031512 365.102803 
L 300.831292 363.151496 
L 301.631073 362.156812 
L 304.030416 356.762174 
L 310.428664 348.903663 
L 311.228445 353.833946 
L 312.828007 355.549268 
L 315.227349 354.950428 
L 316.02713 356.016161 
L 316.826911 358.325249 
L 317.626692 357.868506 
L 318.426473 353.427953 
L 320.825816 354.196803 
L 321.625597 352.920461 
L 322.425378 356.432304 
L 323.225159 356.193783 
L 324.02494 356.381555 
L 326.424283 357.858356 
L 327.224064 359.65234 
L 328.023844 360.215656 
L 328.823625 359.766526 
L 329.623406 360.347604 
L 332.022749 359.733539 
L 332.82253 358.429285 
L 333.622311 359.796975 
L 334.422092 359.243809 
L 335.221873 359.97206 
L 337.621216 359.289483 
L 338.420997 358.629744 
L 339.220778 356.39678 
L 340.82034 360.405965 
L 343.219682 362.560268 
L 344.819244 361.004806 
L 345.619025 362.106063 
L 346.418806 362.491757 
L 348.818149 364.339027 
L 350.417711 363.402705 
L 351.217492 364.392314 
L 352.017273 363.900047 
L 354.416616 362.555193 
L 356.016177 363.572715 
L 356.815958 362.603405 
L 357.615739 362.687141 
L 360.814863 364.808457 
L 361.614644 364.30604 
L 362.414425 363.027161 
L 363.214206 363.806161 
L 365.613549 364.897268 
L 366.41333 364.087819 
L 367.213111 364.737408 
L 368.012892 363.821386 
L 368.812673 363.806161 
L 371.212015 362.413096 
L 372.011796 362.661767 
L 372.811577 361.804106 
L 373.611358 360.329842 
L 374.411139 361.332138 
L 376.810482 362.770878 
L 377.610263 364.717109 
L 379.209825 365.072353 
L 382.408949 364.214692 
L 383.208729 363.488978 
L 384.00851 364.536949 
L 384.808291 365.224601 
L 385.608072 367.350991 
L 388.007415 367.942219 
L 388.807196 367.041421 
L 389.606977 368.008193 
L 390.406758 365.737167 
L 391.206539 366.394369 
L 394.405663 365.719405 
L 395.205444 362.562806 
L 396.005225 363.641226 
L 396.805005 363.514353 
L 399.204348 366.922161 
L 406.402377 371.126731 
L 407.202158 370.42893 
L 408.001939 368.708532 
L 411.201062 367.764597 
L 412.000843 367.663099 
L 412.800624 368.622259 
L 413.600405 368.797343 
L 415.999748 366.734389 
L 416.799529 367.234268 
L 417.59931 367.069333 
L 418.399091 367.018584 
L 419.198872 365.930014 
L 421.598215 367.00336 
L 422.397996 367.802659 
L 423.197777 367.5819 
L 423.997558 368.607034 
L 424.797338 370.461917 
L 427.196681 369.979799 
L 427.996462 370.05846 
L 428.796243 369.804715 
L 429.596024 369.370809 
L 430.395805 370.114285 
L 432.795148 370.07876 
L 433.594929 370.231008 
L 434.39471 370.083835 
L 435.194491 370.050848 
L 435.994272 369.670229 
L 438.393614 369.601718 
L 439.193395 368.434487 
L 439.993176 369.419021 
L 440.792957 369.413946 
L 441.592738 370.060998 
L 443.992081 369.951887 
L 445.591643 370.40863 
L 447.191205 371.339877 
L 451.19011 370.743574 
L 451.98989 372.235601 
L 455.189014 377.000949 
L 455.988795 377.716513 
L 456.788576 377.790099 
L 457.588357 376.394496 
L 458.388138 376.1712 
L 460.787481 375.366825 
L 461.587262 375.714457 
L 462.387043 376.267623 
L 463.186824 376.364047 
L 463.986605 375.975815 
L 466.385947 375.455636 
L 467.185728 375.739832 
L 467.985509 374.864408 
L 468.78529 375.420112 
L 469.585071 374.420353 
L 472.784195 374.973519 
L 473.583976 374.872021 
L 478.382662 374.070184 
L 479.182442 374.070184 
L 479.982223 371.573324 
L 480.782004 372.002154 
L 483.181347 371.375402 
L 483.981128 371.588548 
L 484.780909 371.091206 
L 485.58069 372.174702 
L 486.380471 371.233304 
L 488.779814 371.880356 
L 489.579595 371.707809 
L 490.379376 371.766171 
L 491.179157 372.088428 
L 491.978938 372.74563 
L 494.37828 372.621294 
L 495.178061 373.179535 
L 496.777623 371.96663 
L 497.577404 372.319337 
L 500.776528 372.773542 
L 502.37609 369.951887 
L 503.175871 369.807252 
L 505.575214 368.513148 
L 506.374995 368.71107 
L 507.174775 368.657783 
L 507.974556 366.622741 
L 508.774337 366.457806 
L 511.17368 365.463122 
L 511.973461 365.770154 
L 512.773242 364.323803 
L 513.573023 363.374793 
L 514.372804 363.070298 
L 516.772147 363.681825 
L 517.571928 364.148718 
L 518.371709 364.02692 
L 519.17149 363.019549 
L 519.971271 360.811959 
L 522.370613 358.919014 
L 523.170394 359.061112 
L 523.970175 360.677474 
L 524.769956 359.8325 
L 525.569737 360.545526 
L 527.96908 361.636633 
L 528.768861 359.167685 
L 529.568642 359.061112 
L 530.368423 358.73378 
L 531.168204 359.066187 
L 533.567547 357.91418 
L 534.367327 351.57307 
L 535.167108 352.600741 
L 535.966889 351.055428 
L 536.76667 350.098806 
L 539.166013 348.238848 
L 539.965794 349.129497 
L 540.765575 348.687979 
L 541.565356 348.93665 
L 542.365137 348.931575 
L 544.76448 347.244164 
L 545.564261 342.661513 
L 546.364042 342.491503 
L 547.163823 340.712744 
L 547.963604 342.483891 
L 550.362946 343.044669 
L 551.162727 342.410304 
L 551.962508 342.511803 
L 552.762289 343.034519 
L 553.56207 342.821373 
L 555.961413 341.438458 
L 556.761194 338.665015 
L 557.560975 331.986422 
L 558.360756 335.165858 
L 559.160537 335.526177 
L 561.55988 329.956454 
L 562.35966 326.023393 
L 563.159441 327.979774 
L 563.959222 328.631901 
L 567.158346 314.731699 
L 567.958127 316.254174 
L 568.757908 313.437595 
L 569.557689 304.827995 
L 570.35747 305.870891 
L 572.756813 292.884175 
L 573.556594 298.49196 
L 574.356375 287.786419 
L 575.156156 302.262624 
L 575.955936 292.655803 
L 579.15506 304.762021 
L 579.954841 298.238214 
L 580.754622 284.2898 
L 581.554403 288.826777 
L 583.953746 292.396983 
L 584.753527 291.534246 
L 585.553308 292.8588 
L 586.353089 292.046813 
L 587.15287 288.976487 
L 589.552212 289.864598 
L 590.351993 285.731077 
L 591.151774 288.468996 
L 591.951555 285.652416 
L 592.751336 290.955706 
L 595.150679 290.181781 
L 595.95046 293.49824 
L 603.148488 294.733982 
L 603.948269 296.969484 
L 606.347612 300.16922 
L 607.147393 308.007432 
L 607.947174 305.97239 
L 608.746955 302.711754 
L 609.546736 301.029419 
L 611.946079 293.569289 
L 612.74586 283.800071 
L 613.545641 283.089582 
L 614.345422 283.957393 
L 615.145203 270.478409 
L 617.544545 266.687445 
L 618.344326 265.657237 
L 619.144107 263.698318 
L 619.943888 265.215719 
L 620.743669 275.804536 
L 623.143012 274.030852 
L 623.942793 274.589093 
L 624.742574 274.789553 
L 625.542355 269.747621 
L 626.342136 271.480706 
L 628.741479 271.493393 
L 629.54126 277.063116 
L 630.341041 271.049338 
L 631.140821 273.777106 
L 631.940602 278.390207 
L 634.339945 273.218865 
L 635.139726 275.829911 
L 635.939507 271.848637 
L 636.739288 270.985901 
L 637.539069 278.08825 
L 639.938412 279.917758 
L 640.738193 274.117126 
L 641.537974 257.989035 
L 642.337755 262.866032 
L 643.137536 265.276618 
L 645.536878 259.313589 
L 646.336659 258.298605 
L 647.13644 262.934543 
L 647.936221 259.947954 
L 648.736002 259.554647 
L 651.135345 251.193719 
L 651.935126 242.058866 
L 652.734907 239.521407 
L 653.534688 246.92825 
L 654.334469 248.148768 
L 656.733812 250.975498 
L 657.533593 255.814432 
L 658.333373 246.123876 
L 659.133154 250.889224 
L 659.932935 250.762351 
L 662.332278 239.140788 
L 663.132059 238.252677 
L 663.93184 234.852482 
L 664.731621 233.482254 
L 665.531402 236.730201 
L 667.930745 239.013915 
L 668.730526 235.461472 
L 669.530307 241.043882 
L 673.529211 237.615775 
L 674.328992 242.249175 
L 675.128773 238.607921 
L 675.928554 244.735885 
L 676.728335 247.844273 
L 679.127678 245.618921 
L 679.927459 247.194683 
L 680.72724 245.357563 
L 681.527021 237.232618 
L 682.326802 239.267661 
L 684.726145 242.185739 
L 685.525926 247.38753 
L 686.325706 248.174143 
L 687.125487 238.252677 
L 687.925268 247.38753 
L 690.324611 246.16955 
L 691.124392 239.622905 
L 691.924173 236.476455 
L 692.723954 240.06696 
L 693.523735 231.147791 
L 695.923078 245.865055 
L 696.722859 246.194924 
L 697.52264 253.731178 
L 698.322421 253.226224 
L 699.122202 258.803559 
L 701.521544 252.21124 
L 702.321325 254.819748 
L 703.121106 260.858901 
L 703.920887 261.988071 
L 704.720668 261.08981 
L 713.518258 255.253654 
L 714.318039 252.190941 
L 715.11782 250.630403 
L 715.917601 260.328572 
L 718.316944 251.046546 
L 719.116725 252.766944 
L 719.916506 259.059843 
L 720.716287 254.492416 
L 721.516068 257.415569 
L 723.915411 262.361077 
L 724.715192 257.029875 
L 725.514973 255.081107 
L 726.314754 260.125576 
L 727.114535 258.29353 
L 729.513877 253.29981 
L 730.313658 258.044859 
L 731.113439 248.65626 
L 731.91322 249.87424 
L 732.713001 240.53639 
L 735.112344 243.677765 
L 735.912125 242.771892 
L 736.711906 236.374957 
L 738.311468 244.088833 
L 740.710811 246.352247 
L 741.510591 251.343429 
L 742.310372 243.106836 
L 743.110153 248.148768 
L 743.909934 241.926918 
L 747.109058 238.625683 
L 747.908839 221.216175 
L 748.70862 219.977895 
L 749.508401 209.414452 
L 751.907744 208.564404 
L 752.707525 199.683296 
L 753.507306 197.91215 
L 754.307087 190.393658 
L 755.106867 179.891114 
L 757.50621 180.14486 
L 758.305991 176.374195 
L 759.105772 170.852684 
L 759.905553 168.218801 
L 763.104677 178.361026 
L 763.904458 186.488508 
L 764.704239 181.159844 
L 765.50402 177.98802 
L 770.302705 178.368638 
L 771.102486 172.920713 
L 771.902267 170.756261 
L 774.30161 157.020994 
L 775.101391 137.264336 
L 776.700953 122.037043 
L 777.500734 129.174916 
L 779.900077 130.410659 
L 780.699858 134.216847 
L 781.499639 132.440626 
L 782.299419 143.519173 
L 783.0992 132.191955 
L 785.498543 118.230854 
L 786.298324 115.693395 
L 787.098105 113.569541 
L 787.897886 91.590069 
L 788.697667 100.935532 
L 791.09701 108.842255 
L 791.896791 93.158219 
L 792.696572 72.049096 
L 793.496353 70.780366 
L 794.296134 96.157496 
L 796.695476 102.501144 
L 797.495257 96.154959 
L 798.295038 104.528574 
L 799.094819 110.36473 
L 799.8946 104.021082 
L 802.293943 79.661473 
L 803.093724 78.877399 
L 803.893505 71.767438 
L 804.693286 48.481174 
L 807.89241 44.814545 
L 808.692191 63.165451 
L 809.491972 62.614822 
L 810.291752 59.767793 
L 811.091533 77.405672 
L 813.490876 86.005122 
L 814.290657 73.317825 
L 815.090438 85.200747 
L 815.890219 105.543558 
L 816.69 112.394698 
L 816.69 112.394698 
" clip-path="url(#p0cb62b6e57)" style="fill: none; stroke: #ff7f0e; stroke-width: 2; stroke-linecap: round"/>
   </g>
   <g id="patch_3">
    <path d="M 49.98 394.98 
L 49.98 28.14 
" style="fill: none; stroke: #cccccc; stroke-linejoin: miter; stroke-linecap: square"/>
   </g>
   <g id="patch_4">
    <path d="M 853.2 394.98 
L 853.2 28.14 
" style="fill: none; stroke: #cccccc; stroke-linejoin: miter; stroke-linecap: square"/>
   </g>
   <g id="patch_5">
    <path d="M 49.98 394.98 
L 853.2 394.98 
" style="fill: none; stroke: #cccccc; stroke-linejoin: miter; stroke-linecap: square"/>
   </g>
   <g id="patch_6">
    <path d="M 49.98 28.14 
L 853.2 28.14 
" style="fill: none; stroke: #cccccc; stroke-linejoin: miter; stroke-linecap: square"/>
   </g>
   <g id="text_21">
    <!-- Normalized Performance (Base = 100) -->
    <g style="fill: #262626" transform="translate(314.87125 22.14) scale(0.16 -0.16)">
     <defs>
      <path id="ArialMT-4e" d="M 488 0 
L 488 4581 
L 1109 4581 
L 3516 984 
L 3516 4581 
L 4097 4581 
L 4097 0 
L 3475 0 
L 1069 3600 
L 1069 0 
L 488 0 
z
" transform="scale(0.015625)"/>
      <path id="ArialMT-6f" d="M 213 1659 
Q 213 2581 725 3025 
Q 1153 3394 1769 3394 
Q 2453 3394 2887 2945 
Q 3322 2497 3322 1706 
Q 3322 1066 3130 698 
Q 2938 331 2570 128 
Q 2203 -75 1769 -75 
Q 1072 -75 642 372 
Q 213 819 213 1659 
z
M 791 1659 
Q 791 1022 1069 705 
Q 1347 388 1769 388 
Q 2188 388 2466 706 
Q 2744 1025 2744 1678 
Q 2744 2294 2464 2611 
Q 2184 2928 1769 2928 
Q 1347 2928 1069 2612 
Q 791 2297 791 1659 
z
" transform="scale(0.015625)"/>
      <path id="ArialMT-72" d="M 416 0 
L 416 3319 
L 922 3319 
L 922 2816 
Q 1116 3169 1280 3281 
Q 1444 3394 1641 3394 
Q 1925 3394 2219 3213 
L 2025 2691 
Q 1819 2813 1613 2813 
Q 1428 2813 1281 2702 
Q 1134 2591 1072 2394 
Q 978 2094 978 1738 
L 978 0 
L 416 0 
z
" transform="scale(0.015625)"/>
      <path id="ArialMT-6d" d="M 422 0 
L 422 3319 
L 925 3319 
L 925 2853 
Q 1081 3097 1340 3245 
Q 1600 3394 1931 3394 
Q 2300 3394 2536 3241 
Q 2772 3088 2869 2813 
Q 3263 3394 3894 3394 
Q 4388 3394 4653 3120 
Q 4919 2847 4919 2278 
L 4919 0 
L 4359 0 
L 4359 2091 
Q 4359 2428 4304 2576 
Q 4250 2725 4106 2815 
Q 3963 2906 3769 2906 
Q 3419 2906 3187 2673 
Q 2956 2441 2956 1928 
L 2956 0 
L 2394 0 
L 2394 2156 
Q 2394 2531 2256 2718 
Q 2119 2906 1806 2906 
Q 1569 2906 1367 2781 
Q 1166 2656 1075 2415 
Q 984 2175 984 1722 
L 984 0 
L 422 0 
z
" transform="scale(0.015625)"/>
      <path id="ArialMT-69" d="M 425 3934 
L 425 4581 
L 988 4581 
L 988 3934 
L 425 3934 
z
M 425 0 
L 425 3319 
L 988 3319 
L 988 0 
L 425 0 
z
" transform="scale(0.015625)"/>
      <path id="ArialMT-7a" d="M 125 0 
L 125 456 
L 2238 2881 
Q 1878 2863 1603 2863 
L 250 2863 
L 250 3319 
L 2963 3319 
L 2963 2947 
L 1166 841 
L 819 456 
Q 1197 484 1528 484 
L 3063 484 
L 3063 0 
L 125 0 
z
" transform="scale(0.015625)"/>
      <path id="ArialMT-50" d="M 494 0 
L 494 4581 
L 2222 4581 
Q 2678 4581 2919 4538 
Q 3256 4481 3484 4323 
Q 3713 4166 3852 3881 
Q 3991 3597 3991 3256 
Q 3991 2672 3619 2267 
Q 3247 1863 2275 1863 
L 1100 1863 
L 1100 0 
L 494 0 
z
M 1100 2403 
L 2284 2403 
Q 2872 2403 3119 2622 
Q 3366 2841 3366 3238 
Q 3366 3525 3220 3729 
Q 3075 3934 2838 4000 
Q 2684 4041 2272 4041 
L 1100 4041 
L 1100 2403 
z
" transform="scale(0.015625)"/>
      <path id="ArialMT-66" d="M 556 0 
L 556 2881 
L 59 2881 
L 59 3319 
L 556 3319 
L 556 3672 
Q 556 4006 616 4169 
Q 697 4388 901 4523 
Q 1106 4659 1475 4659 
Q 1713 4659 2000 4603 
L 1916 4113 
Q 1741 4144 1584 4144 
Q 1328 4144 1222 4034 
Q 1116 3925 1116 3625 
L 1116 3319 
L 1763 3319 
L 1763 2881 
L 1116 2881 
L 1116 0 
L 556 0 
z
" transform="scale(0.015625)"/>
      <path id="ArialMT-63" d="M 2588 1216 
L 3141 1144 
Q 3050 572 2676 248 
Q 2303 -75 1759 -75 
Q 1078 -75 664 370 
Q 250 816 250 1647 
Q 250 2184 428 2587 
Q 606 2991 970 3192 
Q 1334 3394 1763 3394 
Q 2303 3394 2647 3120 
Q 2991 2847 3088 2344 
L 2541 2259 
Q 2463 2594 2264 2762 
Q 2066 2931 1784 2931 
Q 1359 2931 1093 2626 
Q 828 2322 828 1663 
Q 828 994 1084 691 
Q 1341 388 1753 388 
Q 2084 388 2306 591 
Q 2528 794 2588 1216 
z
" transform="scale(0.015625)"/>
      <path id="ArialMT-28" d="M 1497 -1347 
Q 1031 -759 709 28 
Q 388 816 388 1659 
Q 388 2403 628 3084 
Q 909 3875 1497 4659 
L 1900 4659 
Q 1522 4009 1400 3731 
Q 1209 3300 1100 2831 
Q 966 2247 966 1656 
Q 966 153 1900 -1347 
L 1497 -1347 
z
" transform="scale(0.015625)"/>
      <path id="ArialMT-42" d="M 469 0 
L 469 4581 
L 2188 4581 
Q 2713 4581 3030 4442 
Q 3347 4303 3526 4014 
Q 3706 3725 3706 3409 
Q 3706 3116 3547 2856 
Q 3388 2597 3066 2438 
Q 3481 2316 3704 2022 
Q 3928 1728 3928 1328 
Q 3928 1006 3792 729 
Q 3656 453 3456 303 
Q 3256 153 2954 76 
Q 2653 0 2216 0 
L 469 0 
z
M 1075 2656 
L 2066 2656 
Q 2469 2656 2644 2709 
Q 2875 2778 2992 2937 
Q 3109 3097 3109 3338 
Q 3109 3566 3000 3739 
Q 2891 3913 2687 3977 
Q 2484 4041 1991 4041 
L 1075 4041 
L 1075 2656 
z
M 1075 541 
L 2216 541 
Q 2509 541 2628 563 
Q 2838 600 2978 687 
Q 3119 775 3209 942 
Q 3300 1109 3300 1328 
Q 3300 1584 3169 1773 
Q 3038 1963 2805 2039 
Q 2572 2116 2134 2116 
L 1075 2116 
L 1075 541 
z
" transform="scale(0.015625)"/>
      <path id="ArialMT-73" d="M 197 991 
L 753 1078 
Q 800 744 1014 566 
Q 1228 388 1613 388 
Q 2000 388 2187 545 
Q 2375 703 2375 916 
Q 2375 1106 2209 1216 
Q 2094 1291 1634 1406 
Q 1016 1563 777 1677 
Q 538 1791 414 1992 
Q 291 2194 291 2438 
Q 291 2659 392 2848 
Q 494 3038 669 3163 
Q 800 3259 1026 3326 
Q 1253 3394 1513 3394 
Q 1903 3394 2198 3281 
Q 2494 3169 2634 2976 
Q 2775 2784 2828 2463 
L 2278 2388 
Q 2241 2644 2061 2787 
Q 1881 2931 1553 2931 
Q 1166 2931 1000 2803 
Q 834 2675 834 2503 
Q 834 2394 903 2306 
Q 972 2216 1119 2156 
Q 1203 2125 1616 2013 
Q 2213 1853 2448 1751 
Q 2684 1650 2818 1456 
Q 2953 1263 2953 975 
Q 2953 694 2789 445 
Q 2625 197 2315 61 
Q 2006 -75 1616 -75 
Q 969 -75 630 194 
Q 291 463 197 991 
z
" transform="scale(0.015625)"/>
      <path id="ArialMT-3d" d="M 3381 2694 
L 356 2694 
L 356 3219 
L 3381 3219 
L 3381 2694 
z
M 3381 1303 
L 356 1303 
L 356 1828 
L 3381 1828 
L 3381 1303 
z
" transform="scale(0.015625)"/>
      <path id="ArialMT-29" d="M 791 -1347 
L 388 -1347 
Q 1322 153 1322 1656 
Q 1322 2244 1188 2822 
Q 1081 3291 891 3722 
Q 769 4003 388 4659 
L 791 4659 
Q 1378 3875 1659 3084 
Q 1900 2403 1900 1659 
Q 1900 816 1576 28 
Q 1253 -759 791 -1347 
z
" transform="scale(0.015625)"/>
     </defs>
     <use xlink:href="#ArialMT-4e"/>
     <use xlink:href="#ArialMT-6f" transform="translate(72.216797 0)"/>
     <use xlink:href="#ArialMT-72" transform="translate(127.832031 0)"/>
     <use xlink:href="#ArialMT-6d" transform="translate(161.132812 0)"/>
     <use xlink:href="#ArialMT-61" transform="translate(244.433594 0)"/>
     <use xlink:href="#ArialMT-6c" transform="translate(300.048828 0)"/>
     <use xlink:href="#ArialMT-69" transform="translate(322.265625 0)"/>
     <use xlink:href="#ArialMT-7a" transform="translate(344.482422 0)"/>
     <use xlink:href="#ArialMT-65" transform="translate(394.482422 0)"/>
     <use xlink:href="#ArialMT-64" transform="translate(450.097656 0)"/>
     <use xlink:href="#ArialMT-20" transform="translate(505.712891 0)"/>
     <use xlink:href="#ArialMT-50" transform="translate(533.496094 0)"/>
     <use xlink:href="#ArialMT-65" transform="translate(600.195312 0)"/>
     <use xlink:href="#ArialMT-72" transform="translate(655.810547 0)"/>
     <use xlink:href="#ArialMT-66" transform="translate(689.111328 0)"/>
     <use xlink:href="#ArialMT-6f" transform="translate(716.894531 0)"/>
     <use xlink:href="#ArialMT-72" transform="translate(772.509766 0)"/>
     <use xlink:href="#ArialMT-6d" transform="translate(805.810547 0)"/>
     <use xlink:href="#ArialMT-61" transform="translate(889.111328 0)"/>
     <use xlink:href="#ArialMT-6e" transform="translate(944.726562 0)"/>
     <use xlink:href="#ArialMT-63" transform="translate(1000.341797 0)"/>
     <use xlink:href="#ArialMT-65" transform="translate(1050.341797 0)"/>
     <use xlink:href="#ArialMT-20" transform="translate(1105.957031 0)"/>
     <use xlink:href="#ArialMT-28" transform="translate(1133.740234 0)"/>
     <use xlink:href="#ArialMT-42" transform="translate(1167.041016 0)"/>
     <use xlink:href="#ArialMT-61" transform="translate(1233.740234 0)"/>
     <use xlink:href="#ArialMT-73" transform="translate(1289.355469 0)"/>
     <use xlink:href="#ArialMT-65" transform="translate(1339.355469 0)"/>
     <use xlink:href="#ArialMT-20" transform="translate(1394.970703 0)"/>
     <use xlink:href="#ArialMT-3d" transform="translate(1422.753906 0)"/>
     <use xlink:href="#ArialMT-20" transform="translate(1481.152344 0)"/>
     <use xlink:href="#ArialMT-31" transform="translate(1508.935547 0)"/>
     <use xlink:href="#ArialMT-30" transform="translate(1564.550781 0)"/>
     <use xlink:href="#ArialMT-30" transform="translate(1620.166016 0)"/>
     <use xlink:href="#ArialMT-29" transform="translate(1675.78125 0)"/>
    </g>
   </g>
   <g id="legend_1">
    <g id="line2d_39">
     <path d="M 58.98 40.797812 
L 68.98 40.797812 
L 78.98 40.797812 
" style="fill: none; stroke: #1f77b4; stroke-width: 2; stroke-linecap: round"/>
    </g>
    <g id="text_22">
     <!-- China Jushi -->
     <g style="fill: #262626" transform="translate(86.98 44.297812) scale(0.1 -0.1)">
      <defs>
       <path id="ArialMT-43" d="M 3763 1606 
L 4369 1453 
Q 4178 706 3683 314 
Q 3188 -78 2472 -78 
Q 1731 -78 1267 223 
Q 803 525 561 1097 
Q 319 1669 319 2325 
Q 319 3041 592 3573 
Q 866 4106 1370 4382 
Q 1875 4659 2481 4659 
Q 3169 4659 3637 4309 
Q 4106 3959 4291 3325 
L 3694 3184 
Q 3534 3684 3231 3912 
Q 2928 4141 2469 4141 
Q 1941 4141 1586 3887 
Q 1231 3634 1087 3207 
Q 944 2781 944 2328 
Q 944 1744 1114 1308 
Q 1284 872 1643 656 
Q 2003 441 2422 441 
Q 2931 441 3284 734 
Q 3638 1028 3763 1606 
z
" transform="scale(0.015625)"/>
       <path id="ArialMT-68" d="M 422 0 
L 422 4581 
L 984 4581 
L 984 2938 
Q 1378 3394 1978 3394 
Q 2347 3394 2619 3248 
Q 2891 3103 3008 2847 
Q 3125 2591 3125 2103 
L 3125 0 
L 2563 0 
L 2563 2103 
Q 2563 2525 2380 2717 
Q 2197 2909 1863 2909 
Q 1613 2909 1392 2779 
Q 1172 2650 1078 2428 
Q 984 2206 984 1816 
L 984 0 
L 422 0 
z
" transform="scale(0.015625)"/>
       <path id="ArialMT-4a" d="M 184 1300 
L 731 1375 
Q 753 850 928 656 
Q 1103 463 1413 463 
Q 1641 463 1806 567 
Q 1972 672 2034 851 
Q 2097 1031 2097 1425 
L 2097 4581 
L 2703 4581 
L 2703 1459 
Q 2703 884 2564 568 
Q 2425 253 2123 87 
Q 1822 -78 1416 -78 
Q 813 -78 492 269 
Q 172 616 184 1300 
z
" transform="scale(0.015625)"/>
      </defs>
      <use xlink:href="#ArialMT-43"/>
      <use xlink:href="#ArialMT-68" transform="translate(72.216797 0)"/>
      <use xlink:href="#ArialMT-69" transform="translate(127.832031 0)"/>
      <use xlink:href="#ArialMT-6e" transform="translate(150.048828 0)"/>
      <use xlink:href="#ArialMT-61" transform="translate(205.664062 0)"/>
      <use xlink:href="#ArialMT-20" transform="translate(261.279297 0)"/>
      <use xlink:href="#ArialMT-4a" transform="translate(289.0625 0)"/>
      <use xlink:href="#ArialMT-75" transform="translate(339.0625 0)"/>
      <use xlink:href="#ArialMT-73" transform="translate(394.677734 0)"/>
      <use xlink:href="#ArialMT-68" transform="translate(444.677734 0)"/>
      <use xlink:href="#ArialMT-69" transform="translate(500.292969 0)"/>
     </g>
    </g>
    <g id="line2d_40">
     <path d="M 58.98 54.943125 
L 68.98 54.943125 
L 78.98 54.943125 
" style="fill: none; stroke: #ff7f0e; stroke-width: 2; stroke-linecap: round"/>
    </g>
    <g id="text_23">
     <!-- Zhongji Xuchuang -->
     <g style="fill: #262626" transform="translate(86.98 58.443125) scale(0.1 -0.1)">
      <defs>
       <path id="ArialMT-5a" d="M 128 0 
L 128 563 
L 2475 3497 
Q 2725 3809 2950 4041 
L 394 4041 
L 394 4581 
L 3675 4581 
L 3675 4041 
L 1103 863 
L 825 541 
L 3750 541 
L 3750 0 
L 128 0 
z
" transform="scale(0.015625)"/>
       <path id="ArialMT-67" d="M 319 -275 
L 866 -356 
Q 900 -609 1056 -725 
Q 1266 -881 1628 -881 
Q 2019 -881 2231 -725 
Q 2444 -569 2519 -288 
Q 2563 -116 2559 434 
Q 2191 0 1641 0 
Q 956 0 581 494 
Q 206 988 206 1678 
Q 206 2153 378 2554 
Q 550 2956 876 3175 
Q 1203 3394 1644 3394 
Q 2231 3394 2613 2919 
L 2613 3319 
L 3131 3319 
L 3131 450 
Q 3131 -325 2973 -648 
Q 2816 -972 2473 -1159 
Q 2131 -1347 1631 -1347 
Q 1038 -1347 672 -1080 
Q 306 -813 319 -275 
z
M 784 1719 
Q 784 1066 1043 766 
Q 1303 466 1694 466 
Q 2081 466 2343 764 
Q 2606 1063 2606 1700 
Q 2606 2309 2336 2618 
Q 2066 2928 1684 2928 
Q 1309 2928 1046 2623 
Q 784 2319 784 1719 
z
" transform="scale(0.015625)"/>
       <path id="ArialMT-6a" d="M 419 3928 
L 419 4581 
L 981 4581 
L 981 3928 
L 419 3928 
z
M -294 -1288 
L -188 -809 
Q -19 -853 78 -853 
Q 250 -853 334 -739 
Q 419 -625 419 -169 
L 419 3319 
L 981 3319 
L 981 -181 
Q 981 -794 822 -1034 
Q 619 -1347 147 -1347 
Q -81 -1347 -294 -1288 
z
" transform="scale(0.015625)"/>
       <path id="ArialMT-58" d="M 28 0 
L 1800 2388 
L 238 4581 
L 959 4581 
L 1791 3406 
Q 2050 3041 2159 2844 
Q 2313 3094 2522 3366 
L 3444 4581 
L 4103 4581 
L 2494 2422 
L 4228 0 
L 3478 0 
L 2325 1634 
Q 2228 1775 2125 1941 
Q 1972 1691 1906 1597 
L 756 0 
L 28 0 
z
" transform="scale(0.015625)"/>
      </defs>
      <use xlink:href="#ArialMT-5a"/>
      <use xlink:href="#ArialMT-68" transform="translate(61.083984 0)"/>
      <use xlink:href="#ArialMT-6f" transform="translate(116.699219 0)"/>
      <use xlink:href="#ArialMT-6e" transform="translate(172.314453 0)"/>
      <use xlink:href="#ArialMT-67" transform="translate(227.929688 0)"/>
      <use xlink:href="#ArialMT-6a" transform="translate(283.544922 0)"/>
      <use xlink:href="#ArialMT-69" transform="translate(305.761719 0)"/>
      <use xlink:href="#ArialMT-20" transform="translate(327.978516 0)"/>
      <use xlink:href="#ArialMT-58" transform="translate(355.761719 0)"/>
      <use xlink:href="#ArialMT-75" transform="translate(422.460938 0)"/>
      <use xlink:href="#ArialMT-63" transform="translate(478.076172 0)"/>
      <use xlink:href="#ArialMT-68" transform="translate(528.076172 0)"/>
      <use xlink:href="#ArialMT-75" transform="translate(583.691406 0)"/>
      <use xlink:href="#ArialMT-61" transform="translate(639.306641 0)"/>
      <use xlink:href="#ArialMT-6e" transform="translate(694.921875 0)"/>
      <use xlink:href="#ArialMT-67" transform="translate(750.537109 0)"/>
     </g>
    </g>
   </g>
  </g>
 </g>
 <defs>
  <clipPath id="p0cb62b6e57">
   <rect x="49.98" y="28.14" width="803.22" height="366.84"/>
  </clipPath>
 </defs>
</svg>
